<?xml version="1.0" encoding="utf-8"?>
<!-- Generator: Adobe Illustrator 15.1.0, SVG Export Plug-In  -->
<!DOCTYPE svg PUBLIC "-//W3C//DTD SVG 1.1//EN" "http://www.w3.org/Graphics/SVG/1.1/DTD/svg11.dtd" [
	<!ENTITY ns_flows "http://ns.adobe.com/Flows/1.0/">
]>
<svg version="1.1"
	 xmlns="http://www.w3.org/2000/svg" xmlns:xlink="http://www.w3.org/1999/xlink" xmlns:a="http://ns.adobe.com/AdobeSVGViewerExtensions/3.0/"
	 x="0px" y="0px" width="83px" height="74px" viewBox="-6.926 -1.594 83 74" enable-background="new -6.926 -1.594 83 74"
	 xml:space="preserve">
<defs>
</defs>
<path display="none" fill="#72BF00" d="M6.59,27.659c2.868,1.644,6.767,2.945,11.696,3.906c4.929,0.961,10.29,1.441,16.083,1.441
	s11.153-0.48,16.083-1.441c4.929-0.961,8.828-2.263,11.695-3.906c2.869-1.643,4.303-3.426,4.303-5.347v-5.347
	c0-1.922-1.434-3.705-4.303-5.348c-2.867-1.644-6.767-2.945-11.695-3.905c-4.93-0.962-10.29-1.442-16.083-1.442
	s-11.154,0.48-16.083,1.442c-4.93,0.96-8.828,2.262-11.696,3.905c-2.869,1.643-4.303,3.426-4.303,5.348v5.347
	C2.287,24.233,3.721,26.017,6.59,27.659z"/>
<path display="none" fill="#72BF00" d="M34.369,70.437c-6.6,0-12.769-0.6-18.506-1.797c-5.736-1.198-10.262-2.967-13.576-5.305
	v7.102c0,1.921,1.434,3.704,4.303,5.346c2.868,1.645,6.767,2.946,11.696,3.907c4.929,0.961,10.29,1.441,16.083,1.441
	s11.153-0.48,16.083-1.441c2.921-0.57,5.472-1.262,7.67-2.072l-6.635-8.729C46.141,69.903,40.447,70.437,34.369,70.437z"/>
<path display="none" fill="#72BF00" d="M6.59,43.7c2.868,1.644,6.767,2.945,11.696,3.906c4.929,0.961,10.29,1.441,16.083,1.441
	s11.153-0.48,16.083-1.441c4.929-0.961,8.828-2.263,11.695-3.906c2.869-1.643,4.303-3.424,4.303-5.347v-7.102
	c-3.314,2.339-7.839,4.107-13.575,5.306c-5.737,1.197-11.906,1.796-18.506,1.796s-12.769-0.599-18.506-1.796
	c-5.736-1.198-10.262-2.967-13.576-5.306v7.102C2.287,40.276,3.721,42.058,6.59,43.7z"/>
<path display="none" fill="#72BF00" d="M6.59,59.741c2.868,1.643,6.767,2.945,11.696,3.905c4.929,0.962,10.29,1.442,16.083,1.442
	s11.153-0.48,16.083-1.442c3.224-0.628,5.999-1.405,8.343-2.326V51.018c-1.805,0.606-3.777,1.134-5.92,1.581
	c-5.737,1.197-11.906,1.796-18.506,1.796s-12.769-0.599-18.506-1.796c-5.736-1.197-10.262-2.967-13.576-5.305v7.101
	C2.287,56.315,3.721,58.099,6.59,59.741z"/>
<polygon display="none" fill="#72BF00" points="75.185,66.569 75.185,47.688 61.794,47.688 61.794,66.569 53.493,66.569 
	60.991,76.436 68.489,86.3 75.987,76.436 83.485,66.569 "/>
<circle display="none" fill="#009999" cx="13.628" cy="17.611" r="10.341"/>
<path display="none" fill="#FFFFFF" d="M13.628,28.951c-6.253,0-11.341-5.087-11.341-11.34s5.088-11.34,11.341-11.34
	s11.341,5.087,11.341,11.34S19.881,28.951,13.628,28.951z M13.628,8.271c-5.15,0-9.341,4.19-9.341,9.34s4.19,9.34,9.341,9.34
	s9.341-4.19,9.341-9.34S18.778,8.271,13.628,8.271z"/>
<polygon display="none" fill="#FFFFFF" points="12.027,21.57 8.126,17.67 9.54,16.256 12.027,18.742 16.996,13.773 18.41,15.188 "/>
<circle display="none" fill="#FF0000" cx="13.628" cy="17.611" r="10.341"/>
<path display="none" fill="#FFFFFF" d="M13.628,28.951c-6.253,0-11.341-5.087-11.341-11.34s5.088-11.34,11.341-11.34
	s11.341,5.087,11.341,11.34S19.881,28.951,13.628,28.951z M13.628,8.271c-5.15,0-9.341,4.19-9.341,9.34s4.19,9.34,9.341,9.34
	s9.341-4.19,9.341-9.34S18.778,8.271,13.628,8.271z"/>
<rect x="12.633" y="13.17" display="none" fill="#FFFFFF" width="1.99" height="7.413"/>
<rect x="12.633" y="21.57" display="none" fill="#FFFFFF" width="1.99" height="2.033"/>
<g display="none">
	<path display="inline" fill="#343434" d="M39.773,17.97c-1,0-1.809,0.81-1.809,1.81v29.42c0,1,0.809,1.811,1.809,1.811
		s1.811-0.811,1.811-1.811v-29.42C41.584,18.779,40.773,17.97,39.773,17.97L39.773,17.97z"/>
</g>
<g display="none">
	<path display="inline" fill="#343434" d="M14.385,29.59v10.26H7.934V29.59H14.385 M16.385,27.59H7.934c-1.1,0-2,0.89-2,2v10.26
		c0,1.1,0.9,2,2,2h8.451V27.59L16.385,27.59z"/>
</g>
<g display="none">
	<path display="inline" fill="#343434" d="M35.965,24.955v19.288c-4.481-2.854-10.729-3.795-14.17-4.314l-0.372-0.056l-0.149-0.022
		h-0.15h-2.738V29.59h3.1h0.157l0.155-0.024C24.428,29.15,31.178,28.083,35.965,24.955 M37.965,20.359
		c-3.281,4.91-12.301,6.57-16.48,7.23h-5.1v14.26h4.738c3.951,0.6,13.461,1.89,16.842,6.96V20.359L37.965,20.359z"/>
</g>
<g display="none">
	<path display="inline" fill="#343434" d="M12.606,42.408l3.416,12.541h-2.029l-3.229-12.541H12.606 M14.135,40.408H8.184
		l4.26,16.541h5.59V54.72L14.135,40.408L14.135,40.408z"/>
</g>
<path display="none" fill="#343434" d="M43.385,47.01v-3c5.449,0,9.879-4.431,9.879-9.87c0-5.45-4.43-9.88-9.879-9.88v-3
	c7.1,0,12.879,5.779,12.879,12.88C56.264,41.239,50.484,47.01,43.385,47.01z"/>
<path display="none" fill="#343434" d="M43.385,41.51v-3c2.42,0,4.379-1.96,4.379-4.37c0-2.42-1.959-4.38-4.379-4.38v-3
	c4.068,0,7.379,3.31,7.379,7.38C50.764,38.199,47.453,41.51,43.385,41.51z"/>
<path display="none" fill="#F27057" d="M41.591,49.203c0,1-0.811,1.811-1.811,1.811s-1.81-0.811-1.81-1.811v-29.42
	c0-1,0.81-1.81,1.81-1.81s1.811,0.81,1.811,1.81V49.203z"/>
<path display="none" fill="#F26F59" d="M7.94,27.594c-1.1,0-2,0.89-2,2v10.26c0,1.1,0.9,2,2,2h8.45v-14.26H7.94z"/>
<path display="none" fill="#EDEDF3" d="M21.491,27.594h-5.101v14.26h4.739c3.951,0.6,13.461,1.89,16.841,6.959V20.363
	C34.69,25.273,25.671,26.934,21.491,27.594z"/>
<polygon display="none" fill="#6D7587" points="8.521,41.854 12.45,56.953 18.04,56.953 18.04,54.724 14.471,41.854 "/>
<path display="none" fill="#6D7587" d="M43.391,47.014v-3c5.45,0,9.88-4.431,9.88-9.87c0-5.45-4.43-9.88-9.88-9.88v-3
	c7.101,0,12.881,5.779,12.881,12.88C56.271,41.243,50.491,47.014,43.391,47.014z"/>
<path display="none" fill="#6D7587" d="M43.391,41.514v-3c2.42,0,4.38-1.961,4.38-4.37c0-2.42-1.96-4.38-4.38-4.38v-3
	c4.069,0,7.38,3.31,7.38,7.38C50.771,38.203,47.46,41.514,43.391,41.514z"/>
<g display="none">
	<path display="inline" fill="#343434" d="M39.775,17.97c-1,0-1.81,0.81-1.81,1.81v29.42c0,1,0.81,1.811,1.81,1.811
		s1.811-0.811,1.811-1.811v-29.42C41.586,18.779,40.775,17.97,39.775,17.97L39.775,17.97z"/>
</g>
<g display="none">
	<path display="inline" fill="#343434" d="M14.386,29.59v10.26h-6.45V29.59H14.386 M16.386,27.59h-8.45c-1.1,0-2,0.89-2,2v10.26
		c0,1.1,0.9,2,2,2h8.45V27.59L16.386,27.59z"/>
</g>
<g display="none">
	<path display="inline" fill="#343434" d="M35.966,24.955v19.288c-4.48-2.854-10.728-3.795-14.169-4.314l-0.372-0.056l-0.149-0.022
		h-0.15h-2.739V29.59h3.101h0.157l0.155-0.024C24.43,29.15,31.18,28.084,35.966,24.955 M37.966,20.359
		c-3.28,4.91-12.3,6.57-16.479,7.23h-5.101v14.26h4.739c3.951,0.6,13.461,1.89,16.841,6.96V20.359L37.966,20.359z"/>
</g>
<g display="none">
	<path display="inline" fill="#343434" d="M12.607,42.408l3.417,12.541h-2.029l-3.229-12.541H12.607 M14.136,40.408h-5.95
		l4.26,16.541h5.59V54.72L14.136,40.408L14.136,40.408z"/>
</g>
<path display="none" fill="#343434" d="M43.386,47.01v-3c5.45,0,9.88-4.431,9.88-9.87c0-5.45-4.43-9.88-9.88-9.88v-3
	c7.101,0,12.88,5.779,12.88,12.88C56.266,41.239,50.486,47.01,43.386,47.01z"/>
<path display="none" fill="#343434" d="M43.386,41.51v-3c2.42,0,4.38-1.96,4.38-4.37c0-2.42-1.96-4.38-4.38-4.38v-3
	c4.069,0,7.38,3.31,7.38,7.38C50.766,38.199,47.455,41.51,43.386,41.51z"/>
<circle display="none" fill="#009999" cx="50.538" cy="19.643" r="10.341"/>
<path display="none" fill="#FFFFFF" d="M50.537,30.983c-6.253,0-11.341-5.088-11.341-11.341s5.088-11.34,11.341-11.34
	s11.342,5.087,11.342,11.34S56.79,30.983,50.537,30.983z M50.537,10.303c-5.15,0-9.341,4.189-9.341,9.34s4.19,9.341,9.341,9.341
	s9.341-4.19,9.341-9.341S55.688,10.303,50.537,10.303z"/>
<polygon display="none" fill="#FFFFFF" points="48.937,23.603 45.035,19.702 46.449,18.288 48.937,20.774 53.905,15.806 
	55.319,17.22 "/>
<g display="none">
	<path display="inline" fill="#343434" d="M39.791,17.97c-1,0-1.81,0.81-1.81,1.81v29.42c0,1,0.81,1.811,1.81,1.811
		s1.811-0.811,1.811-1.811v-29.42C41.602,18.779,40.791,17.97,39.791,17.97L39.791,17.97z"/>
</g>
<g display="none">
	<path display="inline" fill="#343434" d="M14.401,29.59v10.26h-6.45V29.59H14.401 M16.401,27.59h-8.45c-1.1,0-2,0.89-2,2v10.26
		c0,1.1,0.9,2,2,2h8.45V27.59L16.401,27.59z"/>
</g>
<g display="none">
	<path display="inline" fill="#343434" d="M35.981,24.955v19.288c-4.48-2.854-10.728-3.795-14.169-4.314l-0.372-0.056l-0.149-0.022
		h-0.15h-2.739V29.59h3.101h0.157l0.155-0.024C24.445,29.15,31.195,28.084,35.981,24.955 M37.981,20.359
		c-3.28,4.91-12.3,6.57-16.479,7.23h-5.101v14.26h4.739c3.951,0.6,13.461,1.89,16.841,6.96V20.359L37.981,20.359z"/>
</g>
<g display="none">
	<path display="inline" fill="#343434" d="M12.623,42.408l3.417,12.541h-2.029l-3.229-12.541H12.623 M14.151,40.408h-5.95
		l4.26,16.541h5.59V54.72L14.151,40.408L14.151,40.408z"/>
</g>
<path display="none" fill="#343434" d="M43.401,47.01v-3c5.45,0,9.88-4.431,9.88-9.87c0-5.45-4.43-9.88-9.88-9.88v-3
	c7.101,0,12.88,5.779,12.88,12.88C56.281,41.239,50.502,47.01,43.401,47.01z"/>
<path display="none" fill="#343434" d="M43.401,41.51v-3c2.42,0,4.38-1.96,4.38-4.37c0-2.42-1.96-4.38-4.38-4.38v-3
	c4.069,0,7.38,3.31,7.38,7.38C50.781,38.199,47.471,41.51,43.401,41.51z"/>
<circle display="none" fill="#FF0000" cx="50.538" cy="19.644" r="10.341"/>
<path display="none" fill="#FFFFFF" d="M50.537,30.983c-6.253,0-11.341-5.087-11.341-11.34S44.284,8.303,50.537,8.303
	s11.342,5.088,11.342,11.341S56.79,30.983,50.537,30.983z M50.537,10.303c-5.15,0-9.341,4.19-9.341,9.341s4.19,9.34,9.341,9.34
	s9.341-4.189,9.341-9.34S55.688,10.303,50.537,10.303z"/>
<rect x="49.542" y="15.203" display="none" fill="#FFFFFF" width="1.99" height="7.413"/>
<rect x="49.542" y="23.603" display="none" fill="#FFFFFF" width="1.99" height="2.033"/>
<rect x="32.027" y="32.088" display="none" fill="#343434" width="24.318" height="2.274"/>
<rect x="36.192" y="37.875" display="none" fill="#343434" width="20.153" height="2.274"/>
<rect x="32.027" y="43.662" display="none" fill="#343434" width="24.318" height="2.273"/>
<path display="none" fill="#343434" d="M58.566,54.44H18.67c-1.66,0-3.011-1.35-3.011-3.01V45.83h2.274v5.601
	c0,0.406,0.329,0.736,0.736,0.736h39.896c0.406,0,0.736-0.331,0.736-0.736V17.562c0-0.406-0.33-0.736-0.736-0.736H18.67
	c-0.407,0-0.736,0.331-0.736,0.736v15.335h-2.274V17.562c0-1.66,1.351-3.01,3.011-3.01h39.896c1.66,0,3.011,1.35,3.011,3.01v33.869
	C61.577,53.091,60.227,54.44,58.566,54.44z"/>
<rect x="16.797" y="24.438" display="none" fill="#343434" width="43.643" height="2.274"/>
<circle display="none" fill="#343434" cx="22.162" cy="20.451" r="1.869"/>
<circle display="none" fill="#343434" cx="29.177" cy="20.451" r="1.869"/>
<circle display="none" fill="#343434" cx="36.194" cy="20.451" r="1.869"/>
<path display="none" fill="#343434" d="M22.915,48.922v-5.771H8.134v-7.785h14.781v-5.772l9.665,9.665L22.915,48.922z
	 M10.408,40.878h14.781v2.556l4.176-4.174l-4.176-4.175v2.557H10.408V40.878z"/>
<rect x="32.027" y="32.088" fill="#343434" width="24.318" height="2.274"/>
<rect x="36.192" y="37.875" fill="#343434" width="20.153" height="2.274"/>
<rect x="32.027" y="43.663" fill="#343434" width="24.318" height="2.273"/>
<path fill="#343434" d="M58.566,54.44H18.67c-1.66,0-3.011-1.35-3.011-3.01V45.83h2.274v5.601c0,0.406,0.329,0.736,0.736,0.736
	h39.896c0.406,0,0.736-0.33,0.736-0.736V17.563c0-0.406-0.33-0.736-0.736-0.736H18.67c-0.407,0-0.736,0.331-0.736,0.736v15.335
	h-2.274V17.563c0-1.66,1.351-3.01,3.011-3.01h39.896c1.66,0,3.01,1.35,3.01,3.01v33.868C61.576,53.091,60.227,54.44,58.566,54.44z"
	/>
<rect x="16.797" y="24.438" fill="#343434" width="43.643" height="2.274"/>
<circle fill="#343434" cx="22.162" cy="20.452" r="1.869"/>
<circle fill="#343434" cx="29.177" cy="20.452" r="1.869"/>
<circle fill="#343434" cx="36.194" cy="20.452" r="1.869"/>
<path fill="#343434" d="M22.915,48.922v-5.771H8.134v-7.785h14.781v-5.772l9.665,9.665L22.915,48.922z M10.408,40.878h14.781v2.556
	l4.176-4.174l-4.176-4.175v2.557H10.408V40.878z"/>
<circle fill="#009999" cx="61.898" cy="15.787" r="10.341"/>
<path fill="#FFFFFF" d="M61.898,27.127c-6.253,0-11.341-5.087-11.341-11.34s5.088-11.34,11.341-11.34s11.341,5.087,11.341,11.34
	S68.151,27.127,61.898,27.127z M61.898,6.447c-5.15,0-9.341,4.19-9.341,9.34s4.19,9.34,9.341,9.34s9.341-4.19,9.341-9.34
	S67.049,6.447,61.898,6.447z"/>
<polygon fill="#FFFFFF" points="60.298,19.747 56.396,15.846 57.811,14.432 60.298,16.918 65.267,11.95 66.681,13.364 "/>
<rect x="32.027" y="32.088" display="none" fill="#343434" width="24.318" height="2.273"/>
<rect x="36.192" y="37.875" display="none" fill="#343434" width="20.153" height="2.273"/>
<rect x="32.027" y="43.662" display="none" fill="#343434" width="24.318" height="2.273"/>
<path display="none" fill="#343434" d="M58.566,54.44H18.67c-1.66,0-3.011-1.35-3.011-3.01v-5.602h2.274v5.602
	c0,0.405,0.329,0.736,0.736,0.736h39.896c0.406,0,0.736-0.331,0.736-0.736V17.562c0-0.405-0.33-0.736-0.736-0.736H18.67
	c-0.407,0-0.736,0.331-0.736,0.736v15.335h-2.274V17.562c0-1.66,1.351-3.01,3.011-3.01h39.896c1.66,0,3.01,1.35,3.01,3.01v33.869
	C61.576,53.091,60.227,54.44,58.566,54.44z"/>
<rect x="16.797" y="24.438" display="none" fill="#343434" width="43.643" height="2.274"/>
<circle display="none" fill="#343434" cx="22.162" cy="20.451" r="1.869"/>
<circle display="none" fill="#343434" cx="29.177" cy="20.451" r="1.869"/>
<circle display="none" fill="#343434" cx="36.194" cy="20.451" r="1.869"/>
<path display="none" fill="#343434" d="M22.915,48.922v-5.771H8.134v-7.785h14.781v-5.771l9.665,9.664L22.915,48.922z
	 M10.408,40.878h14.781v2.556l4.176-4.175l-4.176-4.175v2.557H10.408V40.878z"/>
<circle display="none" fill="#FF0000" cx="61.898" cy="15.298" r="10.341"/>
<path display="none" fill="#FFFFFF" d="M61.898,26.638c-6.253,0-11.341-5.087-11.341-11.34S55.646,3.957,61.898,3.957
	s11.341,5.088,11.341,11.341S68.151,26.638,61.898,26.638z M61.898,5.957c-5.15,0-9.341,4.19-9.341,9.341s4.19,9.34,9.341,9.34
	s9.341-4.189,9.341-9.34S67.049,5.957,61.898,5.957z"/>
<rect x="60.903" y="10.857" display="none" fill="#FFFFFF" width="1.99" height="7.413"/>
<rect x="60.903" y="19.257" display="none" fill="#FFFFFF" width="1.99" height="2.033"/>
<path display="none" fill="#7A7C7C" d="M58.598,14.552H18.701c-1.66,0-3.011,1.351-3.011,3.011v5.876v2.274h2.274h41.369h2.273
	v-2.274v-5.876C61.607,15.902,60.258,14.552,58.598,14.552z"/>
<path display="none" fill="#EDEDF3" d="M60.378,25.713h-1.044H15.69V45.83v3.093v2.508c0,1.661,1.351,3.011,3.011,3.011h39.896
	c1.66,0,3.01-1.35,3.01-3.011V25.713H60.378z"/>
<rect x="32.059" y="32.089" display="none" fill="#7A7C7C" width="24.318" height="2.273"/>
<rect x="36.224" y="37.876" display="none" fill="#7A7C7C" width="20.153" height="2.273"/>
<rect x="32.059" y="43.663" display="none" fill="#7A7C7C" width="24.318" height="2.273"/>
<circle display="none" fill="#F8D84A" cx="22.193" cy="20.452" r="1.869"/>
<circle display="none" fill="#ED5145" cx="29.208" cy="20.452" r="1.869"/>
<circle display="none" fill="#4BBE86" cx="36.225" cy="20.452" r="1.869"/>
<path display="none" fill="#37B0E5" d="M22.946,48.923v-5.771H8.165v-7.784h14.781v-5.771l9.665,9.664L22.946,48.923z"/>
<defs>
	<filter id="Adobe_OpacityMaskFilter" filterUnits="userSpaceOnUse" x="14.224" y="63.509" width="48.852" height="7.494">
		<feFlood  style="flood-color:white;flood-opacity:1" result="back"/>
		<feBlend  in="SourceGraphic" in2="back" mode="normal"/>
	</filter>
</defs>
<mask maskUnits="userSpaceOnUse" x="14.224" y="63.509" width="48.852" height="7.494" id="SVGID_1_">
	<g filter="url(#Adobe_OpacityMaskFilter)">
		<defs>
			<filter id="Adobe_OpacityMaskFilter_1_" filterUnits="userSpaceOnUse" x="14.224" y="63.509" width="48.852" height="7.494">
				<feFlood  style="flood-color:white;flood-opacity:1" result="back"/>
				<feBlend  in="SourceGraphic" in2="back" mode="normal"/>
			</filter>
		</defs>
		<mask maskUnits="userSpaceOnUse" x="14.224" y="63.509" width="48.852" height="7.494" id="SVGID_1_">
			<g filter="url(#Adobe_OpacityMaskFilter_1_)">
			</g>
		</mask>
		
			<radialGradient id="SVGID_2_" cx="212.9395" cy="402.5991" r="30.4419" gradientTransform="matrix(0.8023 0 0 0.1231 -132.1924 17.6958)" gradientUnits="userSpaceOnUse">
			<stop  offset="0" style="stop-color:#4D4D4D"/>
			<stop  offset="0.7903" style="stop-color:#000000"/>
		</radialGradient>
		<ellipse mask="url(#SVGID_1_)" fill="url(#SVGID_2_)" cx="38.649" cy="67.256" rx="24.426" ry="3.747"/>
	</g>
</mask>
<radialGradient id="SVGID_3_" cx="212.9395" cy="402.5991" r="30.4419" gradientTransform="matrix(0.8023 0 0 0.1231 -132.1924 17.6958)" gradientUnits="userSpaceOnUse">
	<stop  offset="0.5394" style="stop-color:#000000"/>
	<stop  offset="1" style="stop-color:#FFFFFF;stop-opacity:0"/>
</radialGradient>
<ellipse display="none" opacity="0.4" fill="url(#SVGID_3_)" cx="38.649" cy="67.256" rx="24.426" ry="3.747"/>
<rect x="11.501" y="12.266" display="none" fill="#B9E0CD" width="33.835" height="20.336"/>
<path display="none" fill="#4CBC86" d="M45.336,12.266H11.501v20.336h33.835V12.266z M43.336,17.357
	c-1.434-0.479-2.547-1.633-2.969-3.092h2.969V17.357z M38.291,30.602H18.72c-0.516-2.63-2.59-4.705-5.219-5.222v-5.893
	c2.629-0.517,4.704-2.592,5.22-5.222h19.57c0.504,2.571,2.499,4.609,5.045,5.184v5.969C40.791,25.992,38.795,28.03,38.291,30.602z
	 M16.645,14.266c-0.439,1.518-1.627,2.705-3.144,3.146v-3.146H16.645z M13.501,27.455c1.517,0.441,2.704,1.629,3.144,3.146h-3.144
	V27.455z M40.367,30.602c0.422-1.459,1.535-2.612,2.969-3.092v3.092H40.367z"/>
<path display="none" fill="#4CBC86" d="M28.629,15.127c-2.622,0-4.676,3.148-4.676,7.169s2.054,7.169,4.676,7.169
	c2.623,0,4.677-3.148,4.677-7.169S31.252,15.127,28.629,15.127z M28.629,27.465c-1.266,0-2.676-2.123-2.676-5.169
	s1.41-5.169,2.676-5.169s2.677,2.123,2.677,5.169S29.895,27.465,28.629,27.465z"/>
<path display="none" fill="#4CBC86" d="M37.488,19.322c-1.586,0-2.876,1.379-2.876,3.073s1.29,3.072,2.876,3.072
	c1.585,0,2.875-1.378,2.875-3.072S39.073,19.322,37.488,19.322z M37.488,23.468c-0.483,0-0.876-0.481-0.876-1.072
	c0-0.592,0.393-1.073,0.876-1.073c0.482,0,0.875,0.481,0.875,1.073C38.363,22.986,37.971,23.468,37.488,23.468z"/>
<path display="none" fill="#4CBC86" d="M19.913,19.322c-1.585,0-2.875,1.379-2.875,3.073s1.29,3.072,2.875,3.072
	s2.876-1.378,2.876-3.072S21.498,19.322,19.913,19.322z M19.913,23.468c-0.482,0-0.875-0.481-0.875-1.072
	c0-0.592,0.393-1.073,0.875-1.073c0.483,0,0.876,0.481,0.876,1.073C20.789,22.986,20.396,23.468,19.913,23.468z"/>
<path display="none" fill="#F8C89E" d="M48.479,37.626c-0.061-0.078-1.516-1.907-3.842-1.907c-0.996,0-1.986,0.334-2.944,0.993
	c-2.837,1.955-7.569,6.626-8.806,7.864h-8.541c-0.209-0.077-0.482-0.271-0.482-0.763c0-0.138,0-0.345,0.576-0.345l0.116,0.004
	l5.938-0.004c1.195-0.099,3.456-0.98,3.456-3.605c0-2.608-2.34-3.545-3.576-3.675l-6.805-0.005c-1.049,0-2.019-0.193-3.045-0.398
	c-1.029-0.205-2.093-0.418-3.232-0.418c-2.391,0-5.961,1.141-8.16,4.354c-2.359,3.448-5.83,5.774-5.864,5.798L2.27,46.183
	l9.988,10.397l3.23-3.725l18.283,0.07L49.035,38.34L48.479,37.626z"/>
<defs>
	<filter id="Adobe_OpacityMaskFilter_2_" filterUnits="userSpaceOnUse" x="1.227" y="63.551" width="48.852" height="7.494">
		<feFlood  style="flood-color:white;flood-opacity:1" result="back"/>
		<feBlend  in="SourceGraphic" in2="back" mode="normal"/>
	</filter>
</defs>
<mask maskUnits="userSpaceOnUse" x="1.227" y="63.551" width="48.852" height="7.494" id="SVGID_4_">
	<g filter="url(#Adobe_OpacityMaskFilter_2_)">
		<defs>
			<filter id="Adobe_OpacityMaskFilter_3_" filterUnits="userSpaceOnUse" x="1.227" y="63.551" width="48.852" height="7.494">
				<feFlood  style="flood-color:white;flood-opacity:1" result="back"/>
				<feBlend  in="SourceGraphic" in2="back" mode="normal"/>
			</filter>
		</defs>
		<mask maskUnits="userSpaceOnUse" x="1.227" y="63.551" width="48.852" height="7.494" id="SVGID_4_">
			<g filter="url(#Adobe_OpacityMaskFilter_3_)">
			</g>
		</mask>
		
			<radialGradient id="SVGID_5_" cx="196.7402" cy="402.938" r="30.4414" gradientTransform="matrix(0.8023 0 0 0.1231 -132.1924 17.6958)" gradientUnits="userSpaceOnUse">
			<stop  offset="0" style="stop-color:#4D4D4D"/>
			<stop  offset="0.7903" style="stop-color:#000000"/>
		</radialGradient>
		<ellipse mask="url(#SVGID_4_)" fill="url(#SVGID_5_)" cx="25.652" cy="67.298" rx="24.426" ry="3.747"/>
	</g>
</mask>
<radialGradient id="SVGID_6_" cx="196.7402" cy="402.938" r="30.4414" gradientTransform="matrix(0.8023 0 0 0.1231 -132.1924 17.6958)" gradientUnits="userSpaceOnUse">
	<stop  offset="0.5394" style="stop-color:#000000"/>
	<stop  offset="1" style="stop-color:#FFFFFF;stop-opacity:0"/>
</radialGradient>
<ellipse display="none" opacity="0.4" fill="url(#SVGID_6_)" cx="25.652" cy="67.298" rx="24.426" ry="3.747"/>
<path display="none" fill="#343434" d="M45.336,12.266H11.501v20.336h33.835V12.266z M43.336,17.357
	c-1.434-0.479-2.546-1.633-2.969-3.092h2.969V17.357z M38.291,30.602H18.72c-0.516-2.63-2.59-4.705-5.219-5.222v-5.892
	c2.629-0.518,4.704-2.593,5.22-5.223h19.57c0.505,2.571,2.499,4.61,5.045,5.184v5.97C40.791,25.992,38.796,28.03,38.291,30.602z
	 M16.645,14.266c-0.439,1.519-1.626,2.705-3.144,3.146v-3.146H16.645z M13.501,27.456c1.518,0.44,2.704,1.628,3.144,3.146h-3.144
	V27.456z M40.367,30.602c0.423-1.459,1.535-2.612,2.969-3.092v3.092H40.367z"/>
<path display="none" fill="#343434" d="M28.63,15.127c-2.623,0-4.677,3.149-4.677,7.169c0,4.021,2.054,7.169,4.677,7.169
	c2.622,0,4.676-3.148,4.676-7.169C33.306,18.276,31.252,15.127,28.63,15.127z M28.63,27.465c-1.267,0-2.677-2.123-2.677-5.169
	s1.41-5.169,2.677-5.169c1.266,0,2.676,2.123,2.676,5.169S29.896,27.465,28.63,27.465z"/>
<path display="none" fill="#343434" d="M37.488,19.322c-1.586,0-2.876,1.379-2.876,3.073s1.29,3.072,2.876,3.072
	c1.585,0,2.875-1.378,2.875-3.072S39.073,19.322,37.488,19.322z M37.488,23.468c-0.483,0-0.876-0.481-0.876-1.072
	c0-0.592,0.393-1.073,0.876-1.073c0.482,0,0.875,0.481,0.875,1.073C38.363,22.986,37.971,23.468,37.488,23.468z"/>
<path display="none" fill="#343434" d="M19.913,19.322c-1.585,0-2.875,1.379-2.875,3.073s1.29,3.072,2.875,3.072
	c1.586,0,2.876-1.378,2.876-3.072S21.499,19.322,19.913,19.322z M19.913,23.468c-0.482,0-0.875-0.481-0.875-1.072
	c0-0.592,0.393-1.073,0.875-1.073c0.483,0,0.876,0.481,0.876,1.073C20.789,22.986,20.396,23.468,19.913,23.468z"/>
<path display="none" fill="#343434" d="M48.479,37.626c-0.062-0.078-1.517-1.907-3.842-1.907c-0.997,0-1.987,0.334-2.945,0.993
	c-2.837,1.955-7.568,6.627-8.806,7.864h-8.541c-0.209-0.077-0.482-0.271-0.482-0.763c0-0.137,0-0.344,0.577-0.344l0.115,0.003
	l5.938-0.003c1.195-0.1,3.456-0.981,3.456-3.606c0-2.608-2.339-3.544-3.576-3.675l-6.805-0.005c-1.048,0-2.019-0.193-3.045-0.398
	c-1.029-0.205-2.093-0.417-3.232-0.417c-2.39,0-5.961,1.14-8.16,4.354c-2.359,3.448-5.829,5.774-5.864,5.798L2.27,46.183
	l9.988,10.398l3.23-3.725l18.283,0.069L49.035,38.34L48.479,37.626z M32.973,50.923l-18.395-0.07l-2.396,2.764l-6.847-7.129
	c1.294-0.994,3.635-2.99,5.445-5.636c1.76-2.571,4.606-3.483,6.51-3.483c0.942,0,1.864,0.184,2.841,0.378
	c1.077,0.215,2.191,0.438,3.437,0.438h6.636c0.32,0.047,1.745,0.332,1.745,1.68c0,1.382-1.357,1.587-1.539,1.609l-5.771,0.004
	c0,0-0.074-0.007-0.198-0.007c-1.542,0-2.577,0.941-2.577,2.344c0,1.813,1.396,2.586,2.135,2.741l9.722,0.021l0.294-0.297
	c0.057-0.058,5.753-5.812,8.813-7.92c0.617-0.425,1.227-0.641,1.811-0.641c0.645,0,1.194,0.264,1.59,0.538L32.973,50.923z"/>
<circle display="none" fill="#009999" cx="44.726" cy="11.34" r="10.341"/>
<path display="none" fill="#FFFFFF" d="M44.726,22.681c-6.253,0-11.341-5.088-11.341-11.341S38.473,0,44.726,0
	s11.341,5.087,11.341,11.34S50.979,22.681,44.726,22.681z M44.726,2c-5.15,0-9.341,4.189-9.341,9.34s4.19,9.341,9.341,9.341
	s9.341-4.19,9.341-9.341S49.876,2,44.726,2z"/>
<polygon display="none" fill="#FFFFFF" points="43.125,15.3 39.224,11.399 40.638,9.985 43.125,12.472 48.094,7.503 49.508,8.917 
	"/>
<path display="none" fill="#343434" d="M45.336,12.266H11.501v20.336h33.835V12.266z M43.336,17.357
	c-1.434-0.479-2.546-1.633-2.969-3.092h2.969V17.357z M38.291,30.602H18.72c-0.516-2.63-2.59-4.705-5.219-5.222v-5.892
	c2.629-0.518,4.704-2.593,5.22-5.223h19.57c0.505,2.571,2.499,4.61,5.045,5.184v5.97C40.791,25.992,38.796,28.03,38.291,30.602z
	 M16.645,14.266c-0.439,1.519-1.626,2.705-3.144,3.146v-3.146H16.645z M13.501,27.456c1.518,0.44,2.704,1.628,3.144,3.146h-3.144
	V27.456z M40.367,30.602c0.423-1.459,1.535-2.612,2.969-3.092v3.092H40.367z"/>
<path display="none" fill="#343434" d="M28.63,15.127c-2.623,0-4.677,3.149-4.677,7.169c0,4.021,2.054,7.169,4.677,7.169
	c2.622,0,4.676-3.148,4.676-7.169C33.306,18.276,31.252,15.127,28.63,15.127z M28.63,27.465c-1.267,0-2.677-2.123-2.677-5.169
	s1.41-5.169,2.677-5.169c1.266,0,2.676,2.123,2.676,5.169S29.896,27.465,28.63,27.465z"/>
<path display="none" fill="#343434" d="M37.488,19.322c-1.586,0-2.876,1.379-2.876,3.073s1.29,3.072,2.876,3.072
	c1.585,0,2.875-1.378,2.875-3.072S39.073,19.322,37.488,19.322z M37.488,23.468c-0.483,0-0.876-0.481-0.876-1.072
	c0-0.592,0.393-1.073,0.876-1.073c0.482,0,0.875,0.481,0.875,1.073C38.363,22.986,37.971,23.468,37.488,23.468z"/>
<path display="none" fill="#343434" d="M19.913,19.322c-1.585,0-2.875,1.379-2.875,3.073s1.29,3.072,2.875,3.072
	c1.586,0,2.876-1.378,2.876-3.072S21.499,19.322,19.913,19.322z M19.913,23.468c-0.482,0-0.875-0.481-0.875-1.072
	c0-0.592,0.393-1.073,0.875-1.073c0.483,0,0.876,0.481,0.876,1.073C20.789,22.986,20.396,23.468,19.913,23.468z"/>
<path display="none" fill="#343434" d="M48.479,37.626c-0.062-0.078-1.517-1.907-3.842-1.907c-0.997,0-1.987,0.334-2.945,0.993
	c-2.837,1.955-7.568,6.627-8.806,7.864h-8.541c-0.209-0.077-0.482-0.271-0.482-0.763c0-0.137,0-0.344,0.577-0.344l0.115,0.003
	l5.938-0.003c1.195-0.1,3.456-0.981,3.456-3.606c0-2.608-2.339-3.544-3.576-3.675l-6.805-0.005c-1.048,0-2.019-0.193-3.045-0.398
	c-1.029-0.205-2.093-0.417-3.232-0.417c-2.39,0-5.961,1.14-8.16,4.354c-2.359,3.448-5.829,5.774-5.864,5.798L2.27,46.183
	l9.988,10.398l3.23-3.725l18.283,0.069L49.035,38.34L48.479,37.626z M32.973,50.923l-18.395-0.07l-2.396,2.764l-6.847-7.129
	c1.294-0.994,3.635-2.99,5.445-5.636c1.76-2.571,4.606-3.483,6.51-3.483c0.942,0,1.864,0.184,2.841,0.378
	c1.077,0.215,2.191,0.438,3.437,0.438h6.636c0.32,0.047,1.745,0.332,1.745,1.68c0,1.382-1.357,1.587-1.539,1.609l-5.771,0.004
	c0,0-0.074-0.007-0.198-0.007c-1.542,0-2.577,0.941-2.577,2.344c0,1.813,1.396,2.586,2.135,2.741l9.722,0.021l0.294-0.297
	c0.057-0.058,5.753-5.812,8.813-7.92c0.617-0.425,1.227-0.641,1.811-0.641c0.645,0,1.194,0.264,1.59,0.538L32.973,50.923z"/>
<circle display="none" fill="#FF0000" cx="44.726" cy="11.341" r="10.341"/>
<path display="none" fill="#FFFFFF" d="M44.726,22.681c-6.253,0-11.341-5.087-11.341-11.34S38.473,0,44.726,0
	s11.341,5.088,11.341,11.341S50.979,22.681,44.726,22.681z M44.726,2c-5.15,0-9.341,4.19-9.341,9.341s4.19,9.34,9.341,9.34
	s9.341-4.189,9.341-9.34S49.876,2,44.726,2z"/>
<rect x="43.73" y="6.9" display="none" fill="#FFFFFF" width="1.99" height="7.413"/>
<rect x="43.73" y="15.3" display="none" fill="#FFFFFF" width="1.99" height="2.033"/>
<path display="none" fill="#343434" d="M45.336,12.266H11.501v20.336h33.835V12.266z M43.336,17.357
	c-1.434-0.479-2.546-1.633-2.969-3.092h2.969V17.357z M38.291,30.602H18.72c-0.516-2.63-2.59-4.705-5.219-5.222v-5.892
	c2.629-0.518,4.704-2.593,5.22-5.223h19.57c0.505,2.571,2.499,4.61,5.045,5.184v5.97C40.791,25.992,38.796,28.03,38.291,30.602z
	 M16.645,14.266c-0.439,1.519-1.626,2.705-3.144,3.146v-3.146H16.645z M13.501,27.456c1.518,0.44,2.704,1.628,3.144,3.146h-3.144
	V27.456z M40.367,30.602c0.423-1.459,1.535-2.612,2.969-3.092v3.092H40.367z"/>
<path display="none" fill="#343434" d="M28.63,15.127c-2.623,0-4.677,3.149-4.677,7.169c0,4.021,2.054,7.169,4.677,7.169
	c2.622,0,4.676-3.148,4.676-7.169C33.306,18.276,31.252,15.127,28.63,15.127z M28.63,27.465c-1.267,0-2.677-2.123-2.677-5.169
	s1.41-5.169,2.677-5.169c1.266,0,2.676,2.123,2.676,5.169S29.896,27.465,28.63,27.465z"/>
<path display="none" fill="#343434" d="M37.488,19.322c-1.586,0-2.876,1.379-2.876,3.073s1.29,3.072,2.876,3.072
	c1.585,0,2.875-1.378,2.875-3.072S39.073,19.322,37.488,19.322z M37.488,23.468c-0.483,0-0.876-0.481-0.876-1.072
	c0-0.592,0.393-1.073,0.876-1.073c0.482,0,0.875,0.481,0.875,1.073C38.363,22.986,37.971,23.468,37.488,23.468z"/>
<path display="none" fill="#343434" d="M19.913,19.322c-1.585,0-2.875,1.379-2.875,3.073s1.29,3.072,2.875,3.072
	c1.586,0,2.876-1.378,2.876-3.072S21.499,19.322,19.913,19.322z M19.913,23.468c-0.482,0-0.875-0.481-0.875-1.072
	c0-0.592,0.393-1.073,0.875-1.073c0.483,0,0.876,0.481,0.876,1.073C20.789,22.986,20.396,23.468,19.913,23.468z"/>
<path display="none" fill="#343434" d="M48.479,37.626c-0.062-0.078-1.517-1.907-3.842-1.907c-0.997,0-1.987,0.334-2.945,0.993
	c-2.837,1.955-7.568,6.627-8.806,7.864h-8.541c-0.209-0.077-0.482-0.271-0.482-0.763c0-0.137,0-0.344,0.577-0.344l0.115,0.003
	l5.938-0.003c1.195-0.1,3.456-0.981,3.456-3.606c0-2.608-2.339-3.544-3.576-3.675l-6.805-0.005c-1.048,0-2.019-0.193-3.045-0.398
	c-1.029-0.205-2.093-0.417-3.232-0.417c-2.39,0-5.961,1.14-8.16,4.354c-2.359,3.448-5.829,5.774-5.864,5.798L2.27,46.183
	l9.988,10.398l3.23-3.725l18.283,0.069L49.035,38.34L48.479,37.626z M32.973,50.923l-18.395-0.07l-2.396,2.764l-6.847-7.129
	c1.294-0.994,3.635-2.99,5.445-5.636c1.76-2.571,4.606-3.483,6.51-3.483c0.942,0,1.864,0.184,2.841,0.378
	c1.077,0.215,2.191,0.438,3.437,0.438h6.636c0.32,0.047,1.745,0.332,1.745,1.68c0,1.382-1.357,1.587-1.539,1.609l-5.771,0.004
	c0,0-0.074-0.007-0.198-0.007c-1.542,0-2.577,0.941-2.577,2.344c0,1.813,1.396,2.586,2.135,2.741l9.722,0.021l0.294-0.297
	c0.057-0.058,5.753-5.812,8.813-7.92c0.617-0.425,1.227-0.641,1.811-0.641c0.645,0,1.194,0.264,1.59,0.538L32.973,50.923z"/>
<g display="none">
	<g display="inline">
		<polygon display="none" fill="#999999" points="22.705,17.571 22.705,18.138 22.705,20.138 22.705,54.882 30.188,55.799 
			32.188,54.882 32.188,10.656 11.482,10.656 11.482,17.644 13.482,17.644 		"/>
		<path display="none" fill="#C8C8C8" d="M23.458,56.3H5.248V16.89h18.21V56.3z"/>
		<path display="none" fill="#C8C8C8" d="M45.903,56.3H26.446V24.373h19.457V56.3z"/>
		<rect x="2.507" y="54.3" display="none" fill="#C8C8C8" width="47.385" height="2"/>
	</g>
</g>
<path display="none" fill="#848484" d="M23.458,56.3H5.248V16.89h18.21V56.3z M7.248,54.3h14.21V18.89H7.248V54.3z"/>
<path display="none" fill="#848484" d="M45.903,56.3H26.446V24.373h19.457V56.3z M28.446,54.3h15.457V26.373H28.446V54.3z"/>
<polygon display="none" fill="#848484" points="32.188,24.125 30.188,24.125 30.188,12.656 13.482,12.656 13.482,16.644 
	11.482,16.644 11.482,10.656 32.188,10.656 "/>
<rect x="23.705" y="18.138" display="none" fill="#848484" width="7.482" height="2"/>
<rect x="23.705" y="30.607" display="none" fill="#848484" width="3.741" height="2"/>
<rect x="23.705" y="35.595" display="none" fill="#848484" width="3.741" height="2"/>
<rect x="23.705" y="24.373" display="none" fill="#848484" width="7.482" height="2"/>
<rect x="11.235" y="24.125" display="none" fill="#848484" width="2.494" height="2.494"/>
<rect x="11.235" y="29.114" display="none" fill="#848484" width="2.494" height="2.493"/>
<rect x="11.235" y="34.102" display="none" fill="#848484" width="2.494" height="2.493"/>
<rect x="11.235" y="39.089" display="none" fill="#848484" width="2.494" height="2.494"/>
<rect x="32.435" y="30.361" display="none" fill="#848484" width="2.493" height="2.494"/>
<rect x="32.435" y="35.348" display="none" fill="#848484" width="2.493" height="2.494"/>
<rect x="32.435" y="42.831" display="none" fill="#848484" width="2.493" height="2.493"/>
<rect x="38.669" y="30.361" display="none" fill="#848484" width="2.494" height="2.494"/>
<rect x="38.669" y="35.348" display="none" fill="#848484" width="2.494" height="2.494"/>
<rect x="38.669" y="42.831" display="none" fill="#848484" width="2.494" height="2.493"/>
<path display="none" fill="#848484" d="M18.471,56.3h-8.235V45.571h8.235V56.3z M12.235,54.3h4.235v-6.729h-4.235V54.3z"/>
<rect x="2.507" y="54.3" display="none" fill="#848484" width="47.385" height="2"/>
<defs>
	<filter id="Adobe_OpacityMaskFilter_4_" filterUnits="userSpaceOnUse" x="1.773" y="63.335" width="48.852" height="7.494">
		<feFlood  style="flood-color:white;flood-opacity:1" result="back"/>
		<feBlend  in="SourceGraphic" in2="back" mode="normal"/>
	</filter>
</defs>
<mask maskUnits="userSpaceOnUse" x="1.773" y="63.335" width="48.852" height="7.494" id="SVGID_7_">
	<g filter="url(#Adobe_OpacityMaskFilter_4_)">
		<defs>
			<filter id="Adobe_OpacityMaskFilter_5_" filterUnits="userSpaceOnUse" x="1.773" y="63.335" width="48.852" height="7.494">
				<feFlood  style="flood-color:white;flood-opacity:1" result="back"/>
				<feBlend  in="SourceGraphic" in2="back" mode="normal"/>
			</filter>
		</defs>
		<mask maskUnits="userSpaceOnUse" x="1.773" y="63.335" width="48.852" height="7.494" id="SVGID_7_">
			<g filter="url(#Adobe_OpacityMaskFilter_5_)">
			</g>
		</mask>
		
			<radialGradient id="SVGID_8_" cx="197.4219" cy="401.1909" r="30.4419" gradientTransform="matrix(0.8023 0 0 0.1231 -132.1924 17.6958)" gradientUnits="userSpaceOnUse">
			<stop  offset="0" style="stop-color:#4D4D4D"/>
			<stop  offset="0.7903" style="stop-color:#000000"/>
		</radialGradient>
		<ellipse mask="url(#SVGID_7_)" fill="url(#SVGID_8_)" cx="26.199" cy="67.083" rx="24.426" ry="3.747"/>
	</g>
</mask>
<radialGradient id="SVGID_9_" cx="197.4219" cy="401.1909" r="30.4419" gradientTransform="matrix(0.8023 0 0 0.1231 -132.1924 17.6958)" gradientUnits="userSpaceOnUse">
	<stop  offset="0.5394" style="stop-color:#000000"/>
	<stop  offset="1" style="stop-color:#FFFFFF;stop-opacity:0"/>
</radialGradient>
<ellipse display="none" opacity="0.4" fill="url(#SVGID_9_)" cx="26.199" cy="67.083" rx="24.426" ry="3.747"/>
<path display="none" fill="#343434" d="M23.463,56.297H5.252V16.888h18.211V56.297z M7.252,54.297h14.211V18.888H7.252V54.297z"/>
<path display="none" fill="#343434" d="M45.908,56.297H26.451V24.369h19.457V56.297z M28.451,54.297h15.457V26.369H28.451V54.297z"
	/>
<polygon display="none" fill="#343434" points="32.191,24.122 30.191,24.122 30.191,12.652 13.486,12.652 13.486,16.641 
	11.486,16.641 11.486,10.652 32.191,10.652 "/>
<rect x="23.709" y="18.135" display="none" fill="#343434" width="7.482" height="2"/>
<rect x="23.709" y="30.604" display="none" fill="#343434" width="3.742" height="2"/>
<rect x="23.709" y="35.592" display="none" fill="#343434" width="3.742" height="2"/>
<rect x="23.709" y="24.369" display="none" fill="#343434" width="7.482" height="2"/>
<rect x="11.24" y="24.122" display="none" fill="#343434" width="2.494" height="2.494"/>
<rect x="11.24" y="29.11" display="none" fill="#343434" width="2.494" height="2.494"/>
<rect x="11.24" y="34.099" display="none" fill="#343434" width="2.494" height="2.493"/>
<rect x="11.24" y="39.086" display="none" fill="#343434" width="2.494" height="2.494"/>
<rect x="32.439" y="30.357" display="none" fill="#343434" width="2.492" height="2.494"/>
<rect x="32.439" y="35.345" display="none" fill="#343434" width="2.492" height="2.494"/>
<rect x="32.439" y="42.827" display="none" fill="#343434" width="2.492" height="2.494"/>
<rect x="38.674" y="30.357" display="none" fill="#343434" width="2.494" height="2.494"/>
<rect x="38.674" y="35.345" display="none" fill="#343434" width="2.494" height="2.494"/>
<rect x="38.674" y="42.827" display="none" fill="#343434" width="2.494" height="2.494"/>
<path display="none" fill="#343434" d="M18.475,56.297H10.24V45.567h8.234V56.297z M12.24,54.297h4.234v-6.729H12.24V54.297z"/>
<rect x="2.512" y="54.297" display="none" fill="#343434" width="47.385" height="2"/>
<circle display="none" fill="#009999" cx="39.573" cy="17.61" r="10.341"/>
<path display="none" fill="#FFFFFF" d="M39.572,28.951c-6.252,0-11.34-5.088-11.34-11.341s5.088-11.34,11.34-11.34
	c6.254,0,11.342,5.087,11.342,11.34S45.826,28.951,39.572,28.951z M39.572,8.271c-5.15,0-9.34,4.189-9.34,9.34
	s4.189,9.341,9.34,9.341s9.342-4.19,9.342-9.341S44.723,8.271,39.572,8.271z"/>
<polygon display="none" fill="#FFFFFF" points="37.973,21.57 34.07,17.67 35.484,16.256 37.973,18.742 42.941,13.773 44.355,15.188 
	"/>
<path display="none" fill="#343434" d="M23.463,56.297H5.252V16.888h18.211V56.297z M7.252,54.297h14.211V18.888H7.252V54.297z"/>
<path display="none" fill="#343434" d="M45.908,56.297H26.451V24.37h19.457V56.297z M28.451,54.297h15.457V26.37H28.451V54.297z"/>
<polygon display="none" fill="#343434" points="32.191,24.123 30.191,24.123 30.191,12.653 13.486,12.653 13.486,16.642 
	11.486,16.642 11.486,10.653 32.191,10.653 "/>
<rect x="23.709" y="18.135" display="none" fill="#343434" width="7.482" height="2"/>
<rect x="23.709" y="30.604" display="none" fill="#343434" width="3.742" height="2"/>
<rect x="23.709" y="35.593" display="none" fill="#343434" width="3.742" height="2"/>
<rect x="23.709" y="24.37" display="none" fill="#343434" width="7.482" height="2"/>
<rect x="11.24" y="24.123" display="none" fill="#343434" width="2.494" height="2.494"/>
<rect x="11.24" y="29.11" display="none" fill="#343434" width="2.494" height="2.494"/>
<rect x="11.24" y="34.099" display="none" fill="#343434" width="2.494" height="2.494"/>
<rect x="11.24" y="39.087" display="none" fill="#343434" width="2.494" height="2.493"/>
<rect x="32.439" y="30.357" display="none" fill="#343434" width="2.492" height="2.494"/>
<rect x="32.439" y="35.346" display="none" fill="#343434" width="2.492" height="2.494"/>
<rect x="32.439" y="42.827" display="none" fill="#343434" width="2.492" height="2.494"/>
<rect x="38.674" y="30.357" display="none" fill="#343434" width="2.494" height="2.494"/>
<rect x="38.674" y="35.346" display="none" fill="#343434" width="2.494" height="2.494"/>
<rect x="38.674" y="42.827" display="none" fill="#343434" width="2.494" height="2.494"/>
<path display="none" fill="#343434" d="M18.475,56.297H10.24V45.568h8.234V56.297z M12.24,54.297h4.234v-6.729H12.24V54.297z"/>
<rect x="2.512" y="54.297" display="none" fill="#343434" width="47.385" height="2"/>
<circle display="none" fill="#FF0000" cx="39.573" cy="17.61" r="10.341"/>
<path display="none" fill="#FFFFFF" d="M39.572,28.951c-6.252,0-11.34-5.088-11.34-11.341s5.088-11.34,11.34-11.34
	c6.254,0,11.342,5.087,11.342,11.34S45.826,28.951,39.572,28.951z M39.572,8.271c-5.15,0-9.34,4.189-9.34,9.34
	s4.189,9.341,9.34,9.341s9.342-4.19,9.342-9.341S44.723,8.271,39.572,8.271z"/>
<rect x="38.578" y="13.17" display="none" fill="#FFFFFF" width="1.99" height="7.413"/>
<rect x="38.578" y="21.57" display="none" fill="#FFFFFF" width="1.99" height="2.033"/>
<path display="none" fill="#343434" d="M23.463,56.297H5.252V16.888h18.211V56.297z M7.252,54.297h14.211V18.888H7.252V54.297z"/>
<path display="none" fill="#343434" d="M45.908,56.297H26.451V24.37h19.457V56.297z M28.451,54.297h15.457V26.37H28.451V54.297z"/>
<polygon display="none" fill="#343434" points="32.191,24.123 30.191,24.123 30.191,12.653 13.486,12.653 13.486,16.642 
	11.486,16.642 11.486,10.653 32.191,10.653 "/>
<rect x="23.709" y="18.135" display="none" fill="#343434" width="7.482" height="2"/>
<rect x="23.709" y="30.604" display="none" fill="#343434" width="3.742" height="2"/>
<rect x="23.709" y="35.593" display="none" fill="#343434" width="3.742" height="2"/>
<rect x="23.709" y="24.37" display="none" fill="#343434" width="7.482" height="2"/>
<rect x="11.24" y="24.123" display="none" fill="#343434" width="2.494" height="2.494"/>
<rect x="11.24" y="29.11" display="none" fill="#343434" width="2.494" height="2.494"/>
<rect x="11.24" y="34.099" display="none" fill="#343434" width="2.494" height="2.494"/>
<rect x="11.24" y="39.087" display="none" fill="#343434" width="2.494" height="2.493"/>
<rect x="32.439" y="30.357" display="none" fill="#343434" width="2.492" height="2.494"/>
<rect x="32.439" y="35.346" display="none" fill="#343434" width="2.492" height="2.494"/>
<rect x="32.439" y="42.827" display="none" fill="#343434" width="2.492" height="2.494"/>
<rect x="38.674" y="30.357" display="none" fill="#343434" width="2.494" height="2.494"/>
<rect x="38.674" y="35.346" display="none" fill="#343434" width="2.494" height="2.494"/>
<rect x="38.674" y="42.827" display="none" fill="#343434" width="2.494" height="2.494"/>
<path display="none" fill="#343434" d="M18.475,56.297H10.24V45.568h8.234V56.297z M12.24,54.297h4.234v-6.729H12.24V54.297z"/>
<rect x="2.512" y="54.297" display="none" fill="#343434" width="47.385" height="2"/>
<path display="none" fill="#343434" d="M48.535,17.788H33.131v-1.543c0-3.267-2.657-5.924-5.924-5.924
	c-3.266,0-5.923,2.657-5.923,5.924v1.543H5.287c-1.654,0-3,1.346-3,3v27.437c0,1.654,1.346,3,3,3h43.248c1.654,0,3-1.346,3-3V20.788
	C51.535,19.134,50.189,17.788,48.535,17.788z M23.284,16.245c0-2.164,1.76-3.924,3.923-3.924c2.164,0,3.924,1.76,3.924,3.924v5.998
	h-7.847V16.245z M49.535,48.225c0,0.551-0.448,1-1,1H5.287c-0.552,0-1-0.449-1-1V20.788c0-0.551,0.448-1,1-1h15.997v4.455h11.847
	v-4.455h15.404c0.552,0,1,0.449,1,1V48.225z"/>
<path display="none" fill="#343434" d="M16.994,35.276c2.558,0,4.638-2.081,4.638-4.638c0-2.558-2.08-4.638-4.638-4.638
	s-4.638,2.08-4.638,4.638C12.356,33.195,14.437,35.276,16.994,35.276z M16.994,28.001c1.454,0,2.638,1.183,2.638,2.638
	c0,1.454-1.184,2.638-2.638,2.638s-2.638-1.184-2.638-2.638C14.356,29.184,15.54,28.001,16.994,28.001z"/>
<path display="none" fill="#343434" d="M22.009,35.226l-0.505-0.13l-0.396,0.34c-1.147,0.985-2.608,1.528-4.114,1.528
	c-1.501,0-2.959-0.539-4.104-1.519l-0.399-0.342l-0.509,0.136c-2.186,0.585-3.712,2.564-3.712,4.815v3.063h17.498v-3.063
	C25.768,37.78,24.222,35.794,22.009,35.226z M23.768,41.117H10.27v-1.063c0-1.187,0.712-2.249,1.779-2.725
	c1.429,1.058,3.164,1.634,4.945,1.634c1.79,0,3.531-0.582,4.964-1.648c1.085,0.468,1.81,1.536,1.81,2.739V41.117z"/>
<rect x="29.153" y="28.428" display="none" fill="#343434" width="15.498" height="2"/>
<rect x="29.153" y="34.606" display="none" fill="#343434" width="15.498" height="2"/>
<rect x="29.153" y="40.786" display="none" fill="#343434" width="15.498" height="2"/>
<circle display="none" fill="#343434" cx="27.043" cy="16.31" r="1.775"/>
<path display="none" fill="#343434" d="M48.535,17.788H33.131v-1.543c0-3.267-2.657-5.924-5.924-5.924
	c-3.266,0-5.923,2.657-5.923,5.924v1.543H5.287c-1.654,0-3,1.346-3,3v27.437c0,1.654,1.346,3,3,3h43.248c1.654,0,3-1.346,3-3V20.788
	C51.535,19.134,50.189,17.788,48.535,17.788z M23.284,16.245c0-2.164,1.76-3.924,3.923-3.924c2.164,0,3.924,1.76,3.924,3.924v5.998
	h-7.847V16.245z M49.535,48.225c0,0.551-0.447,1-1,1H5.287c-0.552,0-1-0.449-1-1V20.788c0-0.551,0.448-1,1-1h15.997v4.455h11.847
	v-4.455h15.404c0.553,0,1,0.449,1,1V48.225z"/>
<path display="none" fill="#343434" d="M16.994,35.276c2.558,0,4.638-2.081,4.638-4.638c0-2.558-2.08-4.638-4.638-4.638
	s-4.638,2.08-4.638,4.638C12.356,33.195,14.437,35.276,16.994,35.276z M16.994,28.001c1.454,0,2.638,1.183,2.638,2.638
	c0,1.454-1.184,2.638-2.638,2.638s-2.638-1.184-2.638-2.638C14.356,29.184,15.54,28.001,16.994,28.001z"/>
<path display="none" fill="#343434" d="M22.009,35.226l-0.505-0.13l-0.396,0.34c-1.147,0.985-2.608,1.528-4.114,1.528
	c-1.501,0-2.959-0.539-4.104-1.519l-0.399-0.342l-0.509,0.136c-2.186,0.585-3.712,2.564-3.712,4.815v3.063h17.498v-3.063
	C25.768,37.78,24.222,35.794,22.009,35.226z M23.768,41.117H10.27v-1.063c0-1.187,0.712-2.249,1.779-2.725
	c1.429,1.058,3.164,1.634,4.945,1.634c1.79,0,3.531-0.582,4.964-1.648c1.085,0.468,1.81,1.536,1.81,2.739V41.117z"/>
<rect x="29.153" y="28.428" display="none" fill="#343434" width="15.498" height="2"/>
<rect x="29.153" y="34.606" display="none" fill="#343434" width="15.498" height="2"/>
<rect x="29.153" y="40.786" display="none" fill="#343434" width="15.498" height="2"/>
<circle display="none" fill="#343434" cx="27.043" cy="16.31" r="1.775"/>
<circle display="none" fill="#009999" cx="51.463" cy="17.61" r="10.341"/>
<path display="none" fill="#FFFFFF" d="M51.463,28.951c-6.253,0-11.341-5.088-11.341-11.341s5.088-11.34,11.341-11.34
	c6.254,0,11.342,5.087,11.342,11.34S57.717,28.951,51.463,28.951z M51.463,8.271c-5.15,0-9.341,4.189-9.341,9.34
	s4.19,9.341,9.341,9.341s9.342-4.19,9.342-9.341S56.613,8.271,51.463,8.271z"/>
<polygon display="none" fill="#FFFFFF" points="49.863,21.57 45.961,17.67 47.375,16.256 49.863,18.742 54.832,13.773 
	56.246,15.188 "/>
<path display="none" fill="#343434" d="M48.535,17.788H33.131v-1.543c0-3.267-2.657-5.924-5.924-5.924
	c-3.266,0-5.923,2.657-5.923,5.924v1.543H5.287c-1.654,0-3,1.346-3,3v27.437c0,1.654,1.346,3,3,3h43.248c1.654,0,3-1.346,3-3V20.788
	C51.535,19.134,50.189,17.788,48.535,17.788z M23.284,16.245c0-2.164,1.76-3.924,3.923-3.924c2.164,0,3.924,1.76,3.924,3.924v5.998
	h-7.847V16.245z M49.535,48.225c0,0.551-0.448,1-1,1H5.287c-0.552,0-1-0.449-1-1V20.788c0-0.551,0.448-1,1-1h15.997v4.455h11.847
	v-4.455h15.404c0.552,0,1,0.449,1,1V48.225z"/>
<path display="none" fill="#343434" d="M16.994,35.276c2.558,0,4.638-2.081,4.638-4.638c0-2.558-2.08-4.638-4.638-4.638
	s-4.638,2.08-4.638,4.638C12.356,33.195,14.437,35.276,16.994,35.276z M16.994,28.001c1.454,0,2.638,1.183,2.638,2.638
	c0,1.454-1.184,2.638-2.638,2.638s-2.638-1.184-2.638-2.638C14.356,29.184,15.54,28.001,16.994,28.001z"/>
<path display="none" fill="#343434" d="M22.009,35.226l-0.505-0.13l-0.396,0.34c-1.147,0.985-2.608,1.528-4.114,1.528
	c-1.501,0-2.959-0.539-4.104-1.519l-0.399-0.342l-0.509,0.136c-2.186,0.585-3.712,2.564-3.712,4.815v3.063h17.498v-3.063
	C25.768,37.78,24.222,35.794,22.009,35.226z M23.768,41.117H10.27v-1.063c0-1.187,0.712-2.249,1.779-2.725
	c1.429,1.058,3.164,1.634,4.945,1.634c1.79,0,3.531-0.582,4.964-1.648c1.085,0.468,1.81,1.536,1.81,2.739V41.117z"/>
<rect x="29.153" y="28.428" display="none" fill="#343434" width="15.498" height="2"/>
<rect x="29.153" y="34.606" display="none" fill="#343434" width="15.498" height="2"/>
<rect x="29.153" y="40.786" display="none" fill="#343434" width="15.498" height="2"/>
<circle display="none" fill="#343434" cx="27.043" cy="16.31" r="1.775"/>
<circle display="none" fill="#FF0000" cx="51.463" cy="17.611" r="10.341"/>
<path display="none" fill="#FFFFFF" d="M51.463,28.951c-6.253,0-11.341-5.087-11.341-11.34S45.21,6.271,51.463,6.271
	c6.254,0,11.342,5.088,11.342,11.341S57.717,28.951,51.463,28.951z M51.463,8.271c-5.15,0-9.341,4.19-9.341,9.341
	s4.19,9.34,9.341,9.34s9.342-4.189,9.342-9.34S56.613,8.271,51.463,8.271z"/>
<rect x="50.468" y="13.171" display="none" fill="#FFFFFF" width="1.991" height="7.413"/>
<rect x="50.468" y="21.57" display="none" fill="#FFFFFF" width="1.991" height="2.033"/>
<path display="none" fill="#E8EBEB" stroke="#9B9B9B" stroke-width="0.25" stroke-miterlimit="10" d="M49.37,48.083
	c0,0.551-0.448,1-1,1H5.122c-0.552,0-1-0.449-1-1V20.646c0-0.551,0.448-1,1-1h15.997h11.847H48.37c0.552,0,1,0.449,1,1V48.083z"/>
<path display="none" fill="#FBC691" d="M16.829,35.134c2.558,0,4.638-2.081,4.638-4.639c0-2.557-2.08-4.637-4.638-4.637
	s-4.638,2.08-4.638,4.637C12.191,33.053,14.271,35.134,16.829,35.134z"/>
<path display="none" fill="#4CBC86" d="M21.844,35.083l-0.505-0.13l-0.396,0.339c-1.147,0.986-2.608,1.528-4.114,1.528
	c-1.501,0-2.959-0.538-4.104-1.518l-0.399-0.342l-0.509,0.136c-2.186,0.585-3.712,2.564-3.712,4.815v3.063h17.498v-3.063
	C25.603,37.638,24.057,35.652,21.844,35.083z"/>
<rect x="28.988" y="28.285" display="none" fill="#4B6D9D" width="15.498" height="2"/>
<rect x="28.988" y="34.464" display="none" fill="#4B6D9D" width="15.498" height="2"/>
<rect x="28.988" y="40.644" display="none" fill="#4B6D9D" width="15.498" height="2"/>
<path display="none" fill="#494949" d="M21.336,15.63c0-3.146,2.56-5.706,5.706-5.706c3.147,0,5.708,2.56,5.708,5.706v8.727H21.336
	V15.63z M26.878,14.393c-0.981,0-1.775,0.795-1.775,1.774c0,0.98,0.794,1.775,1.775,1.775c0.98,0,1.774-0.795,1.774-1.775
	C28.652,15.188,27.858,14.393,26.878,14.393z"/>
<path display="none" fill="#84533D" d="M16.829,25.859c-1.753,0-3.263,0.988-4.052,2.426h8.104
	C20.092,26.847,18.582,25.859,16.829,25.859z"/>
<defs>
	<filter id="Adobe_OpacityMaskFilter_6_" filterUnits="userSpaceOnUse" x="2.617" y="63.679" width="48.851" height="7.494">
		<feFlood  style="flood-color:white;flood-opacity:1" result="back"/>
		<feBlend  in="SourceGraphic" in2="back" mode="normal"/>
	</filter>
</defs>
<mask maskUnits="userSpaceOnUse" x="2.617" y="63.679" width="48.851" height="7.494" id="SVGID_10_">
	<g filter="url(#Adobe_OpacityMaskFilter_6_)">
		<defs>
			<filter id="Adobe_OpacityMaskFilter_7_" filterUnits="userSpaceOnUse" x="2.617" y="63.679" width="48.851" height="7.494">
				<feFlood  style="flood-color:white;flood-opacity:1" result="back"/>
				<feBlend  in="SourceGraphic" in2="back" mode="normal"/>
			</filter>
		</defs>
		<mask maskUnits="userSpaceOnUse" x="2.617" y="63.679" width="48.851" height="7.494" id="SVGID_10_">
			<g filter="url(#Adobe_OpacityMaskFilter_7_)">
			</g>
		</mask>
		
			<radialGradient id="SVGID_11_" cx="198.4727" cy="403.9829" r="30.4419" gradientTransform="matrix(0.8023 0 0 0.1231 -132.1924 17.6958)" gradientUnits="userSpaceOnUse">
			<stop  offset="0" style="stop-color:#4D4D4D"/>
			<stop  offset="0.7903" style="stop-color:#000000"/>
		</radialGradient>
		<ellipse mask="url(#SVGID_10_)" fill="url(#SVGID_11_)" cx="27.042" cy="67.426" rx="24.425" ry="3.747"/>
	</g>
</mask>
<radialGradient id="SVGID_12_" cx="198.4727" cy="403.9829" r="30.4419" gradientTransform="matrix(0.8023 0 0 0.1231 -132.1924 17.6958)" gradientUnits="userSpaceOnUse">
	<stop  offset="0.5394" style="stop-color:#000000"/>
	<stop  offset="1" style="stop-color:#FFFFFF;stop-opacity:0"/>
</radialGradient>
<ellipse display="none" opacity="0.4" fill="url(#SVGID_12_)" cx="27.042" cy="67.426" rx="24.425" ry="3.747"/>
<path display="none" d="M45.278,17.444c6.794,0.762,13.054,3.248,18.298,6.994L68.96,18.6l6.18,5.407l-5.428,5.885
	c5.993,6.613,9.636,15.299,9.636,24.817c0,20.711-17.254,37.513-38.526,37.513c-21.281,0-38.534-16.802-38.534-37.513
	c0-19.267,15.022-35.43,34.685-37.329v-3.652h-9.608V6.271h27.527v7.457h-9.612V17.444z M36.707,62.845
	c8.484,6.191,18.151-6.369,9.67-12.557c-2.859-2.093-17.783-5.401-22.465-6.587C26.392,47.738,33.848,60.769,36.707,62.845z
	 M61.995,34.085c-5.418-5.271-12.909-8.539-21.174-8.539c-16.547,0-29.955,13.053-29.955,29.163
	c0,16.102,13.408,29.156,29.955,29.156c16.539,0,29.946-13.054,29.946-29.156C70.768,46.653,67.414,39.362,61.995,34.085z"/>
<path display="none" fill="#343434" d="M40.061,39.399H7.271v-5.746h32.789V39.399z M9.271,37.399h28.789v-1.746H9.271V37.399z"/>
<rect x="7.271" y="26.864" display="none" fill="#343434" width="17.154" height="3.746"/>
<path display="none" fill="#343434" d="M40.061,47.269H7.271v-5.746h32.789V47.269z M9.271,45.269h28.789v-1.746H9.271V45.269z"/>
<path display="none" fill="#343434" d="M41.732,60.035H6.287c-2.207,0-4-1.794-4-4V24.061c0-2.205,1.793-4,4-4h35.445
	c2.205,0,4,1.795,4,4v31.975C45.732,58.241,43.938,60.035,41.732,60.035z M6.287,22.061c-1.104,0-2,0.897-2,2v31.975
	c0,1.103,0.896,2,2,2h35.445c1.102,0,2-0.897,2-2V24.061c0-1.103-0.898-2-2-2H6.287z"/>
<path display="none" fill="#343434" d="M40.322,51.722c0,1.183-0.959,2.142-2.143,2.142h-7.447c-1.184,0-2.143-0.959-2.143-2.142
	l0,0c0-1.184,0.959-2.143,2.143-2.143h7.447C39.363,49.579,40.322,50.538,40.322,51.722L40.322,51.722z"/>
<path display="none" fill="#343434" d="M26.66,51.722c0,1.183-0.959,2.142-2.143,2.142h-3.723c-1.184,0-2.143-0.959-2.143-2.142l0,0
	c0-1.184,0.959-2.143,2.143-2.143h3.723C25.701,49.579,26.66,50.538,26.66,51.722L26.66,51.722z"/>
<path display="none" fill="#343434" d="M40.062,39.399H7.272v-5.746h32.789V39.399z M9.272,37.399h28.789v-1.746H9.272V37.399z"/>
<rect x="7.271" y="26.864" display="none" fill="#343434" width="17.154" height="3.746"/>
<path display="none" fill="#343434" d="M40.062,47.269H7.272v-5.746h32.789V47.269z M9.272,45.269h28.789v-1.746H9.272V45.269z"/>
<path display="none" fill="#343434" d="M41.732,60.035H6.287c-2.206,0-4-1.794-4-4V24.061c0-2.205,1.794-4,4-4h35.445
	c2.206,0,4,1.795,4,4v31.975C45.732,58.241,43.938,60.035,41.732,60.035z M6.287,22.061c-1.103,0-2,0.897-2,2v31.975
	c0,1.103,0.897,2,2,2h35.445c1.103,0,2-0.897,2-2V24.061c0-1.103-0.897-2-2-2H6.287z"/>
<path display="none" fill="#343434" d="M40.322,51.722c0,1.183-0.959,2.142-2.143,2.142h-7.447c-1.183,0-2.142-0.959-2.142-2.142
	l0,0c0-1.184,0.959-2.143,2.142-2.143h7.447C39.363,49.579,40.322,50.538,40.322,51.722L40.322,51.722z"/>
<path display="none" fill="#343434" d="M26.661,51.722c0,1.183-0.959,2.142-2.143,2.142h-3.724c-1.183,0-2.142-0.959-2.142-2.142
	l0,0c0-1.184,0.959-2.143,2.142-2.143h3.724C25.702,49.579,26.661,50.538,26.661,51.722L26.661,51.722z"/>
<circle display="none" fill="#009999" cx="45.932" cy="22.318" r="10.341"/>
<path display="none" fill="#FFFFFF" d="M45.932,33.658c-6.253,0-11.341-5.087-11.341-11.34s5.088-11.341,11.341-11.341
	s11.341,5.088,11.341,11.341S52.185,33.658,45.932,33.658z M45.932,12.978c-5.15,0-9.341,4.19-9.341,9.341s4.19,9.34,9.341,9.34
	s9.341-4.189,9.341-9.34S51.082,12.978,45.932,12.978z"/>
<polygon display="none" fill="#FFFFFF" points="44.331,26.277 40.43,22.377 41.844,20.963 44.331,23.449 49.3,18.48 50.714,19.895 
	"/>
<path display="none" fill="#343434" d="M40.062,39.399H7.272v-5.746h32.789V39.399z M9.272,37.399h28.789v-1.746H9.272V37.399z"/>
<rect x="7.271" y="26.864" display="none" fill="#343434" width="17.154" height="3.746"/>
<path display="none" fill="#343434" d="M40.062,47.269H7.272v-5.746h32.789V47.269z M9.272,45.269h28.789v-1.746H9.272V45.269z"/>
<path display="none" fill="#343434" d="M41.732,60.035H6.287c-2.206,0-4-1.794-4-4V24.061c0-2.206,1.794-4,4-4h35.445
	c2.206,0,4,1.794,4,4v31.975C45.732,58.241,43.938,60.035,41.732,60.035z M6.287,22.061c-1.103,0-2,0.896-2,2v31.975
	c0,1.103,0.897,2,2,2h35.445c1.103,0,2-0.897,2-2V24.061c0-1.104-0.897-2-2-2H6.287z"/>
<path display="none" fill="#343434" d="M40.322,51.722c0,1.183-0.959,2.142-2.143,2.142h-7.447c-1.183,0-2.142-0.959-2.142-2.142
	l0,0c0-1.184,0.959-2.143,2.142-2.143h7.447C39.363,49.579,40.322,50.538,40.322,51.722L40.322,51.722z"/>
<path display="none" fill="#343434" d="M26.661,51.722c0,1.183-0.959,2.142-2.143,2.142h-3.724c-1.183,0-2.142-0.959-2.142-2.142
	l0,0c0-1.184,0.959-2.143,2.142-2.143h3.724C25.702,49.579,26.661,50.538,26.661,51.722L26.661,51.722z"/>
<circle display="none" fill="#FF0000" cx="45.932" cy="22.318" r="10.341"/>
<path display="none" fill="#FFFFFF" d="M45.932,33.658c-6.253,0-11.341-5.087-11.341-11.34s5.088-11.341,11.341-11.341
	s11.341,5.088,11.341,11.341S52.185,33.658,45.932,33.658z M45.932,12.978c-5.15,0-9.341,4.19-9.341,9.341s4.19,9.34,9.341,9.34
	s9.341-4.189,9.341-9.34S51.082,12.978,45.932,12.978z"/>
<rect x="44.937" y="17.878" display="none" fill="#FFFFFF" width="1.99" height="7.413"/>
<rect x="44.937" y="26.277" display="none" fill="#FFFFFF" width="1.99" height="2.033"/>
<path display="none" fill="#EDEDF3" d="M41.732,59.78H6.287c-2.206,0-4-1.794-4-4V23.806c0-2.206,1.794-4,4-4h35.445
	c2.206,0,4,1.794,4,4V55.78C45.732,57.986,43.938,59.78,41.732,59.78z"/>
<path display="none" fill="#7A7C7C" d="M40.062,38.145H7.272v-4.747h32.789V38.145z"/>
<rect x="7.271" y="26.609" display="none" fill="#494949" width="17.154" height="3.746"/>
<path display="none" fill="#7A7C7C" d="M40.062,46.014H7.272v-4.746h32.789V46.014z"/>
<path display="none" fill="#37B0E5" d="M40.322,51.467c0,1.182-0.959,2.141-2.143,2.141h-7.447c-1.183,0-2.142-0.959-2.142-2.141
	l0,0c0-1.184,0.959-2.143,2.142-2.143h7.447C39.363,49.324,40.322,50.283,40.322,51.467L40.322,51.467z"/>
<path display="none" fill="#37B0E5" d="M26.661,51.467c0,1.182-0.959,2.141-2.143,2.141h-3.724c-1.183,0-2.142-0.959-2.142-2.141
	l0,0c0-1.184,0.959-2.143,2.142-2.143h3.724C25.702,49.324,26.661,50.283,26.661,51.467L26.661,51.467z"/>
<defs>
	<filter id="Adobe_OpacityMaskFilter_8_" filterUnits="userSpaceOnUse" x="0" y="70.273" width="48.852" height="7.494">
		<feFlood  style="flood-color:white;flood-opacity:1" result="back"/>
		<feBlend  in="SourceGraphic" in2="back" mode="normal"/>
	</filter>
</defs>
<mask maskUnits="userSpaceOnUse" x="0" y="70.273" width="48.852" height="7.494" id="SVGID_13_">
	<g filter="url(#Adobe_OpacityMaskFilter_8_)">
		<defs>
			<filter id="Adobe_OpacityMaskFilter_9_" filterUnits="userSpaceOnUse" x="0" y="70.273" width="48.852" height="7.494">
				<feFlood  style="flood-color:white;flood-opacity:1" result="back"/>
				<feBlend  in="SourceGraphic" in2="back" mode="normal"/>
			</filter>
		</defs>
		<mask maskUnits="userSpaceOnUse" x="0" y="70.273" width="48.852" height="7.494" id="SVGID_13_">
			<g filter="url(#Adobe_OpacityMaskFilter_9_)">
			</g>
		</mask>
		
			<radialGradient id="SVGID_14_" cx="195.2109" cy="457.5493" r="30.4414" gradientTransform="matrix(0.8023 0 0 0.1231 -132.1924 17.6958)" gradientUnits="userSpaceOnUse">
			<stop  offset="0" style="stop-color:#4D4D4D"/>
			<stop  offset="0.7903" style="stop-color:#000000"/>
		</radialGradient>
		<ellipse mask="url(#SVGID_13_)" fill="url(#SVGID_14_)" cx="24.426" cy="74.021" rx="24.426" ry="3.747"/>
	</g>
</mask>
<radialGradient id="SVGID_15_" cx="195.2109" cy="457.5493" r="30.4414" gradientTransform="matrix(0.8023 0 0 0.1231 -132.1924 17.6958)" gradientUnits="userSpaceOnUse">
	<stop  offset="0.5394" style="stop-color:#000000"/>
	<stop  offset="1" style="stop-color:#FFFFFF;stop-opacity:0"/>
</radialGradient>
<ellipse display="none" opacity="0.4" fill="url(#SVGID_15_)" cx="24.426" cy="74.021" rx="24.426" ry="3.747"/>
</svg>
