<?xml version="1.0" encoding="utf-8"?>
<!-- Generator: Adobe Illustrator 15.1.0, SVG Export Plug-In  -->
<!DOCTYPE svg PUBLIC "-//W3C//DTD SVG 1.1//EN" "http://www.w3.org/Graphics/SVG/1.1/DTD/svg11.dtd" [
	<!ENTITY ns_flows "http://ns.adobe.com/Flows/1.0/">
]>
<svg version="1.1"
	 xmlns="http://www.w3.org/2000/svg" xmlns:xlink="http://www.w3.org/1999/xlink" xmlns:a="http://ns.adobe.com/AdobeSVGViewerExtensions/3.0/"
	 x="0px" y="0px" width="96px" height="90px" viewBox="-6.072 -0.914 96 90" enable-background="new -6.072 -0.914 96 90"
	 xml:space="preserve">
<defs>
</defs>
<path display="none" fill="#72BF00" d="M7.443,28.34c2.868,1.644,6.767,2.945,11.696,3.906c4.929,0.961,10.29,1.441,16.083,1.441
	s11.153-0.48,16.083-1.441c4.929-0.961,8.828-2.263,11.695-3.906c2.869-1.643,4.303-3.426,4.303-5.347v-5.347
	c0-1.922-1.434-3.705-4.303-5.348c-2.867-1.644-6.767-2.945-11.695-3.905c-4.93-0.962-10.29-1.442-16.083-1.442
	S24.068,7.432,19.14,8.394c-4.93,0.96-8.828,2.262-11.696,3.905c-2.869,1.643-4.303,3.426-4.303,5.348v5.347
	C3.141,24.914,4.574,26.697,7.443,28.34z"/>
<path display="none" fill="#72BF00" d="M35.223,71.117c-6.6,0-12.769-0.6-18.506-1.797c-5.736-1.198-10.262-2.967-13.576-5.305
	v7.102c0,1.921,1.434,3.704,4.303,5.346c2.868,1.645,6.767,2.946,11.696,3.907c4.929,0.961,10.29,1.441,16.083,1.441
	s11.153-0.48,16.083-1.441c2.921-0.57,5.472-1.262,7.67-2.072l-6.635-8.729C46.994,70.584,41.301,71.117,35.223,71.117z"/>
<path display="none" fill="#72BF00" d="M7.443,44.381c2.868,1.644,6.767,2.945,11.696,3.906c4.929,0.961,10.29,1.441,16.083,1.441
	s11.153-0.48,16.083-1.441c4.929-0.961,8.828-2.263,11.695-3.906c2.869-1.643,4.303-3.424,4.303-5.347v-7.102
	c-3.314,2.339-7.839,4.107-13.575,5.306c-5.737,1.197-11.906,1.796-18.506,1.796s-12.769-0.599-18.506-1.796
	C10.98,36.04,6.455,34.271,3.141,31.933v7.102C3.141,40.957,4.574,42.738,7.443,44.381z"/>
<path display="none" fill="#72BF00" d="M7.443,60.422c2.868,1.643,6.767,2.945,11.696,3.905c4.929,0.962,10.29,1.442,16.083,1.442
	s11.153-0.48,16.083-1.442c3.224-0.628,5.999-1.405,8.343-2.326V51.698c-1.805,0.606-3.777,1.134-5.92,1.581
	c-5.737,1.197-11.906,1.796-18.506,1.796s-12.769-0.599-18.506-1.796c-5.736-1.197-10.262-2.967-13.576-5.305v7.101
	C3.141,56.996,4.574,58.779,7.443,60.422z"/>
<polygon display="none" fill="#72BF00" points="76.038,67.25 76.038,48.368 62.647,48.368 62.647,67.25 54.347,67.25 61.845,77.116 
	69.343,86.981 76.841,77.116 84.339,67.25 "/>
<circle display="none" fill="#009999" cx="14.481" cy="18.292" r="10.341"/>
<path display="none" fill="#FFFFFF" d="M14.481,29.632c-6.253,0-11.341-5.087-11.341-11.34s5.088-11.34,11.341-11.34
	s11.341,5.087,11.341,11.34S20.734,29.632,14.481,29.632z M14.481,8.951c-5.15,0-9.341,4.19-9.341,9.34s4.19,9.34,9.341,9.34
	s9.341-4.19,9.341-9.34S19.632,8.951,14.481,8.951z"/>
<polygon display="none" fill="#FFFFFF" points="12.881,22.251 8.979,18.351 10.394,16.937 12.881,19.423 17.85,14.454 
	19.264,15.868 "/>
<circle display="none" fill="#FF0000" cx="14.481" cy="18.292" r="10.341"/>
<path display="none" fill="#FFFFFF" d="M14.481,29.632c-6.253,0-11.341-5.087-11.341-11.34s5.088-11.34,11.341-11.34
	s11.341,5.087,11.341,11.34S20.734,29.632,14.481,29.632z M14.481,8.951c-5.15,0-9.341,4.19-9.341,9.34s4.19,9.34,9.341,9.34
	s9.341-4.19,9.341-9.34S19.632,8.951,14.481,8.951z"/>
<rect x="13.486" y="13.851" display="none" fill="#FFFFFF" width="1.99" height="7.413"/>
<rect x="13.486" y="22.251" display="none" fill="#FFFFFF" width="1.99" height="2.033"/>
<g display="none">
	<path display="inline" fill="#343434" d="M41.127,9.667c-1,0-1.809,0.81-1.809,1.81v29.42c0,1,0.809,1.811,1.809,1.811
		s1.811-0.811,1.811-1.811v-29.42C42.938,10.477,42.127,9.667,41.127,9.667L41.127,9.667z"/>
</g>
<g display="none">
	<path display="inline" fill="#343434" d="M15.738,21.287v10.26H9.287v-10.26H15.738 M17.738,19.287H9.287c-1.1,0-2,0.89-2,2v10.26
		c0,1.1,0.9,2,2,2h8.451V19.287L17.738,19.287z"/>
</g>
<g display="none">
	<path display="inline" fill="#343434" d="M37.318,16.652v19.288c-4.481-2.854-10.729-3.795-14.17-4.314l-0.372-0.056l-0.149-0.022
		h-0.15h-2.738v-10.26h3.1h0.157l0.155-0.024C25.781,20.847,32.531,19.781,37.318,16.652 M39.318,12.057
		c-3.281,4.91-12.301,6.57-16.48,7.23h-5.1v14.26h4.738c3.951,0.6,13.461,1.89,16.842,6.96V12.057L39.318,12.057z"/>
</g>
<g display="none">
	<path display="inline" fill="#343434" d="M13.96,34.105l3.416,12.541h-2.029l-3.229-12.541H13.96 M15.488,32.105H9.537l4.26,16.541
		h5.59v-2.229L15.488,32.105L15.488,32.105z"/>
</g>
<path display="none" fill="#343434" d="M44.738,38.707v-3c5.449,0,9.879-4.431,9.879-9.87c0-5.45-4.43-9.88-9.879-9.88v-3
	c7.1,0,12.879,5.779,12.879,12.88C57.617,32.937,51.838,38.707,44.738,38.707z"/>
<path display="none" fill="#343434" d="M44.738,33.207v-3c2.42,0,4.379-1.96,4.379-4.37c0-2.42-1.959-4.38-4.379-4.38v-3
	c4.068,0,7.379,3.31,7.379,7.38C52.117,29.896,48.807,33.207,44.738,33.207z"/>
<path display="none" fill="#F27057" d="M42.944,40.9c0,1-0.811,1.811-1.811,1.811s-1.81-0.811-1.81-1.811V11.48
	c0-1,0.81-1.81,1.81-1.81s1.811,0.81,1.811,1.81V40.9z"/>
<path display="none" fill="#F26F59" d="M9.294,19.291c-1.1,0-2,0.89-2,2v10.26c0,1.1,0.9,2,2,2h8.45v-14.26H9.294z"/>
<path display="none" fill="#EDEDF3" d="M22.845,19.291h-5.101v14.26h4.739c3.951,0.6,13.461,1.89,16.841,6.959V12.061
	C36.044,16.971,27.024,18.631,22.845,19.291z"/>
<polygon display="none" fill="#6D7587" points="9.874,33.551 13.804,48.65 19.394,48.65 19.394,46.421 15.824,33.551 "/>
<path display="none" fill="#6D7587" d="M44.744,38.711v-3c5.45,0,9.88-4.431,9.88-9.87c0-5.45-4.43-9.88-9.88-9.88v-3
	c7.101,0,12.881,5.779,12.881,12.88C57.625,32.94,51.845,38.711,44.744,38.711z"/>
<path display="none" fill="#6D7587" d="M44.744,33.211v-3c2.42,0,4.38-1.961,4.38-4.37c0-2.42-1.96-4.38-4.38-4.38v-3
	c4.069,0,7.38,3.31,7.38,7.38C52.124,29.9,48.813,33.211,44.744,33.211z"/>
<defs>
	<filter id="Adobe_OpacityMaskFilter" filterUnits="userSpaceOnUse" x="0" y="64.555" width="48.852" height="7.494">
		<feFlood  style="flood-color:white;flood-opacity:1" result="back"/>
		<feBlend  in="SourceGraphic" in2="back" mode="normal"/>
	</filter>
</defs>
<mask maskUnits="userSpaceOnUse" x="0" y="64.555" width="48.852" height="7.494" id="SVGID_1_">
	<g filter="url(#Adobe_OpacityMaskFilter)">
		<defs>
			<filter id="Adobe_OpacityMaskFilter_1_" filterUnits="userSpaceOnUse" x="0" y="64.555" width="48.852" height="7.494">
				<feFlood  style="flood-color:white;flood-opacity:1" result="back"/>
				<feBlend  in="SourceGraphic" in2="back" mode="normal"/>
			</filter>
		</defs>
		<mask maskUnits="userSpaceOnUse" x="0" y="64.555" width="48.852" height="7.494" id="SVGID_1_">
			<g filter="url(#Adobe_OpacityMaskFilter_1_)">
			</g>
		</mask>
		
			<radialGradient id="SVGID_2_" cx="195.002" cy="406.2446" r="30.4409" gradientTransform="matrix(0.8023 0 0 0.1231 -132.0237 18.2927)" gradientUnits="userSpaceOnUse">
			<stop  offset="0" style="stop-color:#4D4D4D"/>
			<stop  offset="0.7903" style="stop-color:#000000"/>
		</radialGradient>
		<ellipse mask="url(#SVGID_1_)" fill="url(#SVGID_2_)" cx="24.426" cy="68.302" rx="24.426" ry="3.747"/>
	</g>
</mask>
<radialGradient id="SVGID_3_" cx="195.002" cy="406.2446" r="30.4409" gradientTransform="matrix(0.8023 0 0 0.1231 -132.0237 18.2927)" gradientUnits="userSpaceOnUse">
	<stop  offset="0.5394" style="stop-color:#000000"/>
	<stop  offset="1" style="stop-color:#FFFFFF;stop-opacity:0"/>
</radialGradient>
<ellipse display="none" opacity="0.4" fill="url(#SVGID_3_)" cx="24.426" cy="68.302" rx="24.426" ry="3.747"/>
<g display="none">
	<path display="inline" fill="#343434" d="M41.127,9.667c-1,0-1.81,0.81-1.81,1.81v29.42c0,1,0.81,1.811,1.81,1.811
		s1.811-0.811,1.811-1.811v-29.42C42.938,10.477,42.127,9.667,41.127,9.667L41.127,9.667z"/>
</g>
<g display="none">
	<path display="inline" fill="#343434" d="M15.737,21.287v10.26h-6.45v-10.26H15.737 M17.737,19.287h-8.45c-1.1,0-2,0.89-2,2v10.26
		c0,1.1,0.9,2,2,2h8.45V19.287L17.737,19.287z"/>
</g>
<g display="none">
	<path display="inline" fill="#343434" d="M37.317,16.652v19.288c-4.48-2.854-10.728-3.795-14.169-4.314l-0.372-0.056l-0.149-0.022
		h-0.15h-2.739v-10.26h3.101h0.157l0.155-0.024C25.781,20.847,32.531,19.781,37.317,16.652 M39.317,12.057
		c-3.28,4.91-12.3,6.57-16.479,7.23h-5.101v14.26h4.739c3.951,0.6,13.461,1.89,16.841,6.96V12.057L39.317,12.057z"/>
</g>
<g display="none">
	<path display="inline" fill="#343434" d="M13.959,34.105l3.417,12.541h-2.029l-3.229-12.541H13.959 M15.487,32.105h-5.95
		l4.26,16.541h5.59v-2.229L15.487,32.105L15.487,32.105z"/>
</g>
<path display="none" fill="#343434" d="M44.737,38.707v-3c5.45,0,9.88-4.431,9.88-9.87c0-5.45-4.43-9.88-9.88-9.88v-3
	c7.101,0,12.88,5.779,12.88,12.88C57.617,32.937,51.838,38.707,44.737,38.707z"/>
<path display="none" fill="#343434" d="M44.737,33.207v-3c2.42,0,4.38-1.96,4.38-4.37c0-2.42-1.96-4.38-4.38-4.38v-3
	c4.069,0,7.38,3.31,7.38,7.38C52.117,29.896,48.807,33.207,44.737,33.207z"/>
<circle display="none" fill="#009999" cx="51.889" cy="11.34" r="10.341"/>
<path display="none" fill="#FFFFFF" d="M51.889,22.681c-6.253,0-11.341-5.088-11.341-11.341S45.636,0,51.889,0
	S63.23,5.087,63.23,11.34S58.142,22.681,51.889,22.681z M51.889,2c-5.15,0-9.341,4.189-9.341,9.34s4.19,9.341,9.341,9.341
	s9.341-4.19,9.341-9.341S57.039,2,51.889,2z"/>
<polygon display="none" fill="#FFFFFF" points="50.288,15.3 46.387,11.399 47.801,9.985 50.288,12.472 55.257,7.503 56.671,8.917 
	"/>
<g display="none">
	<path display="inline" fill="#343434" d="M41.127,9.667c-1,0-1.81,0.81-1.81,1.81v29.42c0,1,0.81,1.811,1.81,1.811
		s1.811-0.811,1.811-1.811v-29.42C42.938,10.477,42.127,9.667,41.127,9.667L41.127,9.667z"/>
</g>
<g display="none">
	<path display="inline" fill="#343434" d="M15.737,21.287v10.26h-6.45v-10.26H15.737 M17.737,19.287h-8.45c-1.1,0-2,0.89-2,2v10.26
		c0,1.1,0.9,2,2,2h8.45V19.287L17.737,19.287z"/>
</g>
<g display="none">
	<path display="inline" fill="#343434" d="M37.317,16.652v19.288c-4.48-2.854-10.728-3.795-14.169-4.314l-0.372-0.056l-0.149-0.022
		h-0.15h-2.739v-10.26h3.101h0.157l0.155-0.024C25.781,20.847,32.531,19.781,37.317,16.652 M39.317,12.057
		c-3.28,4.91-12.3,6.57-16.479,7.23h-5.101v14.26h4.739c3.951,0.6,13.461,1.89,16.841,6.96V12.057L39.317,12.057z"/>
</g>
<g display="none">
	<path display="inline" fill="#343434" d="M13.959,34.105l3.417,12.541h-2.029l-3.229-12.541H13.959 M15.487,32.105h-5.95
		l4.26,16.541h5.59v-2.229L15.487,32.105L15.487,32.105z"/>
</g>
<path display="none" fill="#343434" d="M44.737,38.707v-3c5.45,0,9.88-4.431,9.88-9.87c0-5.45-4.43-9.88-9.88-9.88v-3
	c7.101,0,12.88,5.779,12.88,12.88C57.617,32.937,51.838,38.707,44.737,38.707z"/>
<path display="none" fill="#343434" d="M44.737,33.207v-3c2.42,0,4.38-1.96,4.38-4.37c0-2.42-1.96-4.38-4.38-4.38v-3
	c4.069,0,7.38,3.31,7.38,7.38C52.117,29.896,48.807,33.207,44.737,33.207z"/>
<circle display="none" fill="#FF0000" cx="51.874" cy="11.341" r="10.341"/>
<path display="none" fill="#FFFFFF" d="M51.873,22.681c-6.253,0-11.341-5.087-11.341-11.34S45.62,0,51.873,0
	s11.342,5.088,11.342,11.341S58.126,22.681,51.873,22.681z M51.873,2c-5.15,0-9.341,4.19-9.341,9.341s4.19,9.34,9.341,9.34
	s9.341-4.189,9.341-9.34S57.023,2,51.873,2z"/>
<rect x="50.878" y="6.9" display="none" fill="#FFFFFF" width="1.99" height="7.413"/>
<rect x="50.878" y="15.3" display="none" fill="#FFFFFF" width="1.99" height="2.033"/>
<rect x="32.881" y="32.769" display="none" fill="#343434" width="24.318" height="2.274"/>
<rect x="37.046" y="38.556" display="none" fill="#343434" width="20.153" height="2.274"/>
<rect x="32.881" y="44.343" display="none" fill="#343434" width="24.318" height="2.273"/>
<path display="none" fill="#343434" d="M59.42,55.121H19.523c-1.66,0-3.011-1.35-3.011-3.01V46.51h2.274v5.601
	c0,0.406,0.329,0.736,0.736,0.736H59.42c0.406,0,0.736-0.331,0.736-0.736V18.243c0-0.406-0.33-0.736-0.736-0.736H19.523
	c-0.407,0-0.736,0.331-0.736,0.736v15.335h-2.274V18.243c0-1.66,1.351-3.01,3.011-3.01H59.42c1.66,0,3.011,1.35,3.011,3.01v33.869
	C62.431,53.771,61.08,55.121,59.42,55.121z"/>
<rect x="17.65" y="25.119" display="none" fill="#343434" width="43.643" height="2.274"/>
<circle display="none" fill="#343434" cx="23.016" cy="21.132" r="1.869"/>
<circle display="none" fill="#343434" cx="30.031" cy="21.132" r="1.869"/>
<circle display="none" fill="#343434" cx="37.047" cy="21.132" r="1.869"/>
<path display="none" fill="#343434" d="M23.769,49.603v-5.771H8.987v-7.785h14.781v-5.772l9.665,9.665L23.769,49.603z
	 M11.262,41.559h14.781v2.556l4.176-4.174l-4.176-4.175v2.557H11.262V41.559z"/>
<rect x="32.881" y="32.769" display="none" fill="#343434" width="24.318" height="2.274"/>
<rect x="37.046" y="38.556" display="none" fill="#343434" width="20.153" height="2.274"/>
<rect x="32.881" y="44.343" display="none" fill="#343434" width="24.318" height="2.273"/>
<path display="none" fill="#343434" d="M59.42,55.121H19.523c-1.66,0-3.011-1.35-3.011-3.01v-5.601h2.274v5.601
	c0,0.406,0.329,0.736,0.736,0.736H59.42c0.406,0,0.736-0.33,0.736-0.736V18.243c0-0.406-0.33-0.736-0.736-0.736H19.523
	c-0.407,0-0.736,0.331-0.736,0.736v15.335h-2.274V18.243c0-1.66,1.351-3.01,3.011-3.01H59.42c1.66,0,3.01,1.35,3.01,3.01v33.868
	C62.43,53.771,61.08,55.121,59.42,55.121z"/>
<rect x="17.65" y="25.119" display="none" fill="#343434" width="43.643" height="2.274"/>
<circle display="none" fill="#343434" cx="23.016" cy="21.132" r="1.869"/>
<circle display="none" fill="#343434" cx="30.031" cy="21.132" r="1.869"/>
<circle display="none" fill="#343434" cx="37.047" cy="21.132" r="1.869"/>
<path display="none" fill="#343434" d="M23.769,49.603v-5.771H8.987v-7.785h14.781v-5.772l9.665,9.665L23.769,49.603z
	 M11.262,41.559h14.781v2.556l4.176-4.174l-4.176-4.175v2.557H11.262V41.559z"/>
<circle display="none" fill="#009999" cx="62.752" cy="16.468" r="10.341"/>
<path display="none" fill="#FFFFFF" d="M62.752,27.808c-6.253,0-11.341-5.087-11.341-11.34s5.088-11.34,11.341-11.34
	s11.341,5.087,11.341,11.34S69.005,27.808,62.752,27.808z M62.752,7.127c-5.15,0-9.341,4.19-9.341,9.34s4.19,9.34,9.341,9.34
	s9.341-4.19,9.341-9.34S67.902,7.127,62.752,7.127z"/>
<polygon display="none" fill="#FFFFFF" points="61.151,20.427 57.25,16.527 58.664,15.113 61.151,17.599 66.12,12.63 67.534,14.044 
	"/>
<rect x="32.881" y="32.769" display="none" fill="#343434" width="24.318" height="2.273"/>
<rect x="37.046" y="38.556" display="none" fill="#343434" width="20.153" height="2.273"/>
<rect x="32.881" y="44.343" display="none" fill="#343434" width="24.318" height="2.273"/>
<path display="none" fill="#343434" d="M59.42,55.121H19.523c-1.66,0-3.011-1.35-3.011-3.01V46.51h2.274v5.602
	c0,0.405,0.329,0.736,0.736,0.736H59.42c0.406,0,0.736-0.331,0.736-0.736V18.242c0-0.405-0.33-0.736-0.736-0.736H19.523
	c-0.407,0-0.736,0.331-0.736,0.736v15.335h-2.274V18.242c0-1.66,1.351-3.01,3.011-3.01H59.42c1.66,0,3.01,1.35,3.01,3.01v33.869
	C62.43,53.771,61.08,55.121,59.42,55.121z"/>
<rect x="17.65" y="25.118" display="none" fill="#343434" width="43.643" height="2.274"/>
<circle display="none" fill="#343434" cx="23.016" cy="21.132" r="1.869"/>
<circle display="none" fill="#343434" cx="30.031" cy="21.132" r="1.869"/>
<circle display="none" fill="#343434" cx="37.047" cy="21.132" r="1.869"/>
<path display="none" fill="#343434" d="M23.769,49.603v-5.771H8.987v-7.785h14.781v-5.771l9.665,9.664L23.769,49.603z
	 M11.262,41.559h14.781v2.556l4.176-4.175l-4.176-4.175v2.557H11.262V41.559z"/>
<circle display="none" fill="#FF0000" cx="62.752" cy="15.979" r="10.341"/>
<path display="none" fill="#FFFFFF" d="M62.752,27.318c-6.253,0-11.341-5.087-11.341-11.34S56.499,4.638,62.752,4.638
	s11.341,5.088,11.341,11.341S69.005,27.318,62.752,27.318z M62.752,6.638c-5.15,0-9.341,4.19-9.341,9.341s4.19,9.34,9.341,9.34
	s9.341-4.189,9.341-9.34S67.902,6.638,62.752,6.638z"/>
<rect x="61.757" y="11.538" display="none" fill="#FFFFFF" width="1.99" height="7.413"/>
<rect x="61.757" y="19.938" display="none" fill="#FFFFFF" width="1.99" height="2.033"/>
<path display="none" fill="#7A7C7C" d="M59.451,15.232H19.555c-1.66,0-3.011,1.351-3.011,3.011v5.876v2.274h2.274h41.369h2.273
	v-2.274v-5.876C62.461,16.583,61.111,15.232,59.451,15.232z"/>
<path display="none" fill="#EDEDF3" d="M61.231,26.394h-1.044H16.544v20.117v3.093v2.508c0,1.661,1.351,3.011,3.011,3.011h39.896
	c1.66,0,3.01-1.35,3.01-3.011V26.394H61.231z"/>
<rect x="32.912" y="32.77" display="none" fill="#7A7C7C" width="24.318" height="2.273"/>
<rect x="37.077" y="38.557" display="none" fill="#7A7C7C" width="20.153" height="2.273"/>
<rect x="32.912" y="44.344" display="none" fill="#7A7C7C" width="24.318" height="2.273"/>
<circle display="none" fill="#F8D84A" cx="23.047" cy="21.133" r="1.869"/>
<circle display="none" fill="#ED5145" cx="30.062" cy="21.133" r="1.869"/>
<circle display="none" fill="#4BBE86" cx="37.079" cy="21.133" r="1.869"/>
<path display="none" fill="#37B0E5" d="M23.8,49.604v-5.771H9.019v-7.784H23.8v-5.771l9.665,9.664L23.8,49.604z"/>
<defs>
	<filter id="Adobe_OpacityMaskFilter_2_" filterUnits="userSpaceOnUse" x="15.077" y="64.189" width="48.852" height="7.494">
		<feFlood  style="flood-color:white;flood-opacity:1" result="back"/>
		<feBlend  in="SourceGraphic" in2="back" mode="normal"/>
	</filter>
</defs>
<mask maskUnits="userSpaceOnUse" x="15.077" y="64.189" width="48.852" height="7.494" id="SVGID_4_">
	<g filter="url(#Adobe_OpacityMaskFilter_2_)">
		<defs>
			<filter id="Adobe_OpacityMaskFilter_3_" filterUnits="userSpaceOnUse" x="15.077" y="64.189" width="48.852" height="7.494">
				<feFlood  style="flood-color:white;flood-opacity:1" result="back"/>
				<feBlend  in="SourceGraphic" in2="back" mode="normal"/>
			</filter>
		</defs>
		<mask maskUnits="userSpaceOnUse" x="15.077" y="64.189" width="48.852" height="7.494" id="SVGID_4_">
			<g filter="url(#Adobe_OpacityMaskFilter_3_)">
			</g>
		</mask>
		
			<radialGradient id="SVGID_5_" cx="213.793" cy="403.2798" r="30.4419" gradientTransform="matrix(0.8023 0 0 0.1231 -132.0237 18.2927)" gradientUnits="userSpaceOnUse">
			<stop  offset="0" style="stop-color:#4D4D4D"/>
			<stop  offset="0.7903" style="stop-color:#000000"/>
		</radialGradient>
		<ellipse mask="url(#SVGID_4_)" fill="url(#SVGID_5_)" cx="39.503" cy="67.937" rx="24.426" ry="3.747"/>
	</g>
</mask>
<radialGradient id="SVGID_6_" cx="213.793" cy="403.2798" r="30.4419" gradientTransform="matrix(0.8023 0 0 0.1231 -132.0237 18.2927)" gradientUnits="userSpaceOnUse">
	<stop  offset="0.5394" style="stop-color:#000000"/>
	<stop  offset="1" style="stop-color:#FFFFFF;stop-opacity:0"/>
</radialGradient>
<ellipse display="none" opacity="0.4" fill="url(#SVGID_6_)" cx="39.503" cy="67.937" rx="24.426" ry="3.747"/>
<rect x="12.354" y="12.946" display="none" fill="#B9E0CD" width="33.835" height="20.336"/>
<path display="none" fill="#4CBC86" d="M46.189,12.946H12.354v20.336h33.835V12.946z M44.189,18.038
	c-1.434-0.479-2.547-1.633-2.969-3.092h2.969V18.038z M39.145,31.282H19.573c-0.516-2.63-2.59-4.705-5.219-5.222v-5.893
	c2.629-0.517,4.704-2.592,5.22-5.222h19.57c0.504,2.571,2.499,4.609,5.045,5.184v5.969C41.645,26.673,39.648,28.711,39.145,31.282z
	 M17.498,14.946c-0.439,1.518-1.627,2.705-3.144,3.146v-3.146H17.498z M14.354,28.136c1.517,0.441,2.704,1.629,3.144,3.146h-3.144
	V28.136z M41.221,31.282c0.422-1.459,1.535-2.612,2.969-3.092v3.092H41.221z"/>
<path display="none" fill="#4CBC86" d="M29.482,15.808c-2.622,0-4.676,3.148-4.676,7.169s2.054,7.169,4.676,7.169
	c2.623,0,4.677-3.148,4.677-7.169S32.105,15.808,29.482,15.808z M29.482,28.146c-1.266,0-2.676-2.123-2.676-5.169
	s1.41-5.169,2.676-5.169s2.677,2.123,2.677,5.169S30.748,28.146,29.482,28.146z"/>
<path display="none" fill="#4CBC86" d="M38.342,20.003c-1.586,0-2.876,1.379-2.876,3.073s1.29,3.072,2.876,3.072
	c1.585,0,2.875-1.378,2.875-3.072S39.927,20.003,38.342,20.003z M38.342,24.148c-0.483,0-0.876-0.481-0.876-1.072
	c0-0.592,0.393-1.073,0.876-1.073c0.482,0,0.875,0.481,0.875,1.073C39.217,23.667,38.824,24.148,38.342,24.148z"/>
<path display="none" fill="#4CBC86" d="M20.767,20.003c-1.585,0-2.875,1.379-2.875,3.073s1.29,3.072,2.875,3.072
	s2.876-1.378,2.876-3.072S22.352,20.003,20.767,20.003z M20.767,24.148c-0.482,0-0.875-0.481-0.875-1.072
	c0-0.592,0.393-1.073,0.875-1.073c0.483,0,0.876,0.481,0.876,1.073C21.643,23.667,21.25,24.148,20.767,24.148z"/>
<path display="none" fill="#F8C89E" d="M49.332,38.307c-0.061-0.078-1.516-1.907-3.842-1.907c-0.996,0-1.986,0.334-2.944,0.993
	c-2.837,1.955-7.569,6.626-8.806,7.864h-8.541c-0.209-0.077-0.482-0.271-0.482-0.763c0-0.138,0-0.345,0.576-0.345l0.116,0.004
	l5.938-0.004c1.195-0.099,3.456-0.98,3.456-3.605c0-2.608-2.34-3.545-3.576-3.675l-6.805-0.005c-1.049,0-2.019-0.193-3.045-0.398
	c-1.029-0.205-2.093-0.418-3.232-0.418c-2.391,0-5.961,1.141-8.16,4.354c-2.359,3.448-5.83,5.774-5.864,5.798l-0.997,0.663
	l9.988,10.397l3.23-3.725l18.283,0.07l15.264-14.586L49.332,38.307z"/>
<defs>
	<filter id="Adobe_OpacityMaskFilter_4_" filterUnits="userSpaceOnUse" x="2.08" y="64.231" width="48.852" height="7.494">
		<feFlood  style="flood-color:white;flood-opacity:1" result="back"/>
		<feBlend  in="SourceGraphic" in2="back" mode="normal"/>
	</filter>
</defs>
<mask maskUnits="userSpaceOnUse" x="2.08" y="64.231" width="48.852" height="7.494" id="SVGID_7_">
	<g filter="url(#Adobe_OpacityMaskFilter_4_)">
		<defs>
			<filter id="Adobe_OpacityMaskFilter_5_" filterUnits="userSpaceOnUse" x="2.08" y="64.231" width="48.852" height="7.494">
				<feFlood  style="flood-color:white;flood-opacity:1" result="back"/>
				<feBlend  in="SourceGraphic" in2="back" mode="normal"/>
			</filter>
		</defs>
		<mask maskUnits="userSpaceOnUse" x="2.08" y="64.231" width="48.852" height="7.494" id="SVGID_7_">
			<g filter="url(#Adobe_OpacityMaskFilter_5_)">
			</g>
		</mask>
		
			<radialGradient id="SVGID_8_" cx="197.5938" cy="403.6187" r="30.4414" gradientTransform="matrix(0.8023 0 0 0.1231 -132.0237 18.2927)" gradientUnits="userSpaceOnUse">
			<stop  offset="0" style="stop-color:#4D4D4D"/>
			<stop  offset="0.7903" style="stop-color:#000000"/>
		</radialGradient>
		<ellipse mask="url(#SVGID_7_)" fill="url(#SVGID_8_)" cx="26.506" cy="67.979" rx="24.426" ry="3.747"/>
	</g>
</mask>
<radialGradient id="SVGID_9_" cx="197.5938" cy="403.6187" r="30.4414" gradientTransform="matrix(0.8023 0 0 0.1231 -132.0237 18.2927)" gradientUnits="userSpaceOnUse">
	<stop  offset="0.5394" style="stop-color:#000000"/>
	<stop  offset="1" style="stop-color:#FFFFFF;stop-opacity:0"/>
</radialGradient>
<ellipse display="none" opacity="0.4" fill="url(#SVGID_9_)" cx="26.506" cy="67.979" rx="24.426" ry="3.747"/>
<path display="none" fill="#343434" d="M46.189,12.946H12.354v20.336h33.835V12.946z M44.189,18.038
	c-1.434-0.479-2.546-1.633-2.969-3.092h2.969V18.038z M39.145,31.282H19.573c-0.516-2.63-2.59-4.705-5.219-5.222v-5.892
	c2.629-0.518,4.704-2.593,5.22-5.223h19.57c0.505,2.571,2.499,4.61,5.045,5.184v5.97C41.645,26.673,39.649,28.711,39.145,31.282z
	 M17.498,14.946c-0.439,1.519-1.626,2.705-3.144,3.146v-3.146H17.498z M14.354,28.137c1.518,0.44,2.704,1.628,3.144,3.146h-3.144
	V28.137z M41.221,31.282c0.423-1.459,1.535-2.612,2.969-3.092v3.092H41.221z"/>
<path display="none" fill="#343434" d="M29.483,15.808c-2.623,0-4.677,3.149-4.677,7.169c0,4.021,2.054,7.169,4.677,7.169
	c2.622,0,4.676-3.148,4.676-7.169C34.159,18.957,32.105,15.808,29.483,15.808z M29.483,28.146c-1.267,0-2.677-2.123-2.677-5.169
	s1.41-5.169,2.677-5.169c1.266,0,2.676,2.123,2.676,5.169S30.749,28.146,29.483,28.146z"/>
<path display="none" fill="#343434" d="M38.342,20.003c-1.586,0-2.876,1.379-2.876,3.073s1.29,3.072,2.876,3.072
	c1.585,0,2.875-1.378,2.875-3.072S39.927,20.003,38.342,20.003z M38.342,24.148c-0.483,0-0.876-0.481-0.876-1.072
	c0-0.592,0.393-1.073,0.876-1.073c0.482,0,0.875,0.481,0.875,1.073C39.217,23.667,38.824,24.148,38.342,24.148z"/>
<path display="none" fill="#343434" d="M20.767,20.003c-1.585,0-2.875,1.379-2.875,3.073s1.29,3.072,2.875,3.072
	c1.586,0,2.876-1.378,2.876-3.072S22.353,20.003,20.767,20.003z M20.767,24.148c-0.482,0-0.875-0.481-0.875-1.072
	c0-0.592,0.393-1.073,0.875-1.073c0.483,0,0.876,0.481,0.876,1.073C21.643,23.667,21.25,24.148,20.767,24.148z"/>
<path display="none" fill="#343434" d="M49.333,38.307c-0.062-0.078-1.517-1.907-3.842-1.907c-0.997,0-1.987,0.334-2.945,0.993
	c-2.837,1.955-7.568,6.627-8.806,7.864h-8.541c-0.209-0.077-0.482-0.271-0.482-0.763c0-0.137,0-0.344,0.577-0.344l0.115,0.003
	l5.938-0.003c1.195-0.1,3.456-0.981,3.456-3.606c0-2.608-2.339-3.544-3.576-3.675l-6.805-0.005c-1.048,0-2.019-0.193-3.045-0.398
	c-1.029-0.205-2.093-0.417-3.232-0.417c-2.39,0-5.961,1.14-8.16,4.354C7.625,43.851,4.155,46.177,4.12,46.2l-0.997,0.663
	l9.988,10.398l3.23-3.725l18.283,0.069l15.264-14.586L49.333,38.307z M33.826,51.604l-18.395-0.07l-2.396,2.764l-6.847-7.129
	c1.294-0.994,3.635-2.99,5.445-5.636c1.76-2.571,4.606-3.483,6.51-3.483c0.942,0,1.864,0.184,2.841,0.378
	c1.077,0.215,2.191,0.438,3.437,0.438h6.636c0.32,0.047,1.745,0.332,1.745,1.68c0,1.382-1.357,1.587-1.539,1.609l-5.771,0.004
	c0,0-0.074-0.007-0.198-0.007c-1.542,0-2.577,0.941-2.577,2.344c0,1.813,1.396,2.586,2.135,2.741l9.722,0.021l0.294-0.297
	c0.057-0.058,5.753-5.812,8.813-7.92c0.617-0.425,1.227-0.641,1.811-0.641c0.645,0,1.194,0.264,1.59,0.538L33.826,51.604z"/>
<circle display="none" fill="#009999" cx="45.579" cy="12.021" r="10.341"/>
<path display="none" fill="#FFFFFF" d="M45.579,23.361c-6.253,0-11.341-5.088-11.341-11.341s5.088-11.34,11.341-11.34
	S56.92,5.768,56.92,12.021S51.832,23.361,45.579,23.361z M45.579,2.681c-5.15,0-9.341,4.189-9.341,9.34s4.19,9.341,9.341,9.341
	s9.341-4.19,9.341-9.341S50.729,2.681,45.579,2.681z"/>
<polygon display="none" fill="#FFFFFF" points="43.979,15.98 40.077,12.08 41.491,10.666 43.979,13.152 48.947,8.184 50.361,9.598 
	"/>
<path display="none" fill="#343434" d="M46.189,12.946H12.354v20.336h33.835V12.946z M44.189,18.038
	c-1.434-0.479-2.546-1.633-2.969-3.092h2.969V18.038z M39.145,31.282H19.573c-0.516-2.63-2.59-4.705-5.219-5.222v-5.892
	c2.629-0.518,4.704-2.593,5.22-5.223h19.57c0.505,2.571,2.499,4.61,5.045,5.184v5.97C41.645,26.673,39.649,28.711,39.145,31.282z
	 M17.498,14.946c-0.439,1.519-1.626,2.705-3.144,3.146v-3.146H17.498z M14.354,28.137c1.518,0.44,2.704,1.628,3.144,3.146h-3.144
	V28.137z M41.221,31.282c0.423-1.459,1.535-2.612,2.969-3.092v3.092H41.221z"/>
<path display="none" fill="#343434" d="M29.483,15.808c-2.623,0-4.677,3.149-4.677,7.169c0,4.021,2.054,7.169,4.677,7.169
	c2.622,0,4.676-3.148,4.676-7.169C34.159,18.957,32.105,15.808,29.483,15.808z M29.483,28.146c-1.267,0-2.677-2.123-2.677-5.169
	s1.41-5.169,2.677-5.169c1.266,0,2.676,2.123,2.676,5.169S30.749,28.146,29.483,28.146z"/>
<path display="none" fill="#343434" d="M38.342,20.003c-1.586,0-2.876,1.379-2.876,3.073s1.29,3.072,2.876,3.072
	c1.585,0,2.875-1.378,2.875-3.072S39.927,20.003,38.342,20.003z M38.342,24.148c-0.483,0-0.876-0.481-0.876-1.072
	c0-0.592,0.393-1.073,0.876-1.073c0.482,0,0.875,0.481,0.875,1.073C39.217,23.667,38.824,24.148,38.342,24.148z"/>
<path display="none" fill="#343434" d="M20.767,20.003c-1.585,0-2.875,1.379-2.875,3.073s1.29,3.072,2.875,3.072
	c1.586,0,2.876-1.378,2.876-3.072S22.353,20.003,20.767,20.003z M20.767,24.148c-0.482,0-0.875-0.481-0.875-1.072
	c0-0.592,0.393-1.073,0.875-1.073c0.483,0,0.876,0.481,0.876,1.073C21.643,23.667,21.25,24.148,20.767,24.148z"/>
<path display="none" fill="#343434" d="M49.333,38.307c-0.062-0.078-1.517-1.907-3.842-1.907c-0.997,0-1.987,0.334-2.945,0.993
	c-2.837,1.955-7.568,6.627-8.806,7.864h-8.541c-0.209-0.077-0.482-0.271-0.482-0.763c0-0.137,0-0.344,0.577-0.344l0.115,0.003
	l5.938-0.003c1.195-0.1,3.456-0.981,3.456-3.606c0-2.608-2.339-3.544-3.576-3.675l-6.805-0.005c-1.048,0-2.019-0.193-3.045-0.398
	c-1.029-0.205-2.093-0.417-3.232-0.417c-2.39,0-5.961,1.14-8.16,4.354C7.625,43.851,4.155,46.177,4.12,46.2l-0.997,0.663
	l9.988,10.398l3.23-3.725l18.283,0.069l15.264-14.586L49.333,38.307z M33.826,51.604l-18.395-0.07l-2.396,2.764l-6.847-7.129
	c1.294-0.994,3.635-2.99,5.445-5.636c1.76-2.571,4.606-3.483,6.51-3.483c0.942,0,1.864,0.184,2.841,0.378
	c1.077,0.215,2.191,0.438,3.437,0.438h6.636c0.32,0.047,1.745,0.332,1.745,1.68c0,1.382-1.357,1.587-1.539,1.609l-5.771,0.004
	c0,0-0.074-0.007-0.198-0.007c-1.542,0-2.577,0.941-2.577,2.344c0,1.813,1.396,2.586,2.135,2.741l9.722,0.021l0.294-0.297
	c0.057-0.058,5.753-5.812,8.813-7.92c0.617-0.425,1.227-0.641,1.811-0.641c0.645,0,1.194,0.264,1.59,0.538L33.826,51.604z"/>
<circle display="none" fill="#FF0000" cx="45.579" cy="12.021" r="10.341"/>
<path display="none" fill="#FFFFFF" d="M45.579,23.361c-6.253,0-11.341-5.087-11.341-11.34S39.326,0.681,45.579,0.681
	S56.92,5.769,56.92,12.021S51.832,23.361,45.579,23.361z M45.579,2.681c-5.15,0-9.341,4.19-9.341,9.341s4.19,9.34,9.341,9.34
	s9.341-4.189,9.341-9.34S50.729,2.681,45.579,2.681z"/>
<rect x="44.584" y="7.581" display="none" fill="#FFFFFF" width="1.99" height="7.413"/>
<rect x="44.584" y="15.98" display="none" fill="#FFFFFF" width="1.99" height="2.033"/>
<path display="none" fill="#343434" d="M46.189,12.946H12.354v20.336h33.835V12.946z M44.189,18.038
	c-1.434-0.479-2.546-1.633-2.969-3.092h2.969V18.038z M39.145,31.282H19.573c-0.516-2.63-2.59-4.705-5.219-5.222v-5.892
	c2.629-0.518,4.704-2.593,5.22-5.223h19.57c0.505,2.571,2.499,4.61,5.045,5.184v5.97C41.645,26.673,39.649,28.711,39.145,31.282z
	 M17.498,14.946c-0.439,1.519-1.626,2.705-3.144,3.146v-3.146H17.498z M14.354,28.137c1.518,0.44,2.704,1.628,3.144,3.146h-3.144
	V28.137z M41.221,31.282c0.423-1.459,1.535-2.612,2.969-3.092v3.092H41.221z"/>
<path display="none" fill="#343434" d="M29.483,15.808c-2.623,0-4.677,3.149-4.677,7.169c0,4.021,2.054,7.169,4.677,7.169
	c2.622,0,4.676-3.148,4.676-7.169C34.159,18.957,32.105,15.808,29.483,15.808z M29.483,28.146c-1.267,0-2.677-2.123-2.677-5.169
	s1.41-5.169,2.677-5.169c1.266,0,2.676,2.123,2.676,5.169S30.749,28.146,29.483,28.146z"/>
<path display="none" fill="#343434" d="M38.342,20.003c-1.586,0-2.876,1.379-2.876,3.073s1.29,3.072,2.876,3.072
	c1.585,0,2.875-1.378,2.875-3.072S39.927,20.003,38.342,20.003z M38.342,24.148c-0.483,0-0.876-0.481-0.876-1.072
	c0-0.592,0.393-1.073,0.876-1.073c0.482,0,0.875,0.481,0.875,1.073C39.217,23.667,38.824,24.148,38.342,24.148z"/>
<path display="none" fill="#343434" d="M20.767,20.003c-1.585,0-2.875,1.379-2.875,3.073s1.29,3.072,2.875,3.072
	c1.586,0,2.876-1.378,2.876-3.072S22.353,20.003,20.767,20.003z M20.767,24.148c-0.482,0-0.875-0.481-0.875-1.072
	c0-0.592,0.393-1.073,0.875-1.073c0.483,0,0.876,0.481,0.876,1.073C21.643,23.667,21.25,24.148,20.767,24.148z"/>
<path display="none" fill="#343434" d="M49.333,38.307c-0.062-0.078-1.517-1.907-3.842-1.907c-0.997,0-1.987,0.334-2.945,0.993
	c-2.837,1.955-7.568,6.627-8.806,7.864h-8.541c-0.209-0.077-0.482-0.271-0.482-0.763c0-0.137,0-0.344,0.577-0.344l0.115,0.003
	l5.938-0.003c1.195-0.1,3.456-0.981,3.456-3.606c0-2.608-2.339-3.544-3.576-3.675l-6.805-0.005c-1.048,0-2.019-0.193-3.045-0.398
	c-1.029-0.205-2.093-0.417-3.232-0.417c-2.39,0-5.961,1.14-8.16,4.354C7.625,43.851,4.155,46.177,4.12,46.2l-0.997,0.663
	l9.988,10.398l3.23-3.725l18.283,0.069l15.264-14.586L49.333,38.307z M33.826,51.604l-18.395-0.07l-2.396,2.764l-6.847-7.129
	c1.294-0.994,3.635-2.99,5.445-5.636c1.76-2.571,4.606-3.483,6.51-3.483c0.942,0,1.864,0.184,2.841,0.378
	c1.077,0.215,2.191,0.438,3.437,0.438h6.636c0.32,0.047,1.745,0.332,1.745,1.68c0,1.382-1.357,1.587-1.539,1.609l-5.771,0.004
	c0,0-0.074-0.007-0.198-0.007c-1.542,0-2.577,0.941-2.577,2.344c0,1.813,1.396,2.586,2.135,2.741l9.722,0.021l0.294-0.297
	c0.057-0.058,5.753-5.812,8.813-7.92c0.617-0.425,1.227-0.641,1.811-0.641c0.645,0,1.194,0.264,1.59,0.538L33.826,51.604z"/>
<g display="none">
	<g display="inline">
		<polygon display="none" fill="#999999" points="23.559,18.251 23.559,18.819 23.559,20.819 23.559,55.563 31.041,56.48 
			33.041,55.563 33.041,11.336 12.336,11.336 12.336,18.325 14.336,18.325 		"/>
		<path display="none" fill="#C8C8C8" d="M24.312,56.981H6.102v-39.41h18.21V56.981z"/>
		<path display="none" fill="#C8C8C8" d="M46.757,56.981H27.3V25.053h19.457V56.981z"/>
		<rect x="3.36" y="54.981" display="none" fill="#C8C8C8" width="47.385" height="2"/>
	</g>
</g>
<path display="none" fill="#848484" d="M24.312,56.981H6.102v-39.41h18.21V56.981z M8.102,54.981h14.21v-35.41H8.102V54.981z"/>
<path display="none" fill="#848484" d="M46.757,56.981H27.3V25.053h19.457V56.981z M29.3,54.981h15.457V27.053H29.3V54.981z"/>
<polygon display="none" fill="#848484" points="33.041,24.806 31.041,24.806 31.041,13.336 14.336,13.336 14.336,17.325 
	12.336,17.325 12.336,11.336 33.041,11.336 "/>
<rect x="24.559" y="18.819" display="none" fill="#848484" width="7.482" height="2"/>
<rect x="24.559" y="31.288" display="none" fill="#848484" width="3.741" height="2"/>
<rect x="24.559" y="36.276" display="none" fill="#848484" width="3.741" height="2"/>
<rect x="24.559" y="25.053" display="none" fill="#848484" width="7.482" height="2"/>
<rect x="12.089" y="24.806" display="none" fill="#848484" width="2.494" height="2.494"/>
<rect x="12.089" y="29.794" display="none" fill="#848484" width="2.494" height="2.493"/>
<rect x="12.089" y="34.783" display="none" fill="#848484" width="2.494" height="2.493"/>
<rect x="12.089" y="39.77" display="none" fill="#848484" width="2.494" height="2.494"/>
<rect x="33.288" y="31.042" display="none" fill="#848484" width="2.493" height="2.494"/>
<rect x="33.288" y="36.029" display="none" fill="#848484" width="2.493" height="2.494"/>
<rect x="33.288" y="43.511" display="none" fill="#848484" width="2.493" height="2.493"/>
<rect x="39.522" y="31.042" display="none" fill="#848484" width="2.494" height="2.494"/>
<rect x="39.522" y="36.029" display="none" fill="#848484" width="2.494" height="2.494"/>
<rect x="39.522" y="43.511" display="none" fill="#848484" width="2.494" height="2.493"/>
<path display="none" fill="#848484" d="M19.324,56.981h-8.235V46.251h8.235V56.981z M13.089,54.981h4.235v-6.729h-4.235V54.981z"/>
<rect x="3.36" y="54.981" display="none" fill="#848484" width="47.385" height="2"/>
<defs>
	<filter id="Adobe_OpacityMaskFilter_6_" filterUnits="userSpaceOnUse" x="2.627" y="64.016" width="48.852" height="7.494">
		<feFlood  style="flood-color:white;flood-opacity:1" result="back"/>
		<feBlend  in="SourceGraphic" in2="back" mode="normal"/>
	</filter>
</defs>
<mask maskUnits="userSpaceOnUse" x="2.627" y="64.016" width="48.852" height="7.494" id="SVGID_10_">
	<g filter="url(#Adobe_OpacityMaskFilter_6_)">
		<defs>
			<filter id="Adobe_OpacityMaskFilter_7_" filterUnits="userSpaceOnUse" x="2.627" y="64.016" width="48.852" height="7.494">
				<feFlood  style="flood-color:white;flood-opacity:1" result="back"/>
				<feBlend  in="SourceGraphic" in2="back" mode="normal"/>
			</filter>
		</defs>
		<mask maskUnits="userSpaceOnUse" x="2.627" y="64.016" width="48.852" height="7.494" id="SVGID_10_">
			<g filter="url(#Adobe_OpacityMaskFilter_7_)">
			</g>
		</mask>
		
			<radialGradient id="SVGID_11_" cx="198.2754" cy="401.8716" r="30.4419" gradientTransform="matrix(0.8023 0 0 0.1231 -132.0237 18.2927)" gradientUnits="userSpaceOnUse">
			<stop  offset="0" style="stop-color:#4D4D4D"/>
			<stop  offset="0.7903" style="stop-color:#000000"/>
		</radialGradient>
		<ellipse mask="url(#SVGID_10_)" fill="url(#SVGID_11_)" cx="27.053" cy="67.763" rx="24.426" ry="3.747"/>
	</g>
</mask>
<radialGradient id="SVGID_12_" cx="198.2754" cy="401.8716" r="30.4419" gradientTransform="matrix(0.8023 0 0 0.1231 -132.0237 18.2927)" gradientUnits="userSpaceOnUse">
	<stop  offset="0.5394" style="stop-color:#000000"/>
	<stop  offset="1" style="stop-color:#FFFFFF;stop-opacity:0"/>
</radialGradient>
<ellipse display="none" opacity="0.4" fill="url(#SVGID_12_)" cx="27.053" cy="67.763" rx="24.426" ry="3.747"/>
<path display="none" fill="#343434" d="M24.316,56.978H6.105V17.568h18.211V56.978z M8.105,54.978h14.211V19.568H8.105V54.978z"/>
<path display="none" fill="#343434" d="M46.762,56.978H27.305V25.05h19.457V56.978z M29.305,54.978h15.457V27.05H29.305V54.978z"/>
<polygon display="none" fill="#343434" points="33.045,24.803 31.045,24.803 31.045,13.333 14.34,13.333 14.34,17.321 12.34,17.321 
	12.34,11.333 33.045,11.333 "/>
<rect x="24.563" y="18.815" display="none" fill="#343434" width="7.482" height="2"/>
<rect x="24.563" y="31.285" display="none" fill="#343434" width="3.742" height="2"/>
<rect x="24.563" y="36.272" display="none" fill="#343434" width="3.742" height="2"/>
<rect x="24.563" y="25.05" display="none" fill="#343434" width="7.482" height="2"/>
<rect x="12.094" y="24.803" display="none" fill="#343434" width="2.494" height="2.494"/>
<rect x="12.094" y="29.791" display="none" fill="#343434" width="2.494" height="2.494"/>
<rect x="12.094" y="34.779" display="none" fill="#343434" width="2.494" height="2.493"/>
<rect x="12.094" y="39.767" display="none" fill="#343434" width="2.494" height="2.494"/>
<rect x="33.293" y="31.038" display="none" fill="#343434" width="2.492" height="2.494"/>
<rect x="33.293" y="36.025" display="none" fill="#343434" width="2.492" height="2.494"/>
<rect x="33.293" y="43.508" display="none" fill="#343434" width="2.492" height="2.494"/>
<rect x="39.527" y="31.038" display="none" fill="#343434" width="2.494" height="2.494"/>
<rect x="39.527" y="36.025" display="none" fill="#343434" width="2.494" height="2.494"/>
<rect x="39.527" y="43.508" display="none" fill="#343434" width="2.494" height="2.494"/>
<path display="none" fill="#343434" d="M19.328,56.978h-8.234V46.248h8.234V56.978z M13.094,54.978h4.234v-6.729h-4.234V54.978z"/>
<rect x="3.365" y="54.978" display="none" fill="#343434" width="47.385" height="2"/>
<circle display="none" fill="#009999" cx="40.427" cy="18.291" r="10.341"/>
<path display="none" fill="#FFFFFF" d="M40.426,29.632c-6.252,0-11.34-5.088-11.34-11.341s5.088-11.34,11.34-11.34
	c6.254,0,11.342,5.087,11.342,11.34S46.68,29.632,40.426,29.632z M40.426,8.951c-5.15,0-9.34,4.189-9.34,9.34
	s4.189,9.341,9.34,9.341s9.342-4.19,9.342-9.341S45.576,8.951,40.426,8.951z"/>
<polygon display="none" fill="#FFFFFF" points="38.826,22.251 34.924,18.351 36.338,16.937 38.826,19.423 43.795,14.454 
	45.209,15.868 "/>
<path display="none" fill="#343434" d="M24.316,56.978H6.105V17.568h18.211V56.978z M8.105,54.978h14.211V19.568H8.105V54.978z"/>
<path display="none" fill="#343434" d="M46.762,56.978H27.305V25.051h19.457V56.978z M29.305,54.978h15.457V27.051H29.305V54.978z"
	/>
<polygon display="none" fill="#343434" points="33.045,24.804 31.045,24.804 31.045,13.334 14.34,13.334 14.34,17.322 12.34,17.322 
	12.34,11.334 33.045,11.334 "/>
<rect x="24.563" y="18.815" display="none" fill="#343434" width="7.482" height="2"/>
<rect x="24.563" y="31.285" display="none" fill="#343434" width="3.742" height="2"/>
<rect x="24.563" y="36.273" display="none" fill="#343434" width="3.742" height="2"/>
<rect x="24.563" y="25.051" display="none" fill="#343434" width="7.482" height="2"/>
<rect x="12.094" y="24.804" display="none" fill="#343434" width="2.494" height="2.494"/>
<rect x="12.094" y="29.791" display="none" fill="#343434" width="2.494" height="2.494"/>
<rect x="12.094" y="34.779" display="none" fill="#343434" width="2.494" height="2.494"/>
<rect x="12.094" y="39.768" display="none" fill="#343434" width="2.494" height="2.493"/>
<rect x="33.293" y="31.038" display="none" fill="#343434" width="2.492" height="2.494"/>
<rect x="33.293" y="36.026" display="none" fill="#343434" width="2.492" height="2.494"/>
<rect x="33.293" y="43.508" display="none" fill="#343434" width="2.492" height="2.494"/>
<rect x="39.527" y="31.038" display="none" fill="#343434" width="2.494" height="2.494"/>
<rect x="39.527" y="36.026" display="none" fill="#343434" width="2.494" height="2.494"/>
<rect x="39.527" y="43.508" display="none" fill="#343434" width="2.494" height="2.494"/>
<path display="none" fill="#343434" d="M19.328,56.978h-8.234V46.249h8.234V56.978z M13.094,54.978h4.234v-6.729h-4.234V54.978z"/>
<rect x="3.365" y="54.978" display="none" fill="#343434" width="47.385" height="2"/>
<circle display="none" fill="#FF0000" cx="40.427" cy="18.291" r="10.341"/>
<path display="none" fill="#FFFFFF" d="M40.426,29.632c-6.252,0-11.34-5.088-11.34-11.341s5.088-11.34,11.34-11.34
	c6.254,0,11.342,5.087,11.342,11.34S46.68,29.632,40.426,29.632z M40.426,8.951c-5.15,0-9.34,4.189-9.34,9.34
	s4.189,9.341,9.34,9.341s9.342-4.19,9.342-9.341S45.576,8.951,40.426,8.951z"/>
<rect x="39.432" y="13.851" display="none" fill="#FFFFFF" width="1.99" height="7.413"/>
<rect x="39.432" y="22.251" display="none" fill="#FFFFFF" width="1.99" height="2.033"/>
<path display="none" fill="#343434" d="M24.316,56.978H6.105V17.568h18.211V56.978z M8.105,54.978h14.211V19.568H8.105V54.978z"/>
<path display="none" fill="#343434" d="M46.762,56.978H27.305V25.051h19.457V56.978z M29.305,54.978h15.457V27.051H29.305V54.978z"
	/>
<polygon display="none" fill="#343434" points="33.045,24.804 31.045,24.804 31.045,13.334 14.34,13.334 14.34,17.322 12.34,17.322 
	12.34,11.334 33.045,11.334 "/>
<rect x="24.563" y="18.815" display="none" fill="#343434" width="7.482" height="2"/>
<rect x="24.563" y="31.285" display="none" fill="#343434" width="3.742" height="2"/>
<rect x="24.563" y="36.273" display="none" fill="#343434" width="3.742" height="2"/>
<rect x="24.563" y="25.051" display="none" fill="#343434" width="7.482" height="2"/>
<rect x="12.094" y="24.804" display="none" fill="#343434" width="2.494" height="2.494"/>
<rect x="12.094" y="29.791" display="none" fill="#343434" width="2.494" height="2.494"/>
<rect x="12.094" y="34.779" display="none" fill="#343434" width="2.494" height="2.494"/>
<rect x="12.094" y="39.768" display="none" fill="#343434" width="2.494" height="2.493"/>
<rect x="33.293" y="31.038" display="none" fill="#343434" width="2.492" height="2.494"/>
<rect x="33.293" y="36.026" display="none" fill="#343434" width="2.492" height="2.494"/>
<rect x="33.293" y="43.508" display="none" fill="#343434" width="2.492" height="2.494"/>
<rect x="39.527" y="31.038" display="none" fill="#343434" width="2.494" height="2.494"/>
<rect x="39.527" y="36.026" display="none" fill="#343434" width="2.494" height="2.494"/>
<rect x="39.527" y="43.508" display="none" fill="#343434" width="2.494" height="2.494"/>
<path display="none" fill="#343434" d="M19.328,56.978h-8.234V46.249h8.234V56.978z M13.094,54.978h4.234v-6.729h-4.234V54.978z"/>
<rect x="3.365" y="54.978" display="none" fill="#343434" width="47.385" height="2"/>
<path display="none" fill="#343434" d="M49.389,18.469H33.984v-1.543c0-3.267-2.657-5.924-5.924-5.924
	c-3.266,0-5.923,2.657-5.923,5.924v1.543H6.141c-1.654,0-3,1.346-3,3v27.437c0,1.654,1.346,3,3,3h43.248c1.654,0,3-1.346,3-3V21.469
	C52.389,19.814,51.043,18.469,49.389,18.469z M24.138,16.926c0-2.164,1.76-3.924,3.923-3.924c2.164,0,3.924,1.76,3.924,3.924v5.998
	h-7.847V16.926z M50.389,48.905c0,0.551-0.448,1-1,1H6.141c-0.552,0-1-0.449-1-1V21.469c0-0.551,0.448-1,1-1h15.997v4.455h11.847
	v-4.455h15.404c0.552,0,1,0.449,1,1V48.905z"/>
<path display="none" fill="#343434" d="M17.848,35.957c2.558,0,4.638-2.081,4.638-4.638c0-2.558-2.08-4.638-4.638-4.638
	s-4.638,2.08-4.638,4.638C13.21,33.876,15.29,35.957,17.848,35.957z M17.848,28.682c1.454,0,2.638,1.183,2.638,2.638
	c0,1.454-1.184,2.638-2.638,2.638s-2.638-1.184-2.638-2.638C15.21,29.864,16.394,28.682,17.848,28.682z"/>
<path display="none" fill="#343434" d="M22.862,35.906l-0.505-0.13l-0.396,0.34c-1.147,0.985-2.608,1.528-4.114,1.528
	c-1.501,0-2.959-0.539-4.104-1.519l-0.399-0.342l-0.509,0.136c-2.186,0.585-3.712,2.564-3.712,4.815v3.063h17.498v-3.063
	C26.621,38.461,25.075,36.475,22.862,35.906z M24.621,41.798H11.123v-1.063c0-1.187,0.712-2.249,1.779-2.725
	c1.429,1.058,3.164,1.634,4.945,1.634c1.79,0,3.531-0.582,4.964-1.648c1.085,0.468,1.81,1.536,1.81,2.739V41.798z"/>
<rect x="30.007" y="29.108" display="none" fill="#343434" width="15.498" height="2"/>
<rect x="30.007" y="35.287" display="none" fill="#343434" width="15.498" height="2"/>
<rect x="30.007" y="41.467" display="none" fill="#343434" width="15.498" height="2"/>
<circle display="none" fill="#343434" cx="27.896" cy="16.991" r="1.775"/>
<path display="none" fill="#343434" d="M49.389,18.469H33.984v-1.543c0-3.267-2.657-5.924-5.924-5.924
	c-3.266,0-5.923,2.657-5.923,5.924v1.543H6.141c-1.654,0-3,1.346-3,3v27.437c0,1.654,1.346,3,3,3h43.248c1.654,0,3-1.346,3-3V21.469
	C52.389,19.814,51.043,18.469,49.389,18.469z M24.138,16.926c0-2.164,1.76-3.924,3.923-3.924c2.164,0,3.924,1.76,3.924,3.924v5.998
	h-7.847V16.926z M50.389,48.905c0,0.551-0.447,1-1,1H6.141c-0.552,0-1-0.449-1-1V21.469c0-0.551,0.448-1,1-1h15.997v4.455h11.847
	v-4.455h15.404c0.553,0,1,0.449,1,1V48.905z"/>
<path display="none" fill="#343434" d="M17.848,35.957c2.558,0,4.638-2.081,4.638-4.638c0-2.558-2.08-4.638-4.638-4.638
	s-4.638,2.08-4.638,4.638C13.21,33.876,15.29,35.957,17.848,35.957z M17.848,28.682c1.454,0,2.638,1.183,2.638,2.638
	c0,1.454-1.184,2.638-2.638,2.638s-2.638-1.184-2.638-2.638C15.21,29.864,16.394,28.682,17.848,28.682z"/>
<path display="none" fill="#343434" d="M22.862,35.906l-0.505-0.13l-0.396,0.34c-1.147,0.985-2.608,1.528-4.114,1.528
	c-1.501,0-2.959-0.539-4.104-1.519l-0.399-0.342l-0.509,0.136c-2.186,0.585-3.712,2.564-3.712,4.815v3.063h17.498v-3.063
	C26.621,38.461,25.075,36.475,22.862,35.906z M24.621,41.798H11.123v-1.063c0-1.187,0.712-2.249,1.779-2.725
	c1.429,1.058,3.164,1.634,4.945,1.634c1.79,0,3.531-0.582,4.964-1.648c1.085,0.468,1.81,1.536,1.81,2.739V41.798z"/>
<rect x="30.007" y="29.108" display="none" fill="#343434" width="15.498" height="2"/>
<rect x="30.007" y="35.287" display="none" fill="#343434" width="15.498" height="2"/>
<rect x="30.007" y="41.467" display="none" fill="#343434" width="15.498" height="2"/>
<circle display="none" fill="#343434" cx="27.896" cy="16.991" r="1.775"/>
<circle display="none" fill="#009999" cx="52.317" cy="18.291" r="10.341"/>
<path display="none" fill="#FFFFFF" d="M52.316,29.632c-6.253,0-11.341-5.088-11.341-11.341s5.088-11.34,11.341-11.34
	c6.254,0,11.342,5.087,11.342,11.34S58.57,29.632,52.316,29.632z M52.316,8.951c-5.15,0-9.341,4.189-9.341,9.34
	s4.19,9.341,9.341,9.341s9.342-4.19,9.342-9.341S57.467,8.951,52.316,8.951z"/>
<polygon display="none" fill="#FFFFFF" points="50.717,22.251 46.814,18.351 48.229,16.937 50.717,19.423 55.686,14.454 
	57.1,15.868 "/>
<path display="none" fill="#343434" d="M49.389,18.469H33.984v-1.543c0-3.267-2.657-5.924-5.924-5.924
	c-3.266,0-5.923,2.657-5.923,5.924v1.543H6.141c-1.654,0-3,1.346-3,3v27.437c0,1.654,1.346,3,3,3h43.248c1.654,0,3-1.346,3-3V21.469
	C52.389,19.814,51.043,18.469,49.389,18.469z M24.138,16.926c0-2.164,1.76-3.924,3.923-3.924c2.164,0,3.924,1.76,3.924,3.924v5.998
	h-7.847V16.926z M50.389,48.905c0,0.551-0.448,1-1,1H6.141c-0.552,0-1-0.449-1-1V21.469c0-0.551,0.448-1,1-1h15.997v4.455h11.847
	v-4.455h15.404c0.552,0,1,0.449,1,1V48.905z"/>
<path display="none" fill="#343434" d="M17.848,35.957c2.558,0,4.638-2.081,4.638-4.638c0-2.558-2.08-4.638-4.638-4.638
	s-4.638,2.08-4.638,4.638C13.21,33.876,15.29,35.957,17.848,35.957z M17.848,28.682c1.454,0,2.638,1.183,2.638,2.638
	c0,1.454-1.184,2.638-2.638,2.638s-2.638-1.184-2.638-2.638C15.21,29.864,16.394,28.682,17.848,28.682z"/>
<path display="none" fill="#343434" d="M22.862,35.906l-0.505-0.13l-0.396,0.34c-1.147,0.985-2.608,1.528-4.114,1.528
	c-1.501,0-2.959-0.539-4.104-1.519l-0.399-0.342l-0.509,0.136c-2.186,0.585-3.712,2.564-3.712,4.815v3.063h17.498v-3.063
	C26.621,38.461,25.075,36.475,22.862,35.906z M24.621,41.798H11.123v-1.063c0-1.187,0.712-2.249,1.779-2.725
	c1.429,1.058,3.164,1.634,4.945,1.634c1.79,0,3.531-0.582,4.964-1.648c1.085,0.468,1.81,1.536,1.81,2.739V41.798z"/>
<rect x="30.007" y="29.108" display="none" fill="#343434" width="15.498" height="2"/>
<rect x="30.007" y="35.287" display="none" fill="#343434" width="15.498" height="2"/>
<rect x="30.007" y="41.467" display="none" fill="#343434" width="15.498" height="2"/>
<circle display="none" fill="#343434" cx="27.896" cy="16.991" r="1.775"/>
<circle display="none" fill="#FF0000" cx="52.317" cy="18.292" r="10.341"/>
<path display="none" fill="#FFFFFF" d="M52.316,29.632c-6.253,0-11.341-5.087-11.341-11.34S46.063,6.951,52.316,6.951
	c6.254,0,11.342,5.088,11.342,11.341S58.57,29.632,52.316,29.632z M52.316,8.951c-5.15,0-9.341,4.19-9.341,9.341
	s4.19,9.34,9.341,9.34s9.342-4.189,9.342-9.34S57.467,8.951,52.316,8.951z"/>
<rect x="51.321" y="13.852" display="none" fill="#FFFFFF" width="1.991" height="7.413"/>
<rect x="51.321" y="22.251" display="none" fill="#FFFFFF" width="1.991" height="2.033"/>
<path display="none" fill="#E8EBEB" stroke="#9B9B9B" stroke-width="0.25" stroke-miterlimit="10" d="M50.224,48.763
	c0,0.551-0.448,1-1,1H5.976c-0.552,0-1-0.449-1-1V21.327c0-0.551,0.448-1,1-1h15.997h11.847h15.404c0.552,0,1,0.449,1,1V48.763z"/>
<path display="none" fill="#FBC691" d="M17.683,35.815c2.558,0,4.638-2.081,4.638-4.639c0-2.557-2.08-4.637-4.638-4.637
	s-4.638,2.08-4.638,4.637C13.045,33.734,15.125,35.815,17.683,35.815z"/>
<path display="none" fill="#4CBC86" d="M22.697,35.764l-0.505-0.13l-0.396,0.339c-1.147,0.986-2.608,1.528-4.114,1.528
	c-1.501,0-2.959-0.538-4.104-1.518l-0.399-0.342l-0.509,0.136c-2.186,0.585-3.712,2.564-3.712,4.815v3.063h17.498v-3.063
	C26.456,38.319,24.91,36.333,22.697,35.764z"/>
<rect x="29.842" y="28.965" display="none" fill="#4B6D9D" width="15.498" height="2"/>
<rect x="29.842" y="35.145" display="none" fill="#4B6D9D" width="15.498" height="2"/>
<rect x="29.842" y="41.325" display="none" fill="#4B6D9D" width="15.498" height="2"/>
<path display="none" fill="#494949" d="M22.189,16.311c0-3.146,2.56-5.706,5.706-5.706c3.147,0,5.708,2.56,5.708,5.706v8.727H22.189
	V16.311z M27.731,15.074c-0.981,0-1.775,0.795-1.775,1.774c0,0.98,0.794,1.775,1.775,1.775c0.98,0,1.774-0.795,1.774-1.775
	C29.506,15.869,28.712,15.074,27.731,15.074z"/>
<path display="none" fill="#84533D" d="M17.683,26.54c-1.753,0-3.263,0.988-4.052,2.426h8.104
	C20.945,27.528,19.436,26.54,17.683,26.54z"/>
<defs>
	<filter id="Adobe_OpacityMaskFilter_8_" filterUnits="userSpaceOnUse" x="3.471" y="64.36" width="48.851" height="7.494">
		<feFlood  style="flood-color:white;flood-opacity:1" result="back"/>
		<feBlend  in="SourceGraphic" in2="back" mode="normal"/>
	</filter>
</defs>
<mask maskUnits="userSpaceOnUse" x="3.471" y="64.36" width="48.851" height="7.494" id="SVGID_13_">
	<g filter="url(#Adobe_OpacityMaskFilter_8_)">
		<defs>
			<filter id="Adobe_OpacityMaskFilter_9_" filterUnits="userSpaceOnUse" x="3.471" y="64.36" width="48.851" height="7.494">
				<feFlood  style="flood-color:white;flood-opacity:1" result="back"/>
				<feBlend  in="SourceGraphic" in2="back" mode="normal"/>
			</filter>
		</defs>
		<mask maskUnits="userSpaceOnUse" x="3.471" y="64.36" width="48.851" height="7.494" id="SVGID_13_">
			<g filter="url(#Adobe_OpacityMaskFilter_9_)">
			</g>
		</mask>
		
			<radialGradient id="SVGID_14_" cx="199.3262" cy="404.6636" r="30.4419" gradientTransform="matrix(0.8023 0 0 0.1231 -132.0237 18.2927)" gradientUnits="userSpaceOnUse">
			<stop  offset="0" style="stop-color:#4D4D4D"/>
			<stop  offset="0.7903" style="stop-color:#000000"/>
		</radialGradient>
		<ellipse mask="url(#SVGID_13_)" fill="url(#SVGID_14_)" cx="27.896" cy="68.107" rx="24.425" ry="3.747"/>
	</g>
</mask>
<radialGradient id="SVGID_15_" cx="199.3262" cy="404.6636" r="30.4419" gradientTransform="matrix(0.8023 0 0 0.1231 -132.0237 18.2927)" gradientUnits="userSpaceOnUse">
	<stop  offset="0.5394" style="stop-color:#000000"/>
	<stop  offset="1" style="stop-color:#FFFFFF;stop-opacity:0"/>
</radialGradient>
<ellipse display="none" opacity="0.4" fill="url(#SVGID_15_)" cx="27.896" cy="68.107" rx="24.425" ry="3.747"/>
<path display="none" d="M46.132,18.125c6.794,0.762,13.054,3.248,18.298,6.994l5.384-5.839l6.18,5.407l-5.428,5.885
	c5.993,6.613,9.636,15.299,9.636,24.817c0,20.711-17.254,37.513-38.526,37.513c-21.281,0-38.534-16.802-38.534-37.513
	c0-19.267,15.022-35.43,34.685-37.329v-3.652h-9.608V6.951h27.527v7.457h-9.612V18.125z M37.561,63.525
	c8.484,6.191,18.151-6.369,9.67-12.557c-2.859-2.093-17.783-5.401-22.465-6.587C27.245,48.419,34.701,61.449,37.561,63.525z
	 M62.849,34.766c-5.418-5.271-12.909-8.539-21.174-8.539c-16.547,0-29.955,13.053-29.955,29.163
	c0,16.102,13.408,29.156,29.955,29.156c16.539,0,29.946-13.054,29.946-29.156C71.621,47.334,68.268,40.043,62.849,34.766z"/>
<path display="none" fill="#343434" d="M40.914,40.08H8.125v-5.746h32.789V40.08z M10.125,38.08h28.789v-1.746H10.125V38.08z"/>
<rect x="8.125" y="27.545" display="none" fill="#343434" width="17.154" height="3.746"/>
<path display="none" fill="#343434" d="M40.914,47.949H8.125v-5.746h32.789V47.949z M10.125,45.949h28.789v-1.746H10.125V45.949z"/>
<path display="none" fill="#343434" d="M42.586,60.716H7.141c-2.207,0-4-1.794-4-4V24.741c0-2.205,1.793-4,4-4h35.445
	c2.205,0,4,1.795,4,4v31.975C46.586,58.922,44.791,60.716,42.586,60.716z M7.141,22.741c-1.104,0-2,0.897-2,2v31.975
	c0,1.103,0.896,2,2,2h35.445c1.102,0,2-0.897,2-2V24.741c0-1.103-0.898-2-2-2H7.141z"/>
<path display="none" fill="#343434" d="M41.176,52.402c0,1.183-0.959,2.142-2.143,2.142h-7.447c-1.184,0-2.143-0.959-2.143-2.142
	l0,0c0-1.184,0.959-2.143,2.143-2.143h7.447C40.217,50.26,41.176,51.219,41.176,52.402L41.176,52.402z"/>
<path display="none" fill="#343434" d="M27.514,52.402c0,1.183-0.959,2.142-2.143,2.142h-3.723c-1.184,0-2.143-0.959-2.143-2.142
	l0,0c0-1.184,0.959-2.143,2.143-2.143h3.723C26.555,50.26,27.514,51.219,27.514,52.402L27.514,52.402z"/>
<path display="none" fill="#343434" d="M40.915,40.08H8.126v-5.746h32.789V40.08z M10.126,38.08h28.789v-1.746H10.126V38.08z"/>
<rect x="8.125" y="27.545" display="none" fill="#343434" width="17.154" height="3.746"/>
<path display="none" fill="#343434" d="M40.915,47.949H8.126v-5.746h32.789V47.949z M10.126,45.949h28.789v-1.746H10.126V45.949z"/>
<path display="none" fill="#343434" d="M42.586,60.716H7.141c-2.206,0-4-1.794-4-4V24.741c0-2.205,1.794-4,4-4h35.445
	c2.206,0,4,1.795,4,4v31.975C46.586,58.922,44.792,60.716,42.586,60.716z M7.141,22.741c-1.103,0-2,0.897-2,2v31.975
	c0,1.103,0.897,2,2,2h35.445c1.103,0,2-0.897,2-2V24.741c0-1.103-0.897-2-2-2H7.141z"/>
<path display="none" fill="#343434" d="M41.176,52.402c0,1.183-0.959,2.142-2.143,2.142h-7.447c-1.183,0-2.142-0.959-2.142-2.142
	l0,0c0-1.184,0.959-2.143,2.142-2.143h7.447C40.217,50.26,41.176,51.219,41.176,52.402L41.176,52.402z"/>
<path display="none" fill="#343434" d="M27.515,52.402c0,1.183-0.959,2.142-2.143,2.142h-3.724c-1.183,0-2.142-0.959-2.142-2.142
	l0,0c0-1.184,0.959-2.143,2.142-2.143h3.724C26.556,50.26,27.515,51.219,27.515,52.402L27.515,52.402z"/>
<circle display="none" fill="#009999" cx="46.785" cy="22.999" r="10.341"/>
<path display="none" fill="#FFFFFF" d="M46.785,34.339c-6.253,0-11.341-5.087-11.341-11.34s5.088-11.341,11.341-11.341
	s11.341,5.088,11.341,11.341S53.038,34.339,46.785,34.339z M46.785,13.658c-5.15,0-9.341,4.19-9.341,9.341s4.19,9.34,9.341,9.34
	s9.341-4.189,9.341-9.34S51.936,13.658,46.785,13.658z"/>
<polygon display="none" fill="#FFFFFF" points="45.185,26.958 41.283,23.058 42.697,21.644 45.185,24.13 50.153,19.161 
	51.567,20.575 "/>
<path display="none" fill="#343434" d="M40.915,40.08H8.126v-5.746h32.789V40.08z M10.126,38.08h28.789v-1.746H10.126V38.08z"/>
<rect x="8.125" y="27.545" display="none" fill="#343434" width="17.154" height="3.746"/>
<path display="none" fill="#343434" d="M40.915,47.949H8.126v-5.746h32.789V47.949z M10.126,45.949h28.789v-1.746H10.126V45.949z"/>
<path display="none" fill="#343434" d="M42.586,60.716H7.141c-2.206,0-4-1.794-4-4V24.741c0-2.206,1.794-4,4-4h35.445
	c2.206,0,4,1.794,4,4v31.975C46.586,58.922,44.792,60.716,42.586,60.716z M7.141,22.741c-1.103,0-2,0.896-2,2v31.975
	c0,1.103,0.897,2,2,2h35.445c1.103,0,2-0.897,2-2V24.741c0-1.104-0.897-2-2-2H7.141z"/>
<path display="none" fill="#343434" d="M41.176,52.402c0,1.183-0.959,2.142-2.143,2.142h-7.447c-1.183,0-2.142-0.959-2.142-2.142
	l0,0c0-1.184,0.959-2.143,2.142-2.143h7.447C40.217,50.26,41.176,51.219,41.176,52.402L41.176,52.402z"/>
<path display="none" fill="#343434" d="M27.515,52.402c0,1.183-0.959,2.142-2.143,2.142h-3.724c-1.183,0-2.142-0.959-2.142-2.142
	l0,0c0-1.184,0.959-2.143,2.142-2.143h3.724C26.556,50.26,27.515,51.219,27.515,52.402L27.515,52.402z"/>
<circle display="none" fill="#FF0000" cx="46.785" cy="22.999" r="10.341"/>
<path display="none" fill="#FFFFFF" d="M46.785,34.339c-6.253,0-11.341-5.087-11.341-11.34s5.088-11.341,11.341-11.341
	s11.341,5.088,11.341,11.341S53.038,34.339,46.785,34.339z M46.785,13.658c-5.15,0-9.341,4.19-9.341,9.341s4.19,9.34,9.341,9.34
	s9.341-4.189,9.341-9.34S51.936,13.658,46.785,13.658z"/>
<rect x="45.79" y="18.559" display="none" fill="#FFFFFF" width="1.99" height="7.413"/>
<rect x="45.79" y="26.958" display="none" fill="#FFFFFF" width="1.99" height="2.033"/>
<path fill="#EDEDF3" d="M42.586,60.72H7.141c-2.206,0-4-1.794-4-4V24.745c0-2.206,1.794-4,4-4h35.445c2.206,0,4,1.794,4,4V56.72
	C46.586,58.926,44.792,60.72,42.586,60.72z"/>
<path fill="#7A7C7C" d="M40.915,39.084H8.126v-4.747h32.789V39.084z"/>
<rect x="8.125" y="27.549" fill="#494949" width="17.154" height="3.746"/>
<path fill="#7A7C7C" d="M40.915,46.953H8.126v-4.746h32.789V46.953z"/>
<path fill="#37B0E5" d="M41.176,52.406c0,1.182-0.959,2.141-2.143,2.141h-7.447c-1.183,0-2.142-0.959-2.142-2.141l0,0
	c0-1.184,0.959-2.143,2.142-2.143h7.447C40.217,50.264,41.176,51.223,41.176,52.406L41.176,52.406z"/>
<path fill="#37B0E5" d="M27.515,52.406c0,1.182-0.959,2.141-2.143,2.141h-3.724c-1.183,0-2.142-0.959-2.142-2.141l0,0
	c0-1.184,0.959-2.143,2.142-2.143h3.724C26.556,50.264,27.515,51.223,27.515,52.406L27.515,52.406z"/>
<defs>
	<filter id="Adobe_OpacityMaskFilter_10_" filterUnits="userSpaceOnUse" x="0.854" y="71.213" width="48.852" height="7.494">
		<feFlood  style="flood-color:white;flood-opacity:1" result="back"/>
		<feBlend  in="SourceGraphic" in2="back" mode="normal"/>
	</filter>
</defs>
<mask maskUnits="userSpaceOnUse" x="0.854" y="71.213" width="48.852" height="7.494" id="SVGID_16_">
	<g filter="url(#Adobe_OpacityMaskFilter_10_)">
		<defs>
			<filter id="Adobe_OpacityMaskFilter_11_" filterUnits="userSpaceOnUse" x="0.854" y="71.213" width="48.852" height="7.494">
				<feFlood  style="flood-color:white;flood-opacity:1" result="back"/>
				<feBlend  in="SourceGraphic" in2="back" mode="normal"/>
			</filter>
		</defs>
		<mask maskUnits="userSpaceOnUse" x="0.854" y="71.213" width="48.852" height="7.494" id="SVGID_16_">
			<g filter="url(#Adobe_OpacityMaskFilter_11_)">
			</g>
		</mask>
		
			<radialGradient id="SVGID_17_" cx="196.0645" cy="460.3325" r="30.4409" gradientTransform="matrix(0.8023 0 0 0.1231 -132.0237 18.2927)" gradientUnits="userSpaceOnUse">
			<stop  offset="0" style="stop-color:#4D4D4D"/>
			<stop  offset="0.7903" style="stop-color:#000000"/>
		</radialGradient>
		<ellipse mask="url(#SVGID_16_)" fill="url(#SVGID_17_)" cx="25.279" cy="74.96" rx="24.426" ry="3.747"/>
	</g>
</mask>
<radialGradient id="SVGID_18_" cx="196.0645" cy="460.3325" r="30.4409" gradientTransform="matrix(0.8023 0 0 0.1231 -132.0237 18.2927)" gradientUnits="userSpaceOnUse">
	<stop  offset="0.5394" style="stop-color:#000000"/>
	<stop  offset="1" style="stop-color:#FFFFFF;stop-opacity:0"/>
</radialGradient>
<ellipse opacity="0.4" fill="url(#SVGID_18_)" cx="25.279" cy="74.96" rx="24.426" ry="3.747"/>
</svg>
