<?xml version="1.0" encoding="utf-8"?>
<!-- Generator: Adobe Illustrator 15.1.0, SVG Export Plug-In  -->
<!DOCTYPE svg PUBLIC "-//W3C//DTD SVG 1.1//EN" "http://www.w3.org/Graphics/SVG/1.1/DTD/svg11.dtd" [
	<!ENTITY ns_flows "http://ns.adobe.com/Flows/1.0/">
]>
<svg version="1.1"
	 xmlns="http://www.w3.org/2000/svg" xmlns:xlink="http://www.w3.org/1999/xlink" xmlns:a="http://ns.adobe.com/AdobeSVGViewerExtensions/3.0/"
	 x="0px" y="0px" width="83px" height="71px" viewBox="-6.926 -2.176 83 71" enable-background="new -6.926 -2.176 83 71"
	 xml:space="preserve">
<defs>
</defs>
<path display="none" fill="#72BF00" d="M6.59,23.702c2.868,1.644,6.767,2.945,11.696,3.906c4.929,0.961,10.29,1.441,16.083,1.441
	s11.153-0.48,16.083-1.441c4.929-0.961,8.828-2.263,11.695-3.906c2.869-1.643,4.303-3.426,4.303-5.347v-5.347
	c0-1.922-1.434-3.705-4.303-5.348c-2.867-1.644-6.767-2.945-11.695-3.905c-4.93-0.962-10.29-1.442-16.083-1.442
	s-11.154,0.48-16.083,1.442c-4.93,0.96-8.828,2.262-11.696,3.905c-2.869,1.643-4.303,3.426-4.303,5.348v5.347
	C2.287,20.276,3.721,22.06,6.59,23.702z"/>
<path display="none" fill="#72BF00" d="M34.369,66.479c-6.6,0-12.769-0.6-18.506-1.797c-5.736-1.198-10.262-2.967-13.576-5.305
	v7.102c0,1.921,1.434,3.704,4.303,5.346c2.868,1.645,6.767,2.946,11.696,3.907c4.929,0.961,10.29,1.441,16.083,1.441
	s11.153-0.48,16.083-1.441c2.921-0.57,5.472-1.262,7.67-2.072l-6.635-8.729C46.141,65.946,40.447,66.479,34.369,66.479z"/>
<path display="none" fill="#72BF00" d="M6.59,39.743c2.868,1.644,6.767,2.945,11.696,3.906c4.929,0.961,10.29,1.441,16.083,1.441
	s11.153-0.48,16.083-1.441c4.929-0.961,8.828-2.263,11.695-3.906c2.869-1.643,4.303-3.424,4.303-5.347v-7.102
	c-3.314,2.339-7.839,4.107-13.575,5.306c-5.737,1.197-11.906,1.796-18.506,1.796s-12.769-0.599-18.506-1.796
	c-5.736-1.198-10.262-2.967-13.576-5.306v7.102C2.287,36.319,3.721,38.101,6.59,39.743z"/>
<path display="none" fill="#72BF00" d="M6.59,55.784c2.868,1.643,6.767,2.945,11.696,3.905c4.929,0.962,10.29,1.442,16.083,1.442
	s11.153-0.48,16.083-1.442c3.224-0.628,5.999-1.405,8.343-2.326V47.061c-1.805,0.606-3.777,1.134-5.92,1.581
	c-5.737,1.197-11.906,1.796-18.506,1.796s-12.769-0.599-18.506-1.796c-5.736-1.197-10.262-2.967-13.576-5.305v7.101
	C2.287,52.358,3.721,54.142,6.59,55.784z"/>
<polygon display="none" fill="#72BF00" points="75.185,62.612 75.185,43.73 61.794,43.73 61.794,62.612 53.493,62.612 
	60.991,72.479 68.489,82.343 75.987,72.479 83.485,62.612 "/>
<circle display="none" fill="#009999" cx="13.628" cy="13.654" r="10.341"/>
<path display="none" fill="#FFFFFF" d="M13.628,24.994c-6.253,0-11.341-5.087-11.341-11.34s5.088-11.34,11.341-11.34
	s11.341,5.087,11.341,11.34S19.881,24.994,13.628,24.994z M13.628,4.313c-5.15,0-9.341,4.19-9.341,9.34s4.19,9.34,9.341,9.34
	s9.341-4.19,9.341-9.34S18.778,4.313,13.628,4.313z"/>
<polygon display="none" fill="#FFFFFF" points="12.027,17.613 8.126,13.713 9.54,12.299 12.027,14.785 16.996,9.816 18.41,11.23 "/>
<circle display="none" fill="#FF0000" cx="13.628" cy="13.654" r="10.341"/>
<path display="none" fill="#FFFFFF" d="M13.628,24.994c-6.253,0-11.341-5.087-11.341-11.34s5.088-11.34,11.341-11.34
	s11.341,5.087,11.341,11.34S19.881,24.994,13.628,24.994z M13.628,4.313c-5.15,0-9.341,4.19-9.341,9.34s4.19,9.34,9.341,9.34
	s9.341-4.19,9.341-9.34S18.778,4.313,13.628,4.313z"/>
<rect x="12.633" y="9.213" display="none" fill="#FFFFFF" width="1.99" height="7.413"/>
<rect x="12.633" y="17.613" display="none" fill="#FFFFFF" width="1.99" height="2.033"/>
<g display="none">
	<path display="inline" fill="#343434" d="M39.773,14.013c-1,0-1.809,0.81-1.809,1.81v29.42c0,1,0.809,1.811,1.809,1.811
		s1.811-0.811,1.811-1.811v-29.42C41.584,14.822,40.773,14.013,39.773,14.013L39.773,14.013z"/>
</g>
<g display="none">
	<path display="inline" fill="#343434" d="M14.385,25.633v10.26H7.934v-10.26H14.385 M16.385,23.633H7.934c-1.1,0-2,0.89-2,2v10.26
		c0,1.1,0.9,2,2,2h8.451V23.633L16.385,23.633z"/>
</g>
<g display="none">
	<path display="inline" fill="#343434" d="M35.965,20.998v19.288c-4.481-2.854-10.729-3.795-14.17-4.314l-0.372-0.056l-0.149-0.022
		h-0.15h-2.738v-10.26h3.1h0.157l0.155-0.024C24.428,25.193,31.178,24.126,35.965,20.998 M37.965,16.402
		c-3.281,4.91-12.301,6.57-16.48,7.23h-5.1v14.26h4.738c3.951,0.6,13.461,1.89,16.842,6.96V16.402L37.965,16.402z"/>
</g>
<g display="none">
	<path display="inline" fill="#343434" d="M12.606,38.451l3.416,12.541h-2.029l-3.229-12.541H12.606 M14.135,36.451H8.184
		l4.26,16.541h5.59v-2.229L14.135,36.451L14.135,36.451z"/>
</g>
<path display="none" fill="#343434" d="M43.385,43.053v-3c5.449,0,9.879-4.431,9.879-9.87c0-5.45-4.43-9.88-9.879-9.88v-3
	c7.1,0,12.879,5.779,12.879,12.88C56.264,37.282,50.484,43.053,43.385,43.053z"/>
<path display="none" fill="#343434" d="M43.385,37.553v-3c2.42,0,4.379-1.96,4.379-4.37c0-2.42-1.959-4.38-4.379-4.38v-3
	c4.068,0,7.379,3.31,7.379,7.38C50.764,34.242,47.453,37.553,43.385,37.553z"/>
<path display="none" fill="#F27057" d="M41.591,45.246c0,1-0.811,1.811-1.811,1.811s-1.81-0.811-1.81-1.811v-29.42
	c0-1,0.81-1.81,1.81-1.81s1.811,0.81,1.811,1.81V45.246z"/>
<path display="none" fill="#F26F59" d="M7.94,23.637c-1.1,0-2,0.89-2,2v10.26c0,1.1,0.9,2,2,2h8.45v-14.26H7.94z"/>
<path display="none" fill="#EDEDF3" d="M21.491,23.637h-5.101v14.26h4.739c3.951,0.6,13.461,1.89,16.841,6.959V16.406
	C34.69,21.316,25.671,22.977,21.491,23.637z"/>
<polygon display="none" fill="#6D7587" points="8.521,37.896 12.45,52.996 18.04,52.996 18.04,50.767 14.471,37.896 "/>
<path display="none" fill="#6D7587" d="M43.391,43.057v-3c5.45,0,9.88-4.431,9.88-9.87c0-5.45-4.43-9.88-9.88-9.88v-3
	c7.101,0,12.881,5.779,12.881,12.88C56.271,37.286,50.491,43.057,43.391,43.057z"/>
<path display="none" fill="#6D7587" d="M43.391,37.557v-3c2.42,0,4.38-1.961,4.38-4.37c0-2.42-1.96-4.38-4.38-4.38v-3
	c4.069,0,7.38,3.31,7.38,7.38C50.771,34.246,47.46,37.557,43.391,37.557z"/>
<g display="none">
	<path display="inline" fill="#343434" d="M39.775,14.013c-1,0-1.81,0.81-1.81,1.81v29.42c0,1,0.81,1.811,1.81,1.811
		s1.811-0.811,1.811-1.811v-29.42C41.586,14.822,40.775,14.013,39.775,14.013L39.775,14.013z"/>
</g>
<g display="none">
	<path display="inline" fill="#343434" d="M14.386,25.633v10.26h-6.45v-10.26H14.386 M16.386,23.633h-8.45c-1.1,0-2,0.89-2,2v10.26
		c0,1.1,0.9,2,2,2h8.45V23.633L16.386,23.633z"/>
</g>
<g display="none">
	<path display="inline" fill="#343434" d="M35.966,20.998v19.288c-4.48-2.854-10.728-3.795-14.169-4.314l-0.372-0.056l-0.149-0.022
		h-0.15h-2.739v-10.26h3.101h0.157l0.155-0.024C24.43,25.193,31.18,24.127,35.966,20.998 M37.966,16.402
		c-3.28,4.91-12.3,6.57-16.479,7.23h-5.101v14.26h4.739c3.951,0.6,13.461,1.89,16.841,6.96V16.402L37.966,16.402z"/>
</g>
<g display="none">
	<path display="inline" fill="#343434" d="M12.607,38.451l3.417,12.541h-2.029l-3.229-12.541H12.607 M14.136,36.451h-5.95
		l4.26,16.541h5.59v-2.229L14.136,36.451L14.136,36.451z"/>
</g>
<path display="none" fill="#343434" d="M43.386,43.053v-3c5.45,0,9.88-4.431,9.88-9.87c0-5.45-4.43-9.88-9.88-9.88v-3
	c7.101,0,12.88,5.779,12.88,12.88C56.266,37.282,50.486,43.053,43.386,43.053z"/>
<path display="none" fill="#343434" d="M43.386,37.553v-3c2.42,0,4.38-1.96,4.38-4.37c0-2.42-1.96-4.38-4.38-4.38v-3
	c4.069,0,7.38,3.31,7.38,7.38C50.766,34.242,47.455,37.553,43.386,37.553z"/>
<circle display="none" fill="#009999" cx="50.538" cy="15.686" r="10.341"/>
<path display="none" fill="#FFFFFF" d="M50.537,27.026c-6.253,0-11.341-5.088-11.341-11.341s5.088-11.34,11.341-11.34
	s11.342,5.087,11.342,11.34S56.79,27.026,50.537,27.026z M50.537,6.346c-5.15,0-9.341,4.189-9.341,9.34s4.19,9.341,9.341,9.341
	s9.341-4.19,9.341-9.341S55.688,6.346,50.537,6.346z"/>
<polygon display="none" fill="#FFFFFF" points="48.937,19.646 45.035,15.745 46.449,14.331 48.937,16.817 53.905,11.849 
	55.319,13.263 "/>
<g display="none">
	<path display="inline" fill="#343434" d="M39.791,14.013c-1,0-1.81,0.81-1.81,1.81v29.42c0,1,0.81,1.811,1.81,1.811
		s1.811-0.811,1.811-1.811v-29.42C41.602,14.822,40.791,14.013,39.791,14.013L39.791,14.013z"/>
</g>
<g display="none">
	<path display="inline" fill="#343434" d="M14.401,25.633v10.26h-6.45v-10.26H14.401 M16.401,23.633h-8.45c-1.1,0-2,0.89-2,2v10.26
		c0,1.1,0.9,2,2,2h8.45V23.633L16.401,23.633z"/>
</g>
<g display="none">
	<path display="inline" fill="#343434" d="M35.981,20.998v19.288c-4.48-2.854-10.728-3.795-14.169-4.314l-0.372-0.056l-0.149-0.022
		h-0.15h-2.739v-10.26h3.101h0.157l0.155-0.024C24.445,25.193,31.195,24.127,35.981,20.998 M37.981,16.402
		c-3.28,4.91-12.3,6.57-16.479,7.23h-5.101v14.26h4.739c3.951,0.6,13.461,1.89,16.841,6.96V16.402L37.981,16.402z"/>
</g>
<g display="none">
	<path display="inline" fill="#343434" d="M12.623,38.451l3.417,12.541h-2.029l-3.229-12.541H12.623 M14.151,36.451h-5.95
		l4.26,16.541h5.59v-2.229L14.151,36.451L14.151,36.451z"/>
</g>
<path display="none" fill="#343434" d="M43.401,43.053v-3c5.45,0,9.88-4.431,9.88-9.87c0-5.45-4.43-9.88-9.88-9.88v-3
	c7.101,0,12.88,5.779,12.88,12.88C56.281,37.282,50.502,43.053,43.401,43.053z"/>
<path display="none" fill="#343434" d="M43.401,37.553v-3c2.42,0,4.38-1.96,4.38-4.37c0-2.42-1.96-4.38-4.38-4.38v-3
	c4.069,0,7.38,3.31,7.38,7.38C50.781,34.242,47.471,37.553,43.401,37.553z"/>
<circle display="none" fill="#FF0000" cx="50.538" cy="15.687" r="10.341"/>
<path display="none" fill="#FFFFFF" d="M50.537,27.026c-6.253,0-11.341-5.087-11.341-11.34S44.284,4.346,50.537,4.346
	s11.342,5.088,11.342,11.341S56.79,27.026,50.537,27.026z M50.537,6.346c-5.15,0-9.341,4.19-9.341,9.341s4.19,9.34,9.341,9.34
	s9.341-4.189,9.341-9.34S55.688,6.346,50.537,6.346z"/>
<rect x="49.542" y="11.246" display="none" fill="#FFFFFF" width="1.99" height="7.413"/>
<rect x="49.542" y="19.646" display="none" fill="#FFFFFF" width="1.99" height="2.033"/>
<rect x="32.059" y="28.131" display="none" fill="#343434" width="24.318" height="2.274"/>
<rect x="36.224" y="33.918" display="none" fill="#343434" width="20.153" height="2.274"/>
<rect x="32.059" y="39.705" display="none" fill="#343434" width="24.318" height="2.273"/>
<path display="none" fill="#343434" d="M58.598,50.483H18.701c-1.66,0-3.011-1.35-3.011-3.01v-5.601h2.274v5.601
	c0,0.406,0.329,0.736,0.736,0.736h39.896c0.406,0,0.736-0.331,0.736-0.736V13.605c0-0.406-0.33-0.736-0.736-0.736H18.701
	c-0.407,0-0.736,0.331-0.736,0.736V28.94H15.69V13.605c0-1.66,1.351-3.01,3.011-3.01h39.896c1.66,0,3.011,1.35,3.011,3.01v33.869
	C61.608,49.134,60.258,50.483,58.598,50.483z"/>
<rect x="16.828" y="20.481" display="none" fill="#343434" width="43.643" height="2.274"/>
<circle display="none" fill="#343434" cx="22.193" cy="16.494" r="1.869"/>
<circle display="none" fill="#343434" cx="29.208" cy="16.494" r="1.869"/>
<circle display="none" fill="#343434" cx="36.225" cy="16.494" r="1.869"/>
<path display="none" fill="#343434" d="M22.946,44.965v-5.771H8.165V31.41h14.781v-5.772l9.665,9.665L22.946,44.965z M10.439,36.921
	h14.781v2.556l4.176-4.174l-4.176-4.175v2.557H10.439V36.921z"/>
<rect x="32.027" y="28.131" display="none" fill="#343434" width="24.318" height="2.274"/>
<rect x="36.192" y="33.918" display="none" fill="#343434" width="20.153" height="2.274"/>
<rect x="32.027" y="39.706" display="none" fill="#343434" width="24.318" height="2.273"/>
<path display="none" fill="#343434" d="M58.566,50.483H18.67c-1.66,0-3.011-1.35-3.011-3.01v-5.601h2.274v5.601
	c0,0.406,0.329,0.736,0.736,0.736h39.896c0.406,0,0.736-0.33,0.736-0.736V13.605c0-0.406-0.33-0.736-0.736-0.736H18.67
	c-0.407,0-0.736,0.331-0.736,0.736V28.94h-2.274V13.605c0-1.66,1.351-3.01,3.011-3.01h39.896c1.66,0,3.01,1.35,3.01,3.01v33.868
	C61.576,49.134,60.227,50.483,58.566,50.483z"/>
<rect x="16.797" y="20.481" display="none" fill="#343434" width="43.643" height="2.274"/>
<circle display="none" fill="#343434" cx="22.162" cy="16.495" r="1.869"/>
<circle display="none" fill="#343434" cx="29.177" cy="16.495" r="1.869"/>
<circle display="none" fill="#343434" cx="36.194" cy="16.495" r="1.869"/>
<path display="none" fill="#343434" d="M22.915,44.965v-5.771H8.134V31.41h14.781v-5.772l9.665,9.665L22.915,44.965z M10.408,36.921
	h14.781v2.556l4.176-4.174l-4.176-4.175v2.557H10.408V36.921z"/>
<circle display="none" fill="#009999" cx="61.898" cy="11.83" r="10.341"/>
<path display="none" fill="#FFFFFF" d="M61.898,23.17c-6.253,0-11.341-5.087-11.341-11.34S55.646,0.49,61.898,0.49
	s11.341,5.087,11.341,11.34S68.151,23.17,61.898,23.17z M61.898,2.49c-5.15,0-9.341,4.19-9.341,9.34s4.19,9.34,9.341,9.34
	s9.341-4.19,9.341-9.34S67.049,2.49,61.898,2.49z"/>
<polygon display="none" fill="#FFFFFF" points="60.298,15.79 56.396,11.889 57.811,10.475 60.298,12.961 65.267,7.993 66.681,9.407 
	"/>
<rect x="32.027" y="28.131" display="none" fill="#343434" width="24.318" height="2.273"/>
<rect x="36.192" y="33.918" display="none" fill="#343434" width="20.153" height="2.273"/>
<rect x="32.027" y="39.705" display="none" fill="#343434" width="24.318" height="2.273"/>
<path display="none" fill="#343434" d="M58.566,50.483H18.67c-1.66,0-3.011-1.35-3.011-3.01v-5.602h2.274v5.602
	c0,0.405,0.329,0.736,0.736,0.736h39.896c0.406,0,0.736-0.331,0.736-0.736V13.604c0-0.405-0.33-0.736-0.736-0.736H18.67
	c-0.407,0-0.736,0.331-0.736,0.736v15.335h-2.274V13.604c0-1.66,1.351-3.01,3.011-3.01h39.896c1.66,0,3.01,1.35,3.01,3.01v33.869
	C61.576,49.134,60.227,50.483,58.566,50.483z"/>
<rect x="16.797" y="20.48" display="none" fill="#343434" width="43.643" height="2.274"/>
<circle display="none" fill="#343434" cx="22.162" cy="16.494" r="1.869"/>
<circle display="none" fill="#343434" cx="29.177" cy="16.494" r="1.869"/>
<circle display="none" fill="#343434" cx="36.194" cy="16.494" r="1.869"/>
<path display="none" fill="#343434" d="M22.915,44.965v-5.771H8.134v-7.785h14.781v-5.771l9.665,9.664L22.915,44.965z
	 M10.408,36.921h14.781v2.556l4.176-4.175l-4.176-4.175v2.557H10.408V36.921z"/>
<circle display="none" fill="#FF0000" cx="61.898" cy="11.341" r="10.341"/>
<path display="none" fill="#FFFFFF" d="M61.898,22.681c-6.253,0-11.341-5.087-11.341-11.34S55.646,0,61.898,0
	s11.341,5.088,11.341,11.341S68.151,22.681,61.898,22.681z M61.898,2c-5.15,0-9.341,4.19-9.341,9.341s4.19,9.34,9.341,9.34
	s9.341-4.189,9.341-9.34S67.049,2,61.898,2z"/>
<rect x="60.903" y="6.9" display="none" fill="#FFFFFF" width="1.99" height="7.413"/>
<rect x="60.903" y="15.3" display="none" fill="#FFFFFF" width="1.99" height="2.033"/>
<path display="none" fill="#7A7C7C" d="M58.598,10.595H18.701c-1.66,0-3.011,1.351-3.011,3.011v5.876v2.274h2.274h41.369h2.273
	v-2.274v-5.876C61.607,11.945,60.258,10.595,58.598,10.595z"/>
<path display="none" fill="#EDEDF3" d="M60.378,21.756h-1.044H15.69v20.117v3.093v2.508c0,1.661,1.351,3.011,3.011,3.011h39.896
	c1.66,0,3.01-1.35,3.01-3.011V21.756H60.378z"/>
<rect x="32.059" y="28.132" display="none" fill="#7A7C7C" width="24.318" height="2.273"/>
<rect x="36.224" y="33.919" display="none" fill="#7A7C7C" width="20.153" height="2.273"/>
<rect x="32.059" y="39.706" display="none" fill="#7A7C7C" width="24.318" height="2.273"/>
<circle display="none" fill="#F8D84A" cx="22.193" cy="16.495" r="1.869"/>
<circle display="none" fill="#ED5145" cx="29.208" cy="16.495" r="1.869"/>
<circle display="none" fill="#4BBE86" cx="36.225" cy="16.495" r="1.869"/>
<path display="none" fill="#37B0E5" d="M22.946,44.966v-5.771H8.165V31.41h14.781v-5.771l9.665,9.664L22.946,44.966z"/>
<defs>
	<filter id="Adobe_OpacityMaskFilter" filterUnits="userSpaceOnUse" x="14.224" y="59.552" width="48.852" height="7.494">
		<feFlood  style="flood-color:white;flood-opacity:1" result="back"/>
		<feBlend  in="SourceGraphic" in2="back" mode="normal"/>
	</filter>
</defs>
<mask maskUnits="userSpaceOnUse" x="14.224" y="59.552" width="48.852" height="7.494" id="SVGID_1_">
	<g filter="url(#Adobe_OpacityMaskFilter)">
		<defs>
			<filter id="Adobe_OpacityMaskFilter_1_" filterUnits="userSpaceOnUse" x="14.224" y="59.552" width="48.852" height="7.494">
				<feFlood  style="flood-color:white;flood-opacity:1" result="back"/>
				<feBlend  in="SourceGraphic" in2="back" mode="normal"/>
			</filter>
		</defs>
		<mask maskUnits="userSpaceOnUse" x="14.224" y="59.552" width="48.852" height="7.494" id="SVGID_1_">
			<g filter="url(#Adobe_OpacityMaskFilter_1_)">
			</g>
		</mask>
		
			<radialGradient id="SVGID_2_" cx="212.9395" cy="398.6421" r="30.4419" gradientTransform="matrix(0.8023 0 0 0.1231 -132.1924 14.2259)" gradientUnits="userSpaceOnUse">
			<stop  offset="0" style="stop-color:#4D4D4D"/>
			<stop  offset="0.7903" style="stop-color:#000000"/>
		</radialGradient>
		<ellipse mask="url(#SVGID_1_)" fill="url(#SVGID_2_)" cx="38.649" cy="63.299" rx="24.426" ry="3.747"/>
	</g>
</mask>
<radialGradient id="SVGID_3_" cx="212.9395" cy="398.6421" r="30.4419" gradientTransform="matrix(0.8023 0 0 0.1231 -132.1924 14.2259)" gradientUnits="userSpaceOnUse">
	<stop  offset="0.5394" style="stop-color:#000000"/>
	<stop  offset="1" style="stop-color:#FFFFFF;stop-opacity:0"/>
</radialGradient>
<ellipse display="none" opacity="0.4" fill="url(#SVGID_3_)" cx="38.649" cy="63.299" rx="24.426" ry="3.747"/>
<rect x="11.519" y="15.934" display="none" fill="#B9E0CD" width="33.835" height="20.336"/>
<path display="none" fill="#4CBC86" d="M45.354,15.934H11.519V36.27h33.835V15.934z M43.354,21.025
	c-1.434-0.479-2.547-1.633-2.969-3.092h2.969V21.025z M38.309,34.27H18.737c-0.516-2.63-2.59-4.705-5.219-5.222v-5.893
	c2.629-0.517,4.704-2.592,5.22-5.222h19.57c0.504,2.571,2.499,4.609,5.045,5.184v5.969C40.809,29.66,38.813,31.698,38.309,34.27z
	 M16.662,17.934c-0.439,1.518-1.627,2.705-3.144,3.146v-3.146H16.662z M13.519,31.123c1.517,0.441,2.704,1.629,3.144,3.146h-3.144
	V31.123z M40.385,34.27c0.422-1.459,1.535-2.612,2.969-3.092v3.092H40.385z"/>
<path display="none" fill="#4CBC86" d="M28.646,18.795c-2.622,0-4.676,3.148-4.676,7.169s2.054,7.169,4.676,7.169
	c2.623,0,4.677-3.148,4.677-7.169S31.27,18.795,28.646,18.795z M28.646,31.133c-1.266,0-2.676-2.123-2.676-5.169
	s1.41-5.169,2.676-5.169s2.677,2.123,2.677,5.169S29.912,31.133,28.646,31.133z"/>
<path display="none" fill="#4CBC86" d="M37.506,22.99c-1.586,0-2.876,1.379-2.876,3.073s1.29,3.072,2.876,3.072
	c1.585,0,2.875-1.378,2.875-3.072S39.091,22.99,37.506,22.99z M37.506,27.136c-0.483,0-0.876-0.481-0.876-1.072
	c0-0.592,0.393-1.073,0.876-1.073c0.482,0,0.875,0.481,0.875,1.073C38.381,26.654,37.988,27.136,37.506,27.136z"/>
<path display="none" fill="#4CBC86" d="M19.931,22.99c-1.585,0-2.875,1.379-2.875,3.073s1.29,3.072,2.875,3.072
	s2.876-1.378,2.876-3.072S21.516,22.99,19.931,22.99z M19.931,27.136c-0.482,0-0.875-0.481-0.875-1.072
	c0-0.592,0.393-1.073,0.875-1.073c0.483,0,0.876,0.481,0.876,1.073C20.807,26.654,20.414,27.136,19.931,27.136z"/>
<path display="none" fill="#F8C89E" d="M48.496,41.294c-0.061-0.078-1.516-1.907-3.842-1.907c-0.996,0-1.986,0.334-2.944,0.993
	c-2.837,1.955-7.569,6.626-8.806,7.864h-8.541c-0.209-0.077-0.482-0.271-0.482-0.763c0-0.138,0-0.345,0.576-0.345l0.116,0.004
	l5.938-0.004c1.195-0.099,3.456-0.98,3.456-3.605c0-2.608-2.34-3.545-3.576-3.675l-6.805-0.005c-1.049,0-2.019-0.193-3.045-0.398
	c-1.029-0.205-2.093-0.418-3.232-0.418c-2.391,0-5.961,1.141-8.16,4.354c-2.359,3.448-5.83,5.774-5.864,5.798l-0.997,0.663
	l9.988,10.397l3.23-3.725l18.283,0.07l15.264-14.586L48.496,41.294z"/>
<defs>
	<filter id="Adobe_OpacityMaskFilter_2_" filterUnits="userSpaceOnUse" x="1.244" y="67.219" width="48.852" height="7.494">
		<feFlood  style="flood-color:white;flood-opacity:1" result="back"/>
		<feBlend  in="SourceGraphic" in2="back" mode="normal"/>
	</filter>
</defs>
<mask maskUnits="userSpaceOnUse" x="1.244" y="67.219" width="48.852" height="7.494" id="SVGID_4_">
	<g filter="url(#Adobe_OpacityMaskFilter_2_)">
		<defs>
			<filter id="Adobe_OpacityMaskFilter_3_" filterUnits="userSpaceOnUse" x="1.244" y="67.219" width="48.852" height="7.494">
				<feFlood  style="flood-color:white;flood-opacity:1" result="back"/>
				<feBlend  in="SourceGraphic" in2="back" mode="normal"/>
			</filter>
		</defs>
		<mask maskUnits="userSpaceOnUse" x="1.244" y="67.219" width="48.852" height="7.494" id="SVGID_4_">
			<g filter="url(#Adobe_OpacityMaskFilter_3_)">
			</g>
		</mask>
		
			<radialGradient id="SVGID_5_" cx="196.7617" cy="460.9224" r="30.4414" gradientTransform="matrix(0.8023 0 0 0.1231 -132.1924 14.2259)" gradientUnits="userSpaceOnUse">
			<stop  offset="0" style="stop-color:#4D4D4D"/>
			<stop  offset="0.7903" style="stop-color:#000000"/>
		</radialGradient>
		<ellipse mask="url(#SVGID_4_)" fill="url(#SVGID_5_)" cx="25.67" cy="70.966" rx="24.426" ry="3.747"/>
	</g>
</mask>
<radialGradient id="SVGID_6_" cx="196.7617" cy="460.9224" r="30.4414" gradientTransform="matrix(0.8023 0 0 0.1231 -132.1924 14.2259)" gradientUnits="userSpaceOnUse">
	<stop  offset="0.5394" style="stop-color:#000000"/>
	<stop  offset="1" style="stop-color:#FFFFFF;stop-opacity:0"/>
</radialGradient>
<ellipse display="none" opacity="0.4" fill="url(#SVGID_6_)" cx="25.67" cy="70.966" rx="24.426" ry="3.747"/>
<path display="none" fill="#343434" d="M45.354,15.934H11.519V36.27h33.835V15.934z M43.354,21.025
	c-1.434-0.479-2.546-1.633-2.969-3.092h2.969V21.025z M38.309,34.27H18.737c-0.516-2.63-2.59-4.705-5.219-5.222v-5.892
	c2.629-0.518,4.704-2.593,5.22-5.223h19.57c0.505,2.571,2.499,4.61,5.045,5.184v5.97C40.809,29.66,38.813,31.698,38.309,34.27z
	 M16.662,17.934c-0.439,1.519-1.626,2.705-3.144,3.146v-3.146H16.662z M13.519,31.124c1.518,0.44,2.704,1.628,3.144,3.146h-3.144
	V31.124z M40.385,34.27c0.423-1.459,1.535-2.612,2.969-3.092v3.092H40.385z"/>
<path display="none" fill="#343434" d="M28.647,18.795c-2.623,0-4.677,3.149-4.677,7.169c0,4.021,2.054,7.169,4.677,7.169
	c2.622,0,4.676-3.148,4.676-7.169C33.323,21.944,31.27,18.795,28.647,18.795z M28.647,31.133c-1.267,0-2.677-2.123-2.677-5.169
	s1.41-5.169,2.677-5.169c1.266,0,2.676,2.123,2.676,5.169S29.913,31.133,28.647,31.133z"/>
<path display="none" fill="#343434" d="M37.506,22.99c-1.586,0-2.876,1.379-2.876,3.073s1.29,3.072,2.876,3.072
	c1.585,0,2.875-1.378,2.875-3.072S39.091,22.99,37.506,22.99z M37.506,27.136c-0.483,0-0.876-0.481-0.876-1.072
	c0-0.592,0.393-1.073,0.876-1.073c0.482,0,0.875,0.481,0.875,1.073C38.381,26.654,37.988,27.136,37.506,27.136z"/>
<path display="none" fill="#343434" d="M19.931,22.99c-1.585,0-2.875,1.379-2.875,3.073s1.29,3.072,2.875,3.072
	c1.586,0,2.876-1.378,2.876-3.072S21.517,22.99,19.931,22.99z M19.931,27.136c-0.482,0-0.875-0.481-0.875-1.072
	c0-0.592,0.393-1.073,0.875-1.073c0.483,0,0.876,0.481,0.876,1.073C20.807,26.654,20.414,27.136,19.931,27.136z"/>
<path display="none" fill="#343434" d="M48.497,41.294c-0.062-0.078-1.517-1.907-3.842-1.907c-0.997,0-1.987,0.334-2.945,0.993
	c-2.837,1.955-7.568,6.627-8.806,7.864h-8.541c-0.209-0.077-0.482-0.271-0.482-0.763c0-0.137,0-0.344,0.577-0.344l0.115,0.003
	l5.938-0.003c1.195-0.1,3.456-0.981,3.456-3.606c0-2.608-2.339-3.544-3.576-3.675l-6.805-0.005c-1.048,0-2.019-0.193-3.045-0.398
	c-1.029-0.205-2.093-0.417-3.232-0.417c-2.39,0-5.961,1.14-8.16,4.354c-2.359,3.448-5.829,5.774-5.864,5.798l-0.997,0.663
	l9.988,10.398l3.23-3.725l18.283,0.069l15.264-14.586L48.497,41.294z M32.99,54.591l-18.395-0.07L12.2,57.284l-6.847-7.129
	c1.294-0.994,3.635-2.99,5.445-5.636c1.76-2.571,4.606-3.483,6.51-3.483c0.942,0,1.864,0.184,2.841,0.378
	c1.077,0.215,2.191,0.438,3.437,0.438h6.636c0.32,0.047,1.745,0.332,1.745,1.68c0,1.382-1.357,1.587-1.539,1.609l-5.771,0.004
	c0,0-0.074-0.007-0.198-0.007c-1.542,0-2.577,0.941-2.577,2.344c0,1.813,1.396,2.586,2.135,2.741l9.722,0.021l0.294-0.297
	c0.057-0.058,5.753-5.812,8.813-7.92c0.617-0.425,1.227-0.641,1.811-0.641c0.645,0,1.194,0.264,1.59,0.538L32.99,54.591z"/>
<circle display="none" fill="#009999" cx="44.743" cy="15.008" r="10.341"/>
<path display="none" fill="#FFFFFF" d="M44.743,26.349c-6.253,0-11.341-5.088-11.341-11.341s5.088-11.34,11.341-11.34
	s11.341,5.087,11.341,11.34S50.996,26.349,44.743,26.349z M44.743,5.668c-5.15,0-9.341,4.189-9.341,9.34s4.19,9.341,9.341,9.341
	s9.341-4.19,9.341-9.341S49.894,5.668,44.743,5.668z"/>
<polygon display="none" fill="#FFFFFF" points="43.143,18.968 39.241,15.067 40.655,13.653 43.143,16.14 48.111,11.171 
	49.525,12.585 "/>
<path display="none" fill="#343434" d="M45.354,15.934H11.519V36.27h33.835V15.934z M43.354,21.025
	c-1.434-0.479-2.546-1.633-2.969-3.092h2.969V21.025z M38.309,34.27H18.737c-0.516-2.63-2.59-4.705-5.219-5.222v-5.892
	c2.629-0.518,4.704-2.593,5.22-5.223h19.57c0.505,2.571,2.499,4.61,5.045,5.184v5.97C40.809,29.66,38.813,31.698,38.309,34.27z
	 M16.662,17.934c-0.439,1.519-1.626,2.705-3.144,3.146v-3.146H16.662z M13.519,31.124c1.518,0.44,2.704,1.628,3.144,3.146h-3.144
	V31.124z M40.385,34.27c0.423-1.459,1.535-2.612,2.969-3.092v3.092H40.385z"/>
<path display="none" fill="#343434" d="M28.647,18.795c-2.623,0-4.677,3.149-4.677,7.169c0,4.021,2.054,7.169,4.677,7.169
	c2.622,0,4.676-3.148,4.676-7.169C33.323,21.944,31.27,18.795,28.647,18.795z M28.647,31.133c-1.267,0-2.677-2.123-2.677-5.169
	s1.41-5.169,2.677-5.169c1.266,0,2.676,2.123,2.676,5.169S29.913,31.133,28.647,31.133z"/>
<path display="none" fill="#343434" d="M37.506,22.99c-1.586,0-2.876,1.379-2.876,3.073s1.29,3.072,2.876,3.072
	c1.585,0,2.875-1.378,2.875-3.072S39.091,22.99,37.506,22.99z M37.506,27.136c-0.483,0-0.876-0.481-0.876-1.072
	c0-0.592,0.393-1.073,0.876-1.073c0.482,0,0.875,0.481,0.875,1.073C38.381,26.654,37.988,27.136,37.506,27.136z"/>
<path display="none" fill="#343434" d="M19.931,22.99c-1.585,0-2.875,1.379-2.875,3.073s1.29,3.072,2.875,3.072
	c1.586,0,2.876-1.378,2.876-3.072S21.517,22.99,19.931,22.99z M19.931,27.136c-0.482,0-0.875-0.481-0.875-1.072
	c0-0.592,0.393-1.073,0.875-1.073c0.483,0,0.876,0.481,0.876,1.073C20.807,26.654,20.414,27.136,19.931,27.136z"/>
<path display="none" fill="#343434" d="M48.497,41.294c-0.062-0.078-1.517-1.907-3.842-1.907c-0.997,0-1.987,0.334-2.945,0.993
	c-2.837,1.955-7.568,6.627-8.806,7.864h-8.541c-0.209-0.077-0.482-0.271-0.482-0.763c0-0.137,0-0.344,0.577-0.344l0.115,0.003
	l5.938-0.003c1.195-0.1,3.456-0.981,3.456-3.606c0-2.608-2.339-3.544-3.576-3.675l-6.805-0.005c-1.048,0-2.019-0.193-3.045-0.398
	c-1.029-0.205-2.093-0.417-3.232-0.417c-2.39,0-5.961,1.14-8.16,4.354c-2.359,3.448-5.829,5.774-5.864,5.798l-0.997,0.663
	l9.988,10.398l3.23-3.725l18.283,0.069l15.264-14.586L48.497,41.294z M32.99,54.591l-18.395-0.07L12.2,57.284l-6.847-7.129
	c1.294-0.994,3.635-2.99,5.445-5.636c1.76-2.571,4.606-3.483,6.51-3.483c0.942,0,1.864,0.184,2.841,0.378
	c1.077,0.215,2.191,0.438,3.437,0.438h6.636c0.32,0.047,1.745,0.332,1.745,1.68c0,1.382-1.357,1.587-1.539,1.609l-5.771,0.004
	c0,0-0.074-0.007-0.198-0.007c-1.542,0-2.577,0.941-2.577,2.344c0,1.813,1.396,2.586,2.135,2.741l9.722,0.021l0.294-0.297
	c0.057-0.058,5.753-5.812,8.813-7.92c0.617-0.425,1.227-0.641,1.811-0.641c0.645,0,1.194,0.264,1.59,0.538L32.99,54.591z"/>
<circle display="none" fill="#FF0000" cx="44.743" cy="15.009" r="10.341"/>
<path display="none" fill="#FFFFFF" d="M44.743,26.349c-6.253,0-11.341-5.087-11.341-11.34S38.49,3.668,44.743,3.668
	s11.341,5.088,11.341,11.341S50.996,26.349,44.743,26.349z M44.743,5.668c-5.15,0-9.341,4.19-9.341,9.341s4.19,9.34,9.341,9.34
	s9.341-4.189,9.341-9.34S49.894,5.668,44.743,5.668z"/>
<rect x="43.748" y="10.568" display="none" fill="#FFFFFF" width="1.99" height="7.413"/>
<rect x="43.748" y="18.968" display="none" fill="#FFFFFF" width="1.99" height="2.033"/>
<path display="none" fill="#343434" d="M45.354,15.934H11.519V36.27h33.835V15.934z M43.354,21.025
	c-1.434-0.479-2.546-1.633-2.969-3.092h2.969V21.025z M38.309,34.27H18.737c-0.516-2.63-2.59-4.705-5.219-5.222v-5.892
	c2.629-0.518,4.704-2.593,5.22-5.223h19.57c0.505,2.571,2.499,4.61,5.045,5.184v5.97C40.809,29.66,38.813,31.698,38.309,34.27z
	 M16.662,17.934c-0.439,1.519-1.626,2.705-3.144,3.146v-3.146H16.662z M13.519,31.124c1.518,0.44,2.704,1.628,3.144,3.146h-3.144
	V31.124z M40.385,34.27c0.423-1.459,1.535-2.612,2.969-3.092v3.092H40.385z"/>
<path display="none" fill="#343434" d="M28.647,18.795c-2.623,0-4.677,3.149-4.677,7.169c0,4.021,2.054,7.169,4.677,7.169
	c2.622,0,4.676-3.148,4.676-7.169C33.323,21.944,31.27,18.795,28.647,18.795z M28.647,31.133c-1.267,0-2.677-2.123-2.677-5.169
	s1.41-5.169,2.677-5.169c1.266,0,2.676,2.123,2.676,5.169S29.913,31.133,28.647,31.133z"/>
<path display="none" fill="#343434" d="M37.506,22.99c-1.586,0-2.876,1.379-2.876,3.073s1.29,3.072,2.876,3.072
	c1.585,0,2.875-1.378,2.875-3.072S39.091,22.99,37.506,22.99z M37.506,27.136c-0.483,0-0.876-0.481-0.876-1.072
	c0-0.592,0.393-1.073,0.876-1.073c0.482,0,0.875,0.481,0.875,1.073C38.381,26.654,37.988,27.136,37.506,27.136z"/>
<path display="none" fill="#343434" d="M19.931,22.99c-1.585,0-2.875,1.379-2.875,3.073s1.29,3.072,2.875,3.072
	c1.586,0,2.876-1.378,2.876-3.072S21.517,22.99,19.931,22.99z M19.931,27.136c-0.482,0-0.875-0.481-0.875-1.072
	c0-0.592,0.393-1.073,0.875-1.073c0.483,0,0.876,0.481,0.876,1.073C20.807,26.654,20.414,27.136,19.931,27.136z"/>
<path display="none" fill="#343434" d="M48.497,41.294c-0.062-0.078-1.517-1.907-3.842-1.907c-0.997,0-1.987,0.334-2.945,0.993
	c-2.837,1.955-7.568,6.627-8.806,7.864h-8.541c-0.209-0.077-0.482-0.271-0.482-0.763c0-0.137,0-0.344,0.577-0.344l0.115,0.003
	l5.938-0.003c1.195-0.1,3.456-0.981,3.456-3.606c0-2.608-2.339-3.544-3.576-3.675l-6.805-0.005c-1.048,0-2.019-0.193-3.045-0.398
	c-1.029-0.205-2.093-0.417-3.232-0.417c-2.39,0-5.961,1.14-8.16,4.354c-2.359,3.448-5.829,5.774-5.864,5.798l-0.997,0.663
	l9.988,10.398l3.23-3.725l18.283,0.069l15.264-14.586L48.497,41.294z M32.99,54.591l-18.395-0.07L12.2,57.284l-6.847-7.129
	c1.294-0.994,3.635-2.99,5.445-5.636c1.76-2.571,4.606-3.483,6.51-3.483c0.942,0,1.864,0.184,2.841,0.378
	c1.077,0.215,2.191,0.438,3.437,0.438h6.636c0.32,0.047,1.745,0.332,1.745,1.68c0,1.382-1.357,1.587-1.539,1.609l-5.771,0.004
	c0,0-0.074-0.007-0.198-0.007c-1.542,0-2.577,0.941-2.577,2.344c0,1.813,1.396,2.586,2.135,2.741l9.722,0.021l0.294-0.297
	c0.057-0.058,5.753-5.812,8.813-7.92c0.617-0.425,1.227-0.641,1.811-0.641c0.645,0,1.194,0.264,1.59,0.538L32.99,54.591z"/>
<g display="none">
	<g display="inline">
		<polygon display="none" fill="#999999" points="22.705,13.614 22.705,14.181 22.705,16.181 22.705,50.925 30.188,51.842 
			32.188,50.925 32.188,6.699 11.482,6.699 11.482,13.687 13.482,13.687 		"/>
		<path display="none" fill="#C8C8C8" d="M23.458,52.343H5.248v-39.41h18.21V52.343z"/>
		<path display="none" fill="#C8C8C8" d="M45.903,52.343H26.446V20.416h19.457V52.343z"/>
		<rect x="2.507" y="50.343" display="none" fill="#C8C8C8" width="47.385" height="2"/>
	</g>
</g>
<path display="none" fill="#848484" d="M23.458,52.343H5.248v-39.41h18.21V52.343z M7.248,50.343h14.21v-35.41H7.248V50.343z"/>
<path display="none" fill="#848484" d="M45.903,52.343H26.446V20.416h19.457V52.343z M28.446,50.343h15.457V22.416H28.446V50.343z"
	/>
<polygon display="none" fill="#848484" points="32.188,20.168 30.188,20.168 30.188,8.699 13.482,8.699 13.482,12.687 
	11.482,12.687 11.482,6.699 32.188,6.699 "/>
<rect x="23.705" y="14.181" display="none" fill="#848484" width="7.482" height="2"/>
<rect x="23.705" y="26.65" display="none" fill="#848484" width="3.741" height="2"/>
<rect x="23.705" y="31.638" display="none" fill="#848484" width="3.741" height="2"/>
<rect x="23.705" y="20.416" display="none" fill="#848484" width="7.482" height="2"/>
<rect x="11.235" y="20.168" display="none" fill="#848484" width="2.494" height="2.494"/>
<rect x="11.235" y="25.157" display="none" fill="#848484" width="2.494" height="2.493"/>
<rect x="11.235" y="30.145" display="none" fill="#848484" width="2.494" height="2.493"/>
<rect x="11.235" y="35.132" display="none" fill="#848484" width="2.494" height="2.494"/>
<rect x="32.435" y="26.404" display="none" fill="#848484" width="2.493" height="2.494"/>
<rect x="32.435" y="31.391" display="none" fill="#848484" width="2.493" height="2.494"/>
<rect x="32.435" y="38.874" display="none" fill="#848484" width="2.493" height="2.493"/>
<rect x="38.669" y="26.404" display="none" fill="#848484" width="2.494" height="2.494"/>
<rect x="38.669" y="31.391" display="none" fill="#848484" width="2.494" height="2.494"/>
<rect x="38.669" y="38.874" display="none" fill="#848484" width="2.494" height="2.493"/>
<path display="none" fill="#848484" d="M18.471,52.343h-8.235V41.614h8.235V52.343z M12.235,50.343h4.235v-6.729h-4.235V50.343z"/>
<rect x="2.507" y="50.343" display="none" fill="#848484" width="47.385" height="2"/>
<defs>
	<filter id="Adobe_OpacityMaskFilter_4_" filterUnits="userSpaceOnUse" x="1.773" y="59.378" width="48.852" height="7.494">
		<feFlood  style="flood-color:white;flood-opacity:1" result="back"/>
		<feBlend  in="SourceGraphic" in2="back" mode="normal"/>
	</filter>
</defs>
<mask maskUnits="userSpaceOnUse" x="1.773" y="59.378" width="48.852" height="7.494" id="SVGID_7_">
	<g filter="url(#Adobe_OpacityMaskFilter_4_)">
		<defs>
			<filter id="Adobe_OpacityMaskFilter_5_" filterUnits="userSpaceOnUse" x="1.773" y="59.378" width="48.852" height="7.494">
				<feFlood  style="flood-color:white;flood-opacity:1" result="back"/>
				<feBlend  in="SourceGraphic" in2="back" mode="normal"/>
			</filter>
		</defs>
		<mask maskUnits="userSpaceOnUse" x="1.773" y="59.378" width="48.852" height="7.494" id="SVGID_7_">
			<g filter="url(#Adobe_OpacityMaskFilter_5_)">
			</g>
		</mask>
		
			<radialGradient id="SVGID_8_" cx="197.4219" cy="397.2339" r="30.4419" gradientTransform="matrix(0.8023 0 0 0.1231 -132.1924 14.2259)" gradientUnits="userSpaceOnUse">
			<stop  offset="0" style="stop-color:#4D4D4D"/>
			<stop  offset="0.7903" style="stop-color:#000000"/>
		</radialGradient>
		<ellipse mask="url(#SVGID_7_)" fill="url(#SVGID_8_)" cx="26.199" cy="63.125" rx="24.426" ry="3.747"/>
	</g>
</mask>
<radialGradient id="SVGID_9_" cx="197.4219" cy="397.2339" r="30.4419" gradientTransform="matrix(0.8023 0 0 0.1231 -132.1924 14.2259)" gradientUnits="userSpaceOnUse">
	<stop  offset="0.5394" style="stop-color:#000000"/>
	<stop  offset="1" style="stop-color:#FFFFFF;stop-opacity:0"/>
</radialGradient>
<ellipse display="none" opacity="0.4" fill="url(#SVGID_9_)" cx="26.199" cy="63.125" rx="24.426" ry="3.747"/>
<path display="none" fill="#343434" d="M23.463,52.34H5.252V12.931h18.211V52.34z M7.252,50.34h14.211V14.931H7.252V50.34z"/>
<path display="none" fill="#343434" d="M45.908,52.34H26.451V20.412h19.457V52.34z M28.451,50.34h15.457V22.412H28.451V50.34z"/>
<polygon display="none" fill="#343434" points="32.191,20.165 30.191,20.165 30.191,8.695 13.486,8.695 13.486,12.684 
	11.486,12.684 11.486,6.695 32.191,6.695 "/>
<rect x="23.709" y="14.178" display="none" fill="#343434" width="7.482" height="2"/>
<rect x="23.709" y="26.647" display="none" fill="#343434" width="3.742" height="2"/>
<rect x="23.709" y="31.635" display="none" fill="#343434" width="3.742" height="2"/>
<rect x="23.709" y="20.412" display="none" fill="#343434" width="7.482" height="2"/>
<rect x="11.24" y="20.165" display="none" fill="#343434" width="2.494" height="2.494"/>
<rect x="11.24" y="25.153" display="none" fill="#343434" width="2.494" height="2.494"/>
<rect x="11.24" y="30.142" display="none" fill="#343434" width="2.494" height="2.493"/>
<rect x="11.24" y="35.129" display="none" fill="#343434" width="2.494" height="2.494"/>
<rect x="32.439" y="26.4" display="none" fill="#343434" width="2.492" height="2.494"/>
<rect x="32.439" y="31.388" display="none" fill="#343434" width="2.492" height="2.494"/>
<rect x="32.439" y="38.87" display="none" fill="#343434" width="2.492" height="2.494"/>
<rect x="38.674" y="26.4" display="none" fill="#343434" width="2.494" height="2.494"/>
<rect x="38.674" y="31.388" display="none" fill="#343434" width="2.494" height="2.494"/>
<rect x="38.674" y="38.87" display="none" fill="#343434" width="2.494" height="2.494"/>
<path display="none" fill="#343434" d="M18.475,52.34H10.24V41.61h8.234V52.34z M12.24,50.34h4.234V43.61H12.24V50.34z"/>
<rect x="2.512" y="50.34" display="none" fill="#343434" width="47.385" height="2"/>
<circle display="none" fill="#009999" cx="39.573" cy="13.653" r="10.341"/>
<path display="none" fill="#FFFFFF" d="M39.572,24.994c-6.252,0-11.34-5.088-11.34-11.341s5.088-11.34,11.34-11.34
	c6.254,0,11.342,5.087,11.342,11.34S45.826,24.994,39.572,24.994z M39.572,4.313c-5.15,0-9.34,4.189-9.34,9.34
	s4.189,9.341,9.34,9.341s9.342-4.19,9.342-9.341S44.723,4.313,39.572,4.313z"/>
<polygon display="none" fill="#FFFFFF" points="37.973,17.613 34.07,13.713 35.484,12.299 37.973,14.785 42.941,9.816 44.355,11.23 
	"/>
<path display="none" fill="#343434" d="M23.463,52.34H5.252V12.931h18.211V52.34z M7.252,50.34h14.211V14.931H7.252V50.34z"/>
<path display="none" fill="#343434" d="M45.908,52.34H26.451V20.413h19.457V52.34z M28.451,50.34h15.457V22.413H28.451V50.34z"/>
<polygon display="none" fill="#343434" points="32.191,20.166 30.191,20.166 30.191,8.696 13.486,8.696 13.486,12.685 
	11.486,12.685 11.486,6.696 32.191,6.696 "/>
<rect x="23.709" y="14.178" display="none" fill="#343434" width="7.482" height="2"/>
<rect x="23.709" y="26.647" display="none" fill="#343434" width="3.742" height="2"/>
<rect x="23.709" y="31.636" display="none" fill="#343434" width="3.742" height="2"/>
<rect x="23.709" y="20.413" display="none" fill="#343434" width="7.482" height="2"/>
<rect x="11.24" y="20.166" display="none" fill="#343434" width="2.494" height="2.494"/>
<rect x="11.24" y="25.153" display="none" fill="#343434" width="2.494" height="2.494"/>
<rect x="11.24" y="30.142" display="none" fill="#343434" width="2.494" height="2.494"/>
<rect x="11.24" y="35.13" display="none" fill="#343434" width="2.494" height="2.493"/>
<rect x="32.439" y="26.4" display="none" fill="#343434" width="2.492" height="2.494"/>
<rect x="32.439" y="31.389" display="none" fill="#343434" width="2.492" height="2.494"/>
<rect x="32.439" y="38.87" display="none" fill="#343434" width="2.492" height="2.494"/>
<rect x="38.674" y="26.4" display="none" fill="#343434" width="2.494" height="2.494"/>
<rect x="38.674" y="31.389" display="none" fill="#343434" width="2.494" height="2.494"/>
<rect x="38.674" y="38.87" display="none" fill="#343434" width="2.494" height="2.494"/>
<path display="none" fill="#343434" d="M18.475,52.34H10.24V41.611h8.234V52.34z M12.24,50.34h4.234v-6.729H12.24V50.34z"/>
<rect x="2.512" y="50.34" display="none" fill="#343434" width="47.385" height="2"/>
<circle display="none" fill="#FF0000" cx="39.573" cy="13.653" r="10.341"/>
<path display="none" fill="#FFFFFF" d="M39.572,24.994c-6.252,0-11.34-5.088-11.34-11.341s5.088-11.34,11.34-11.34
	c6.254,0,11.342,5.087,11.342,11.34S45.826,24.994,39.572,24.994z M39.572,4.313c-5.15,0-9.34,4.189-9.34,9.34
	s4.189,9.341,9.34,9.341s9.342-4.19,9.342-9.341S44.723,4.313,39.572,4.313z"/>
<rect x="38.578" y="9.213" display="none" fill="#FFFFFF" width="1.99" height="7.413"/>
<rect x="38.578" y="17.613" display="none" fill="#FFFFFF" width="1.99" height="2.033"/>
<path display="none" fill="#343434" d="M23.463,52.34H5.252V12.931h18.211V52.34z M7.252,50.34h14.211V14.931H7.252V50.34z"/>
<path display="none" fill="#343434" d="M45.908,52.34H26.451V20.413h19.457V52.34z M28.451,50.34h15.457V22.413H28.451V50.34z"/>
<polygon display="none" fill="#343434" points="32.191,20.166 30.191,20.166 30.191,8.696 13.486,8.696 13.486,12.685 
	11.486,12.685 11.486,6.696 32.191,6.696 "/>
<rect x="23.709" y="14.178" display="none" fill="#343434" width="7.482" height="2"/>
<rect x="23.709" y="26.647" display="none" fill="#343434" width="3.742" height="2"/>
<rect x="23.709" y="31.636" display="none" fill="#343434" width="3.742" height="2"/>
<rect x="23.709" y="20.413" display="none" fill="#343434" width="7.482" height="2"/>
<rect x="11.24" y="20.166" display="none" fill="#343434" width="2.494" height="2.494"/>
<rect x="11.24" y="25.153" display="none" fill="#343434" width="2.494" height="2.494"/>
<rect x="11.24" y="30.142" display="none" fill="#343434" width="2.494" height="2.494"/>
<rect x="11.24" y="35.13" display="none" fill="#343434" width="2.494" height="2.493"/>
<rect x="32.439" y="26.4" display="none" fill="#343434" width="2.492" height="2.494"/>
<rect x="32.439" y="31.389" display="none" fill="#343434" width="2.492" height="2.494"/>
<rect x="32.439" y="38.87" display="none" fill="#343434" width="2.492" height="2.494"/>
<rect x="38.674" y="26.4" display="none" fill="#343434" width="2.494" height="2.494"/>
<rect x="38.674" y="31.389" display="none" fill="#343434" width="2.494" height="2.494"/>
<rect x="38.674" y="38.87" display="none" fill="#343434" width="2.494" height="2.494"/>
<path display="none" fill="#343434" d="M18.475,52.34H10.24V41.611h8.234V52.34z M12.24,50.34h4.234v-6.729H12.24V50.34z"/>
<rect x="2.512" y="50.34" display="none" fill="#343434" width="47.385" height="2"/>
<path display="none" fill="#343434" d="M48.535,13.831H33.131v-1.543c0-3.267-2.657-5.924-5.924-5.924
	c-3.266,0-5.923,2.657-5.923,5.924v1.543H5.287c-1.654,0-3,1.346-3,3v27.437c0,1.654,1.346,3,3,3h43.248c1.654,0,3-1.346,3-3V16.831
	C51.535,15.177,50.189,13.831,48.535,13.831z M23.284,12.288c0-2.164,1.76-3.924,3.923-3.924c2.164,0,3.924,1.76,3.924,3.924v5.998
	h-7.847V12.288z M49.535,44.268c0,0.551-0.448,1-1,1H5.287c-0.552,0-1-0.449-1-1V16.831c0-0.551,0.448-1,1-1h15.997v4.455h11.847
	v-4.455h15.404c0.552,0,1,0.449,1,1V44.268z"/>
<path display="none" fill="#343434" d="M16.994,31.319c2.558,0,4.638-2.081,4.638-4.638c0-2.558-2.08-4.638-4.638-4.638
	s-4.638,2.08-4.638,4.638C12.356,29.238,14.437,31.319,16.994,31.319z M16.994,24.044c1.454,0,2.638,1.183,2.638,2.638
	c0,1.454-1.184,2.638-2.638,2.638s-2.638-1.184-2.638-2.638C14.356,25.227,15.54,24.044,16.994,24.044z"/>
<path display="none" fill="#343434" d="M22.009,31.269l-0.505-0.13l-0.396,0.34c-1.147,0.985-2.608,1.528-4.114,1.528
	c-1.501,0-2.959-0.539-4.104-1.519l-0.399-0.342l-0.509,0.136c-2.186,0.585-3.712,2.564-3.712,4.815v3.063h17.498v-3.063
	C25.768,33.823,24.222,31.837,22.009,31.269z M23.768,37.16H10.27v-1.063c0-1.187,0.712-2.249,1.779-2.725
	c1.429,1.058,3.164,1.634,4.945,1.634c1.79,0,3.531-0.582,4.964-1.648c1.085,0.468,1.81,1.536,1.81,2.739V37.16z"/>
<rect x="29.153" y="24.471" display="none" fill="#343434" width="15.498" height="2"/>
<rect x="29.153" y="30.649" display="none" fill="#343434" width="15.498" height="2"/>
<rect x="29.153" y="36.829" display="none" fill="#343434" width="15.498" height="2"/>
<circle display="none" fill="#343434" cx="27.043" cy="12.353" r="1.775"/>
<path display="none" fill="#E8EBEB" stroke="#9B9B9B" stroke-width="0.25" stroke-miterlimit="10" d="M49.438,44.324
	c0,0.551-0.448,1-1,1H5.189c-0.552,0-1-0.449-1-1V16.888c0-0.551,0.448-1,1-1h15.997h11.847h15.404c0.552,0,1,0.449,1,1V44.324z"/>
<path display="none" fill="#FBC691" d="M16.896,31.376c2.558,0,4.638-2.081,4.638-4.639c0-2.557-2.08-4.637-4.638-4.637
	s-4.638,2.08-4.638,4.637C12.259,29.295,14.339,31.376,16.896,31.376z"/>
<path display="none" fill="#4CBC86" d="M21.911,31.325l-0.505-0.13l-0.396,0.339c-1.147,0.986-2.608,1.528-4.114,1.528
	c-1.501,0-2.959-0.538-4.104-1.518l-0.399-0.342l-0.509,0.136c-2.186,0.585-3.712,2.564-3.712,4.815v3.063H25.67v-3.063
	C25.67,33.88,24.124,31.894,21.911,31.325z"/>
<rect x="29.056" y="24.526" display="none" fill="#4B6D9D" width="15.498" height="2"/>
<rect x="29.056" y="30.706" display="none" fill="#4B6D9D" width="15.498" height="2"/>
<rect x="29.056" y="36.886" display="none" fill="#4B6D9D" width="15.498" height="2"/>
<path display="none" fill="#494949" d="M21.402,11.872c0-3.146,2.561-5.706,5.707-5.706c3.147,0,5.707,2.56,5.707,5.706v8.727
	H21.402V11.872z M26.945,10.635c-0.981,0-1.775,0.795-1.775,1.774c0,0.98,0.794,1.775,1.775,1.775c0.98,0,1.774-0.795,1.774-1.775
	C28.72,11.43,27.926,10.635,26.945,10.635z"/>
<path display="none" fill="#84533D" d="M16.896,22.101c-1.753,0-3.263,0.988-4.052,2.426h8.103
	C20.159,23.089,18.649,22.101,16.896,22.101z"/>
<defs>
	<filter id="Adobe_OpacityMaskFilter_6_" filterUnits="userSpaceOnUse" x="2.684" y="59.921" width="48.852" height="7.494">
		<feFlood  style="flood-color:white;flood-opacity:1" result="back"/>
		<feBlend  in="SourceGraphic" in2="back" mode="normal"/>
	</filter>
</defs>
<mask maskUnits="userSpaceOnUse" x="2.684" y="59.921" width="48.852" height="7.494" id="SVGID_10_">
	<g filter="url(#Adobe_OpacityMaskFilter_6_)">
		<defs>
			<filter id="Adobe_OpacityMaskFilter_7_" filterUnits="userSpaceOnUse" x="2.684" y="59.921" width="48.852" height="7.494">
				<feFlood  style="flood-color:white;flood-opacity:1" result="back"/>
				<feBlend  in="SourceGraphic" in2="back" mode="normal"/>
			</filter>
		</defs>
		<mask maskUnits="userSpaceOnUse" x="2.684" y="59.921" width="48.852" height="7.494" id="SVGID_10_">
			<g filter="url(#Adobe_OpacityMaskFilter_7_)">
			</g>
		</mask>
		
			<radialGradient id="SVGID_11_" cx="198.5566" cy="401.6401" r="30.4419" gradientTransform="matrix(0.8023 0 0 0.1231 -132.1924 14.2259)" gradientUnits="userSpaceOnUse">
			<stop  offset="0" style="stop-color:#4D4D4D"/>
			<stop  offset="0.7903" style="stop-color:#000000"/>
		</radialGradient>
		<ellipse mask="url(#SVGID_10_)" fill="url(#SVGID_11_)" cx="27.109" cy="63.668" rx="24.426" ry="3.747"/>
	</g>
</mask>
<radialGradient id="SVGID_12_" cx="198.5566" cy="401.6401" r="30.4419" gradientTransform="matrix(0.8023 0 0 0.1231 -132.1924 14.2259)" gradientUnits="userSpaceOnUse">
	<stop  offset="0.5394" style="stop-color:#000000"/>
	<stop  offset="1" style="stop-color:#FFFFFF;stop-opacity:0"/>
</radialGradient>
<ellipse display="none" opacity="0.4" fill="url(#SVGID_12_)" cx="27.109" cy="63.668" rx="24.426" ry="3.747"/>
<path fill="#343434" d="M48.535,13.831H33.131v-1.543c0-3.267-2.657-5.924-5.924-5.924c-3.266,0-5.923,2.657-5.923,5.924v1.543
	H5.287c-1.654,0-3,1.346-3,3v27.437c0,1.654,1.346,3,3,3h43.248c1.654,0,3-1.346,3-3V16.831
	C51.535,15.177,50.189,13.831,48.535,13.831z M23.284,12.288c0-2.164,1.76-3.924,3.923-3.924c2.164,0,3.924,1.76,3.924,3.924v5.998
	h-7.847V12.288z M49.535,44.268c0,0.551-0.447,1-1,1H5.287c-0.552,0-1-0.449-1-1V16.831c0-0.551,0.448-1,1-1h15.997v4.455h11.847
	v-4.455h15.404c0.553,0,1,0.449,1,1V44.268z"/>
<path fill="#343434" d="M16.994,31.319c2.558,0,4.638-2.081,4.638-4.638c0-2.558-2.08-4.638-4.638-4.638s-4.638,2.08-4.638,4.638
	C12.356,29.238,14.437,31.319,16.994,31.319z M16.994,24.044c1.454,0,2.638,1.183,2.638,2.638c0,1.454-1.184,2.638-2.638,2.638
	s-2.638-1.184-2.638-2.638C14.356,25.227,15.54,24.044,16.994,24.044z"/>
<path fill="#343434" d="M22.009,31.269l-0.505-0.13l-0.396,0.34c-1.147,0.985-2.608,1.528-4.114,1.528
	c-1.501,0-2.959-0.539-4.104-1.519l-0.399-0.342l-0.509,0.136c-2.186,0.585-3.712,2.564-3.712,4.815v3.063h17.498v-3.063
	C25.768,33.823,24.222,31.837,22.009,31.269z M23.768,37.16H10.27v-1.063c0-1.187,0.712-2.249,1.779-2.725
	c1.429,1.058,3.164,1.634,4.945,1.634c1.79,0,3.531-0.582,4.964-1.648c1.085,0.468,1.81,1.536,1.81,2.739V37.16z"/>
<rect x="29.153" y="24.471" fill="#343434" width="15.498" height="2"/>
<rect x="29.153" y="30.649" fill="#343434" width="15.498" height="2"/>
<rect x="29.153" y="36.829" fill="#343434" width="15.498" height="2"/>
<circle fill="#343434" cx="27.043" cy="12.353" r="1.775"/>
<circle fill="#009999" cx="51.463" cy="13.653" r="10.341"/>
<path fill="#FFFFFF" d="M51.463,24.994c-6.253,0-11.341-5.088-11.341-11.341s5.088-11.34,11.341-11.34
	c6.254,0,11.342,5.087,11.342,11.34S57.717,24.994,51.463,24.994z M51.463,4.313c-5.15,0-9.341,4.189-9.341,9.34
	s4.19,9.341,9.341,9.341s9.342-4.19,9.342-9.341S56.613,4.313,51.463,4.313z"/>
<polygon fill="#FFFFFF" points="49.863,17.613 45.961,13.713 47.375,12.299 49.863,14.785 54.832,9.816 56.246,11.23 "/>
<path display="none" fill="#343434" d="M48.535,13.831H33.131v-1.543c0-3.267-2.657-5.924-5.924-5.924
	c-3.266,0-5.923,2.657-5.923,5.924v1.543H5.287c-1.654,0-3,1.346-3,3v27.437c0,1.654,1.346,3,3,3h43.248c1.654,0,3-1.346,3-3V16.831
	C51.535,15.177,50.189,13.831,48.535,13.831z M23.284,12.288c0-2.164,1.76-3.924,3.923-3.924c2.164,0,3.924,1.76,3.924,3.924v5.998
	h-7.847V12.288z M49.535,44.268c0,0.551-0.448,1-1,1H5.287c-0.552,0-1-0.449-1-1V16.831c0-0.551,0.448-1,1-1h15.997v4.455h11.847
	v-4.455h15.404c0.552,0,1,0.449,1,1V44.268z"/>
<path display="none" fill="#343434" d="M16.994,31.319c2.558,0,4.638-2.081,4.638-4.638c0-2.558-2.08-4.638-4.638-4.638
	s-4.638,2.08-4.638,4.638C12.356,29.238,14.437,31.319,16.994,31.319z M16.994,24.044c1.454,0,2.638,1.183,2.638,2.638
	c0,1.454-1.184,2.638-2.638,2.638s-2.638-1.184-2.638-2.638C14.356,25.227,15.54,24.044,16.994,24.044z"/>
<path display="none" fill="#343434" d="M22.009,31.269l-0.505-0.13l-0.396,0.34c-1.147,0.985-2.608,1.528-4.114,1.528
	c-1.501,0-2.959-0.539-4.104-1.519l-0.399-0.342l-0.509,0.136c-2.186,0.585-3.712,2.564-3.712,4.815v3.063h17.498v-3.063
	C25.768,33.823,24.222,31.837,22.009,31.269z M23.768,37.16H10.27v-1.063c0-1.187,0.712-2.249,1.779-2.725
	c1.429,1.058,3.164,1.634,4.945,1.634c1.79,0,3.531-0.582,4.964-1.648c1.085,0.468,1.81,1.536,1.81,2.739V37.16z"/>
<rect x="29.153" y="24.471" display="none" fill="#343434" width="15.498" height="2"/>
<rect x="29.153" y="30.649" display="none" fill="#343434" width="15.498" height="2"/>
<rect x="29.153" y="36.829" display="none" fill="#343434" width="15.498" height="2"/>
<circle display="none" fill="#343434" cx="27.043" cy="12.353" r="1.775"/>
<circle display="none" fill="#FF0000" cx="51.463" cy="13.654" r="10.341"/>
<path display="none" fill="#FFFFFF" d="M51.463,24.994c-6.253,0-11.341-5.087-11.341-11.34S45.21,2.313,51.463,2.313
	c6.254,0,11.342,5.088,11.342,11.341S57.717,24.994,51.463,24.994z M51.463,4.313c-5.15,0-9.341,4.19-9.341,9.341
	s4.19,9.34,9.341,9.34s9.342-4.189,9.342-9.34S56.613,4.313,51.463,4.313z"/>
<rect x="50.468" y="9.214" display="none" fill="#FFFFFF" width="1.991" height="7.413"/>
<rect x="50.468" y="17.613" display="none" fill="#FFFFFF" width="1.991" height="2.033"/>
<path display="none" d="M45.278,13.487c6.794,0.762,13.054,3.248,18.298,6.994l5.384-5.839l6.18,5.407l-5.428,5.885
	c5.993,6.613,9.636,15.299,9.636,24.817c0,20.711-17.254,37.513-38.526,37.513c-21.281,0-38.534-16.802-38.534-37.513
	c0-19.267,15.022-35.43,34.685-37.329V9.771h-9.608V2.313h27.527v7.457h-9.612V13.487z M36.707,58.888
	c8.484,6.191,18.151-6.369,9.67-12.557c-2.859-2.093-17.783-5.401-22.465-6.587C26.392,43.781,33.848,56.812,36.707,58.888z
	 M61.995,30.128c-5.418-5.271-12.909-8.539-21.174-8.539c-16.547,0-29.955,13.053-29.955,29.163
	c0,16.102,13.408,29.156,29.955,29.156c16.539,0,29.946-13.054,29.946-29.156C70.768,42.696,67.414,35.405,61.995,30.128z"/>
<path display="none" fill="#343434" d="M40.061,35.442H7.271v-5.746h32.789V35.442z M9.271,33.442h28.789v-1.746H9.271V33.442z"/>
<rect x="7.271" y="22.907" display="none" fill="#343434" width="17.154" height="3.746"/>
<path display="none" fill="#343434" d="M40.061,43.312H7.271v-5.746h32.789V43.312z M9.271,41.312h28.789v-1.746H9.271V41.312z"/>
<path display="none" fill="#343434" d="M41.732,56.078H6.287c-2.207,0-4-1.794-4-4V20.104c0-2.205,1.793-4,4-4h35.445
	c2.205,0,4,1.795,4,4v31.975C45.732,54.284,43.938,56.078,41.732,56.078z M6.287,18.104c-1.104,0-2,0.897-2,2v31.975
	c0,1.103,0.896,2,2,2h35.445c1.102,0,2-0.897,2-2V20.104c0-1.103-0.898-2-2-2H6.287z"/>
<path display="none" fill="#343434" d="M40.322,47.765c0,1.183-0.959,2.142-2.143,2.142h-7.447c-1.184,0-2.143-0.959-2.143-2.142
	l0,0c0-1.184,0.959-2.143,2.143-2.143h7.447C39.363,45.622,40.322,46.581,40.322,47.765L40.322,47.765z"/>
<path display="none" fill="#343434" d="M26.66,47.765c0,1.183-0.959,2.142-2.143,2.142h-3.723c-1.184,0-2.143-0.959-2.143-2.142l0,0
	c0-1.184,0.959-2.143,2.143-2.143h3.723C25.701,45.622,26.66,46.581,26.66,47.765L26.66,47.765z"/>
<path display="none" fill="#343434" d="M40.062,35.442H7.272v-5.746h32.789V35.442z M9.272,33.442h28.789v-1.746H9.272V33.442z"/>
<rect x="7.271" y="22.907" display="none" fill="#343434" width="17.154" height="3.746"/>
<path display="none" fill="#343434" d="M40.062,43.312H7.272v-5.746h32.789V43.312z M9.272,41.312h28.789v-1.746H9.272V41.312z"/>
<path display="none" fill="#343434" d="M41.732,56.078H6.287c-2.206,0-4-1.794-4-4V20.104c0-2.205,1.794-4,4-4h35.445
	c2.206,0,4,1.795,4,4v31.975C45.732,54.284,43.938,56.078,41.732,56.078z M6.287,18.104c-1.103,0-2,0.897-2,2v31.975
	c0,1.103,0.897,2,2,2h35.445c1.103,0,2-0.897,2-2V20.104c0-1.103-0.897-2-2-2H6.287z"/>
<path display="none" fill="#343434" d="M40.322,47.765c0,1.183-0.959,2.142-2.143,2.142h-7.447c-1.183,0-2.142-0.959-2.142-2.142
	l0,0c0-1.184,0.959-2.143,2.142-2.143h7.447C39.363,45.622,40.322,46.581,40.322,47.765L40.322,47.765z"/>
<path display="none" fill="#343434" d="M26.661,47.765c0,1.183-0.959,2.142-2.143,2.142h-3.724c-1.183,0-2.142-0.959-2.142-2.142
	l0,0c0-1.184,0.959-2.143,2.142-2.143h3.724C25.702,45.622,26.661,46.581,26.661,47.765L26.661,47.765z"/>
<circle display="none" fill="#009999" cx="45.932" cy="18.361" r="10.341"/>
<path display="none" fill="#FFFFFF" d="M45.932,29.701c-6.253,0-11.341-5.087-11.341-11.34S39.679,7.021,45.932,7.021
	s11.341,5.088,11.341,11.341S52.185,29.701,45.932,29.701z M45.932,9.021c-5.15,0-9.341,4.19-9.341,9.341s4.19,9.34,9.341,9.34
	s9.341-4.189,9.341-9.34S51.082,9.021,45.932,9.021z"/>
<polygon display="none" fill="#FFFFFF" points="44.331,22.32 40.43,18.42 41.844,17.006 44.331,19.492 49.3,14.523 50.714,15.938 
	"/>
<path display="none" fill="#343434" d="M40.062,35.442H7.272v-5.746h32.789V35.442z M9.272,33.442h28.789v-1.746H9.272V33.442z"/>
<rect x="7.271" y="22.907" display="none" fill="#343434" width="17.154" height="3.746"/>
<path display="none" fill="#343434" d="M40.062,43.312H7.272v-5.746h32.789V43.312z M9.272,41.312h28.789v-1.746H9.272V41.312z"/>
<path display="none" fill="#343434" d="M41.732,56.078H6.287c-2.206,0-4-1.794-4-4V20.104c0-2.206,1.794-4,4-4h35.445
	c2.206,0,4,1.794,4,4v31.975C45.732,54.284,43.938,56.078,41.732,56.078z M6.287,18.104c-1.103,0-2,0.896-2,2v31.975
	c0,1.103,0.897,2,2,2h35.445c1.103,0,2-0.897,2-2V20.104c0-1.104-0.897-2-2-2H6.287z"/>
<path display="none" fill="#343434" d="M40.322,47.765c0,1.183-0.959,2.142-2.143,2.142h-7.447c-1.183,0-2.142-0.959-2.142-2.142
	l0,0c0-1.184,0.959-2.143,2.142-2.143h7.447C39.363,45.622,40.322,46.581,40.322,47.765L40.322,47.765z"/>
<path display="none" fill="#343434" d="M26.661,47.765c0,1.183-0.959,2.142-2.143,2.142h-3.724c-1.183,0-2.142-0.959-2.142-2.142
	l0,0c0-1.184,0.959-2.143,2.142-2.143h3.724C25.702,45.622,26.661,46.581,26.661,47.765L26.661,47.765z"/>
<circle display="none" fill="#FF0000" cx="45.932" cy="18.361" r="10.341"/>
<path display="none" fill="#FFFFFF" d="M45.932,29.701c-6.253,0-11.341-5.087-11.341-11.34S39.679,7.021,45.932,7.021
	s11.341,5.088,11.341,11.341S52.185,29.701,45.932,29.701z M45.932,9.021c-5.15,0-9.341,4.19-9.341,9.341s4.19,9.34,9.341,9.34
	s9.341-4.189,9.341-9.34S51.082,9.021,45.932,9.021z"/>
<rect x="44.937" y="13.921" display="none" fill="#FFFFFF" width="1.99" height="7.413"/>
<rect x="44.937" y="22.32" display="none" fill="#FFFFFF" width="1.99" height="2.033"/>
<path display="none" fill="#EDEDF3" d="M41.732,55.823H6.287c-2.206,0-4-1.794-4-4V19.849c0-2.206,1.794-4,4-4h35.445
	c2.206,0,4,1.794,4,4v31.975C45.732,54.029,43.938,55.823,41.732,55.823z"/>
<path display="none" fill="#7A7C7C" d="M40.062,34.188H7.272V29.44h32.789V34.188z"/>
<rect x="7.271" y="22.652" display="none" fill="#494949" width="17.154" height="3.746"/>
<path display="none" fill="#7A7C7C" d="M40.062,42.057H7.272v-4.746h32.789V42.057z"/>
<path display="none" fill="#37B0E5" d="M40.322,47.51c0,1.182-0.959,2.141-2.143,2.141h-7.447c-1.183,0-2.142-0.959-2.142-2.141l0,0
	c0-1.184,0.959-2.143,2.142-2.143h7.447C39.363,45.367,40.322,46.326,40.322,47.51L40.322,47.51z"/>
<path display="none" fill="#37B0E5" d="M26.661,47.51c0,1.182-0.959,2.141-2.143,2.141h-3.724c-1.183,0-2.142-0.959-2.142-2.141l0,0
	c0-1.184,0.959-2.143,2.142-2.143h3.724C25.702,45.367,26.661,46.326,26.661,47.51L26.661,47.51z"/>
<defs>
	<filter id="Adobe_OpacityMaskFilter_8_" filterUnits="userSpaceOnUse" x="0" y="66.316" width="48.852" height="7.494">
		<feFlood  style="flood-color:white;flood-opacity:1" result="back"/>
		<feBlend  in="SourceGraphic" in2="back" mode="normal"/>
	</filter>
</defs>
<mask maskUnits="userSpaceOnUse" x="0" y="66.316" width="48.852" height="7.494" id="SVGID_13_">
	<g filter="url(#Adobe_OpacityMaskFilter_8_)">
		<defs>
			<filter id="Adobe_OpacityMaskFilter_9_" filterUnits="userSpaceOnUse" x="0" y="66.316" width="48.852" height="7.494">
				<feFlood  style="flood-color:white;flood-opacity:1" result="back"/>
				<feBlend  in="SourceGraphic" in2="back" mode="normal"/>
			</filter>
		</defs>
		<mask maskUnits="userSpaceOnUse" x="0" y="66.316" width="48.852" height="7.494" id="SVGID_13_">
			<g filter="url(#Adobe_OpacityMaskFilter_9_)">
			</g>
		</mask>
		
			<radialGradient id="SVGID_14_" cx="195.2109" cy="453.5923" r="30.4414" gradientTransform="matrix(0.8023 0 0 0.1231 -132.1924 14.2259)" gradientUnits="userSpaceOnUse">
			<stop  offset="0" style="stop-color:#4D4D4D"/>
			<stop  offset="0.7903" style="stop-color:#000000"/>
		</radialGradient>
		<ellipse mask="url(#SVGID_13_)" fill="url(#SVGID_14_)" cx="24.426" cy="70.063" rx="24.426" ry="3.747"/>
	</g>
</mask>
<radialGradient id="SVGID_15_" cx="195.2109" cy="453.5923" r="30.4414" gradientTransform="matrix(0.8023 0 0 0.1231 -132.1924 14.2259)" gradientUnits="userSpaceOnUse">
	<stop  offset="0.5394" style="stop-color:#000000"/>
	<stop  offset="1" style="stop-color:#FFFFFF;stop-opacity:0"/>
</radialGradient>
<ellipse display="none" opacity="0.4" fill="url(#SVGID_15_)" cx="24.426" cy="70.063" rx="24.426" ry="3.747"/>
</svg>
