<?xml version="1.0" encoding="utf-8"?>
<!-- Generator: Adobe Illustrator 15.1.0, SVG Export Plug-In  -->
<!DOCTYPE svg PUBLIC "-//W3C//DTD SVG 1.1//EN" "http://www.w3.org/Graphics/SVG/1.1/DTD/svg11.dtd" [
	<!ENTITY ns_flows "http://ns.adobe.com/Flows/1.0/">
]>
<svg version="1.1"
	 xmlns="http://www.w3.org/2000/svg" xmlns:xlink="http://www.w3.org/1999/xlink" xmlns:a="http://ns.adobe.com/AdobeSVGViewerExtensions/3.0/"
	 x="0px" y="0px" width="40px" height="39px" viewBox="-9.195 -7.865 40 39" enable-background="new -9.195 -7.865 40 39"
	 xml:space="preserve">
<defs>
</defs>
<path display="none" fill="#72BF00" d="M4.32,21.389c2.868,1.644,6.767,2.945,11.696,3.906c4.929,0.961,10.29,1.441,16.083,1.441
	s11.153-0.48,16.083-1.441c4.929-0.961,8.828-2.263,11.695-3.906c2.869-1.643,4.303-3.426,4.303-5.347v-5.347
	c0-1.922-1.434-3.705-4.303-5.348c-2.867-1.644-6.767-2.945-11.695-3.905C43.253,0.48,37.893,0,32.1,0S20.945,0.48,16.017,1.442
	c-4.93,0.96-8.828,2.262-11.696,3.905C1.451,6.99,0.018,8.773,0.018,10.695v5.347C0.018,17.963,1.451,19.746,4.32,21.389z"/>
<path display="none" fill="#72BF00" d="M4.32,37.43c2.868,1.644,6.767,2.945,11.696,3.906c4.929,0.961,10.29,1.441,16.083,1.441
	s11.153-0.48,16.083-1.441c4.929-0.961,8.828-2.263,11.695-3.906c2.869-1.643,4.303-3.424,4.303-5.347v-7.102
	c-3.314,2.339-7.839,4.107-13.575,5.306c-5.737,1.197-11.906,1.796-18.506,1.796s-12.769-0.599-18.506-1.796
	C7.857,29.089,3.332,27.32,0.018,24.981v7.102C0.018,34.006,1.451,35.787,4.32,37.43z"/>
<circle fill="#009999" cx="11.358" cy="11.34" r="10.341"/>
<path fill="#FFFFFF" d="M11.358,22.681c-6.253,0-11.341-5.087-11.341-11.34S5.105,0,11.358,0s11.341,5.087,11.341,11.34
	S17.611,22.681,11.358,22.681z M11.358,2c-5.15,0-9.341,4.19-9.341,9.34s4.19,9.34,9.341,9.34s9.341-4.19,9.341-9.34
	S16.509,2,11.358,2z"/>
<polygon fill="#FFFFFF" points="9.758,15.3 5.856,11.399 7.271,9.985 9.758,12.472 14.727,7.503 16.141,8.917 "/>
<circle display="none" fill="#FF0000" cx="11.358" cy="11.34" r="10.341"/>
<path display="none" fill="#FFFFFF" d="M11.358,22.681c-6.253,0-11.341-5.087-11.341-11.34S5.105,0,11.358,0
	s11.341,5.087,11.341,11.34S17.611,22.681,11.358,22.681z M11.358,2c-5.15,0-9.341,4.19-9.341,9.34s4.19,9.34,9.341,9.34
	s9.341-4.19,9.341-9.34S16.509,2,11.358,2z"/>
<rect x="10.363" y="6.9" display="none" fill="#FFFFFF" width="1.99" height="7.413"/>
<rect x="10.363" y="15.3" display="none" fill="#FFFFFF" width="1.99" height="2.033"/>
<g display="none">
	<path display="inline" fill="#343434" d="M12.615,14.336v10.26H6.164v-10.26H12.615 M14.615,12.336H6.164c-1.1,0-2,0.89-2,2v10.26
		c0,1.1,0.9,2,2,2h8.451V12.336L14.615,12.336z"/>
</g>
<g display="none">
	<path display="inline" fill="#343434" d="M34.195,9.701v19.288c-4.481-2.854-10.729-3.795-14.17-4.314l-0.372-0.056l-0.149-0.022
		h-0.15h-2.738v-10.26h3.1h0.157l0.155-0.024C22.658,13.896,29.408,12.83,34.195,9.701 M36.195,5.105
		c-3.281,4.91-12.301,6.57-16.48,7.23h-5.1v14.26h4.738c3.951,0.6,13.461,1.89,16.842,6.96V5.105L36.195,5.105z"/>
</g>
<g display="none">
	<path display="inline" fill="#343434" d="M10.837,27.154l3.416,12.541h-2.029L8.994,27.154H10.837 M12.365,25.154H6.414
		l4.26,16.541h5.59v-2.229L12.365,25.154L12.365,25.154z"/>
</g>
<path display="none" fill="#F26F59" d="M6.171,12.34c-1.1,0-2,0.89-2,2V24.6c0,1.1,0.9,2,2,2h8.45V12.34H6.171z"/>
<path display="none" fill="#EDEDF3" d="M19.722,12.34h-5.101V26.6h4.739c3.951,0.6,13.461,1.89,16.841,6.959V5.109
	C32.921,10.02,23.901,11.68,19.722,12.34z"/>
<polygon display="none" fill="#6D7587" points="6.751,26.6 10.681,41.699 16.271,41.699 16.271,39.47 12.701,26.6 "/>
<g display="none">
	<path display="inline" fill="#343434" d="M12.614,14.336v10.26h-6.45v-10.26H12.614 M14.614,12.336h-8.45c-1.1,0-2,0.89-2,2v10.26
		c0,1.1,0.9,2,2,2h8.45V12.336L14.614,12.336z"/>
</g>
<g display="none">
	<path display="inline" fill="#343434" d="M34.194,9.701v19.288c-4.48-2.854-10.728-3.795-14.169-4.314l-0.372-0.056l-0.149-0.022
		h-0.15h-2.739v-10.26h3.101h0.157l0.155-0.024C22.658,13.896,29.408,12.83,34.194,9.701 M36.194,5.105
		c-3.28,4.91-12.3,6.57-16.479,7.23h-5.101v14.26h4.739c3.951,0.6,13.461,1.89,16.841,6.96V5.105L36.194,5.105z"/>
</g>
<g display="none">
	<path display="inline" fill="#343434" d="M10.836,27.154l3.417,12.541h-2.029L8.994,27.154H10.836 M12.364,25.154h-5.95
		l4.26,16.541h5.59v-2.229L12.364,25.154L12.364,25.154z"/>
</g>
<g display="none">
	<path display="inline" fill="#343434" d="M12.614,14.336v10.26h-6.45v-10.26H12.614 M14.614,12.336h-8.45c-1.1,0-2,0.89-2,2v10.26
		c0,1.1,0.9,2,2,2h8.45V12.336L14.614,12.336z"/>
</g>
<g display="none">
	<path display="inline" fill="#343434" d="M34.194,9.701v19.288c-4.48-2.854-10.728-3.795-14.169-4.314l-0.372-0.056l-0.149-0.022
		h-0.15h-2.739v-10.26h3.101h0.157l0.155-0.024C22.658,13.896,29.408,12.83,34.194,9.701 M36.194,5.105
		c-3.28,4.91-12.3,6.57-16.479,7.23h-5.101v14.26h4.739c3.951,0.6,13.461,1.89,16.841,6.96V5.105L36.194,5.105z"/>
</g>
<g display="none">
	<path display="inline" fill="#343434" d="M10.836,27.154l3.417,12.541h-2.029L8.994,27.154H10.836 M12.364,25.154h-5.95
		l4.26,16.541h5.59v-2.229L12.364,25.154L12.364,25.154z"/>
</g>
<rect x="29.758" y="25.817" display="none" fill="#343434" width="24.318" height="2.274"/>
<path display="none" fill="#343434" d="M56.297,48.17H16.4c-1.66,0-3.011-1.35-3.011-3.01v-5.601h2.274v5.601
	c0,0.406,0.329,0.736,0.736,0.736h39.896c0.406,0,0.736-0.331,0.736-0.736V11.292c0-0.406-0.33-0.736-0.736-0.736H16.4
	c-0.407,0-0.736,0.331-0.736,0.736v15.335H13.39V11.292c0-1.66,1.351-3.01,3.011-3.01h39.896c1.66,0,3.011,1.35,3.011,3.01V45.16
	C59.308,46.82,57.957,48.17,56.297,48.17z"/>
<rect x="14.527" y="18.167" display="none" fill="#343434" width="43.643" height="2.274"/>
<circle display="none" fill="#343434" cx="19.893" cy="14.181" r="1.869"/>
<circle display="none" fill="#343434" cx="26.908" cy="14.181" r="1.869"/>
<path display="none" fill="#343434" d="M20.646,42.651v-5.771H5.864v-7.785h14.781v-5.772l9.665,9.665L20.646,42.651z M8.139,34.607
	H22.92v2.556l4.176-4.174l-4.176-4.175v2.557H8.139V34.607z"/>
<rect x="29.758" y="25.818" display="none" fill="#343434" width="24.318" height="2.274"/>
<path display="none" fill="#343434" d="M56.297,48.17H16.4c-1.66,0-3.011-1.35-3.011-3.01V39.56h2.274v5.601
	c0,0.406,0.329,0.736,0.736,0.736h39.896c0.406,0,0.736-0.33,0.736-0.736V11.292c0-0.406-0.33-0.736-0.736-0.736H16.4
	c-0.407,0-0.736,0.331-0.736,0.736v15.335H13.39V11.292c0-1.66,1.351-3.01,3.011-3.01h39.896c1.66,0,3.01,1.35,3.01,3.01V45.16
	C59.307,46.82,57.957,48.17,56.297,48.17z"/>
<rect x="14.527" y="18.168" display="none" fill="#343434" width="43.643" height="2.274"/>
<circle display="none" fill="#343434" cx="19.893" cy="14.181" r="1.869"/>
<circle display="none" fill="#343434" cx="26.908" cy="14.181" r="1.869"/>
<path display="none" fill="#343434" d="M20.646,42.652v-5.771H5.864v-7.785h14.781v-5.772l9.665,9.665L20.646,42.652z M8.139,34.608
	H22.92v2.556l4.176-4.174l-4.176-4.175v2.557H8.139V34.608z"/>
<rect x="29.758" y="25.817" display="none" fill="#343434" width="24.318" height="2.273"/>
<path display="none" fill="#343434" d="M56.297,48.17H16.4c-1.66,0-3.011-1.35-3.011-3.01v-5.602h2.274v5.602
	c0,0.405,0.329,0.736,0.736,0.736h39.896c0.406,0,0.736-0.331,0.736-0.736V11.291c0-0.405-0.33-0.736-0.736-0.736H16.4
	c-0.407,0-0.736,0.331-0.736,0.736v15.335H13.39V11.291c0-1.66,1.351-3.01,3.011-3.01h39.896c1.66,0,3.01,1.35,3.01,3.01V45.16
	C59.307,46.82,57.957,48.17,56.297,48.17z"/>
<rect x="14.527" y="18.167" display="none" fill="#343434" width="43.643" height="2.274"/>
<circle display="none" fill="#343434" cx="19.893" cy="14.181" r="1.869"/>
<circle display="none" fill="#343434" cx="26.908" cy="14.181" r="1.869"/>
<path display="none" fill="#343434" d="M20.646,42.651v-5.771H5.864v-7.785h14.781v-5.771l9.665,9.664L20.646,42.651z M8.139,34.607
	H22.92v2.556l4.176-4.175l-4.176-4.175v2.557H8.139V34.607z"/>
<path display="none" fill="#7A7C7C" d="M56.328,8.281H16.432c-1.66,0-3.011,1.351-3.011,3.011v5.876v2.274h2.274h41.369h2.273
	v-2.274v-5.876C59.338,9.632,57.988,8.281,56.328,8.281z"/>
<path display="none" fill="#EDEDF3" d="M58.108,19.442h-1.044H13.421V39.56v3.093v2.508c0,1.661,1.351,3.011,3.011,3.011h39.896
	c1.66,0,3.01-1.35,3.01-3.011V19.442H58.108z"/>
<rect x="29.789" y="25.818" display="none" fill="#7A7C7C" width="24.318" height="2.273"/>
<circle display="none" fill="#F8D84A" cx="19.924" cy="14.182" r="1.869"/>
<circle display="none" fill="#ED5145" cx="26.939" cy="14.182" r="1.869"/>
<path display="none" fill="#37B0E5" d="M20.677,42.652v-5.771H5.896v-7.784h14.781v-5.771l9.665,9.664L20.677,42.652z"/>
<rect x="9.231" y="5.995" display="none" fill="#B9E0CD" width="33.835" height="20.336"/>
<path display="none" fill="#4CBC86" d="M43.066,5.995H9.231v20.336h33.835V5.995z M41.066,11.087
	c-1.434-0.479-2.547-1.633-2.969-3.092h2.969V11.087z M36.021,24.331H16.45c-0.516-2.63-2.59-4.705-5.219-5.222v-5.893
	c2.629-0.517,4.704-2.592,5.22-5.222h19.57c0.504,2.571,2.499,4.609,5.045,5.184v5.969C38.521,19.722,36.525,21.76,36.021,24.331z
	 M14.375,7.995c-0.439,1.518-1.627,2.705-3.144,3.146V7.995H14.375z M11.231,21.185c1.517,0.441,2.704,1.629,3.144,3.146h-3.144
	V21.185z M38.098,24.331c0.422-1.459,1.535-2.612,2.969-3.092v3.092H38.098z"/>
<path display="none" fill="#4CBC86" d="M26.359,8.856c-2.622,0-4.676,3.148-4.676,7.169s2.054,7.169,4.676,7.169
	c2.623,0,4.677-3.148,4.677-7.169S28.982,8.856,26.359,8.856z M26.359,21.194c-1.266,0-2.676-2.123-2.676-5.169
	s1.41-5.169,2.676-5.169s2.677,2.123,2.677,5.169S27.625,21.194,26.359,21.194z"/>
<path display="none" fill="#4CBC86" d="M17.644,13.052c-1.585,0-2.875,1.379-2.875,3.073s1.29,3.072,2.875,3.072
	s2.876-1.378,2.876-3.072S19.229,13.052,17.644,13.052z M17.644,17.197c-0.482,0-0.875-0.481-0.875-1.072
	c0-0.592,0.393-1.073,0.875-1.073c0.483,0,0.876,0.481,0.876,1.073C18.52,16.716,18.127,17.197,17.644,17.197z"/>
<path display="none" fill="#F8C89E" d="M46.209,31.355c-0.061-0.078-1.516-1.907-3.842-1.907c-0.996,0-1.986,0.334-2.944,0.993
	c-2.837,1.955-7.569,6.626-8.806,7.864h-8.541c-0.209-0.077-0.482-0.271-0.482-0.763c0-0.138,0-0.345,0.576-0.345l0.116,0.004
	l5.938-0.004c1.195-0.099,3.456-0.98,3.456-3.605c0-2.608-2.34-3.545-3.576-3.675l-6.805-0.005c-1.049,0-2.019-0.193-3.045-0.398
	c-1.029-0.205-2.093-0.418-3.232-0.418c-2.391,0-5.961,1.141-8.16,4.354c-2.359,3.448-5.83,5.774-5.864,5.798L0,39.912L9.988,50.31
	l3.23-3.725l18.283,0.07l15.264-14.586L46.209,31.355z"/>
<path display="none" fill="#343434" d="M43.066,5.995H9.231v20.336h33.835V5.995z M41.066,11.087
	c-1.434-0.479-2.546-1.633-2.969-3.092h2.969V11.087z M36.021,24.331H16.45c-0.516-2.63-2.59-4.705-5.219-5.222v-5.892
	c2.629-0.518,4.704-2.593,5.22-5.223h19.57c0.505,2.571,2.499,4.61,5.045,5.184v5.97C38.521,19.722,36.526,21.76,36.021,24.331z
	 M14.375,7.995c-0.439,1.519-1.626,2.705-3.144,3.146V7.995H14.375z M11.231,21.186c1.518,0.44,2.704,1.628,3.144,3.146h-3.144
	V21.186z M38.098,24.331c0.423-1.459,1.535-2.612,2.969-3.092v3.092H38.098z"/>
<path display="none" fill="#343434" d="M26.36,8.856c-2.623,0-4.677,3.149-4.677,7.169c0,4.021,2.054,7.169,4.677,7.169
	c2.622,0,4.676-3.148,4.676-7.169C31.036,12.006,28.982,8.856,26.36,8.856z M26.36,21.194c-1.267,0-2.677-2.123-2.677-5.169
	s1.41-5.169,2.677-5.169c1.266,0,2.676,2.123,2.676,5.169S27.626,21.194,26.36,21.194z"/>
<path display="none" fill="#343434" d="M17.644,13.052c-1.585,0-2.875,1.379-2.875,3.073s1.29,3.072,2.875,3.072
	c1.586,0,2.876-1.378,2.876-3.072S19.229,13.052,17.644,13.052z M17.644,17.197c-0.482,0-0.875-0.481-0.875-1.072
	c0-0.592,0.393-1.073,0.875-1.073c0.483,0,0.876,0.481,0.876,1.073C18.52,16.716,18.127,17.197,17.644,17.197z"/>
<path display="none" fill="#343434" d="M46.21,31.355c-0.062-0.078-1.517-1.907-3.842-1.907c-0.997,0-1.987,0.334-2.945,0.993
	c-2.837,1.955-7.568,6.627-8.806,7.864h-8.541c-0.209-0.077-0.482-0.271-0.482-0.763c0-0.137,0-0.344,0.577-0.344l0.115,0.003
	l5.938-0.003c1.195-0.1,3.456-0.981,3.456-3.606c0-2.608-2.339-3.544-3.576-3.675l-6.805-0.005c-1.048,0-2.019-0.193-3.045-0.398
	c-1.029-0.205-2.093-0.417-3.232-0.417c-2.39,0-5.961,1.14-8.16,4.354c-2.359,3.448-5.829,5.774-5.864,5.798L0,39.912l9.988,10.398
	l3.23-3.725l18.283,0.069l15.264-14.586L46.21,31.355z M30.703,44.652l-18.395-0.07l-2.396,2.764l-6.847-7.129
	c1.294-0.994,3.635-2.99,5.445-5.636c1.76-2.571,4.606-3.483,6.51-3.483c0.942,0,1.864,0.184,2.841,0.378
	c1.077,0.215,2.191,0.438,3.437,0.438h6.636c0.32,0.047,1.745,0.332,1.745,1.68c0,1.382-1.357,1.587-1.539,1.609l-5.771,0.004
	c0,0-0.074-0.007-0.198-0.007c-1.542,0-2.577,0.941-2.577,2.344c0,1.813,1.396,2.586,2.135,2.741l9.722,0.021l0.294-0.297
	c0.057-0.058,5.753-5.812,8.813-7.92c0.617-0.425,1.227-0.641,1.811-0.641c0.645,0,1.194,0.264,1.59,0.538L30.703,44.652z"/>
<path display="none" fill="#343434" d="M43.066,5.995H9.231v20.336h33.835V5.995z M41.066,11.087
	c-1.434-0.479-2.546-1.633-2.969-3.092h2.969V11.087z M36.021,24.331H16.45c-0.516-2.63-2.59-4.705-5.219-5.222v-5.892
	c2.629-0.518,4.704-2.593,5.22-5.223h19.57c0.505,2.571,2.499,4.61,5.045,5.184v5.97C38.521,19.722,36.526,21.76,36.021,24.331z
	 M14.375,7.995c-0.439,1.519-1.626,2.705-3.144,3.146V7.995H14.375z M11.231,21.186c1.518,0.44,2.704,1.628,3.144,3.146h-3.144
	V21.186z M38.098,24.331c0.423-1.459,1.535-2.612,2.969-3.092v3.092H38.098z"/>
<path display="none" fill="#343434" d="M26.36,8.856c-2.623,0-4.677,3.149-4.677,7.169c0,4.021,2.054,7.169,4.677,7.169
	c2.622,0,4.676-3.148,4.676-7.169C31.036,12.006,28.982,8.856,26.36,8.856z M26.36,21.194c-1.267,0-2.677-2.123-2.677-5.169
	s1.41-5.169,2.677-5.169c1.266,0,2.676,2.123,2.676,5.169S27.626,21.194,26.36,21.194z"/>
<path display="none" fill="#343434" d="M17.644,13.052c-1.585,0-2.875,1.379-2.875,3.073s1.29,3.072,2.875,3.072
	c1.586,0,2.876-1.378,2.876-3.072S19.229,13.052,17.644,13.052z M17.644,17.197c-0.482,0-0.875-0.481-0.875-1.072
	c0-0.592,0.393-1.073,0.875-1.073c0.483,0,0.876,0.481,0.876,1.073C18.52,16.716,18.127,17.197,17.644,17.197z"/>
<path display="none" fill="#343434" d="M46.21,31.355c-0.062-0.078-1.517-1.907-3.842-1.907c-0.997,0-1.987,0.334-2.945,0.993
	c-2.837,1.955-7.568,6.627-8.806,7.864h-8.541c-0.209-0.077-0.482-0.271-0.482-0.763c0-0.137,0-0.344,0.577-0.344l0.115,0.003
	l5.938-0.003c1.195-0.1,3.456-0.981,3.456-3.606c0-2.608-2.339-3.544-3.576-3.675l-6.805-0.005c-1.048,0-2.019-0.193-3.045-0.398
	c-1.029-0.205-2.093-0.417-3.232-0.417c-2.39,0-5.961,1.14-8.16,4.354c-2.359,3.448-5.829,5.774-5.864,5.798L0,39.912l9.988,10.398
	l3.23-3.725l18.283,0.069l15.264-14.586L46.21,31.355z M30.703,44.652l-18.395-0.07l-2.396,2.764l-6.847-7.129
	c1.294-0.994,3.635-2.99,5.445-5.636c1.76-2.571,4.606-3.483,6.51-3.483c0.942,0,1.864,0.184,2.841,0.378
	c1.077,0.215,2.191,0.438,3.437,0.438h6.636c0.32,0.047,1.745,0.332,1.745,1.68c0,1.382-1.357,1.587-1.539,1.609l-5.771,0.004
	c0,0-0.074-0.007-0.198-0.007c-1.542,0-2.577,0.941-2.577,2.344c0,1.813,1.396,2.586,2.135,2.741l9.722,0.021l0.294-0.297
	c0.057-0.058,5.753-5.812,8.813-7.92c0.617-0.425,1.227-0.641,1.811-0.641c0.645,0,1.194,0.264,1.59,0.538L30.703,44.652z"/>
<path display="none" fill="#343434" d="M43.066,5.995H9.231v20.336h33.835V5.995z M41.066,11.087
	c-1.434-0.479-2.546-1.633-2.969-3.092h2.969V11.087z M36.021,24.331H16.45c-0.516-2.63-2.59-4.705-5.219-5.222v-5.892
	c2.629-0.518,4.704-2.593,5.22-5.223h19.57c0.505,2.571,2.499,4.61,5.045,5.184v5.97C38.521,19.722,36.526,21.76,36.021,24.331z
	 M14.375,7.995c-0.439,1.519-1.626,2.705-3.144,3.146V7.995H14.375z M11.231,21.186c1.518,0.44,2.704,1.628,3.144,3.146h-3.144
	V21.186z M38.098,24.331c0.423-1.459,1.535-2.612,2.969-3.092v3.092H38.098z"/>
<path display="none" fill="#343434" d="M26.36,8.856c-2.623,0-4.677,3.149-4.677,7.169c0,4.021,2.054,7.169,4.677,7.169
	c2.622,0,4.676-3.148,4.676-7.169C31.036,12.006,28.982,8.856,26.36,8.856z M26.36,21.194c-1.267,0-2.677-2.123-2.677-5.169
	s1.41-5.169,2.677-5.169c1.266,0,2.676,2.123,2.676,5.169S27.626,21.194,26.36,21.194z"/>
<path display="none" fill="#343434" d="M17.644,13.052c-1.585,0-2.875,1.379-2.875,3.073s1.29,3.072,2.875,3.072
	c1.586,0,2.876-1.378,2.876-3.072S19.229,13.052,17.644,13.052z M17.644,17.197c-0.482,0-0.875-0.481-0.875-1.072
	c0-0.592,0.393-1.073,0.875-1.073c0.483,0,0.876,0.481,0.876,1.073C18.52,16.716,18.127,17.197,17.644,17.197z"/>
<path display="none" fill="#343434" d="M46.21,31.355c-0.062-0.078-1.517-1.907-3.842-1.907c-0.997,0-1.987,0.334-2.945,0.993
	c-2.837,1.955-7.568,6.627-8.806,7.864h-8.541c-0.209-0.077-0.482-0.271-0.482-0.763c0-0.137,0-0.344,0.577-0.344l0.115,0.003
	l5.938-0.003c1.195-0.1,3.456-0.981,3.456-3.606c0-2.608-2.339-3.544-3.576-3.675l-6.805-0.005c-1.048,0-2.019-0.193-3.045-0.398
	c-1.029-0.205-2.093-0.417-3.232-0.417c-2.39,0-5.961,1.14-8.16,4.354c-2.359,3.448-5.829,5.774-5.864,5.798L0,39.912l9.988,10.398
	l3.23-3.725l18.283,0.069l15.264-14.586L46.21,31.355z M30.703,44.652l-18.395-0.07l-2.396,2.764l-6.847-7.129
	c1.294-0.994,3.635-2.99,5.445-5.636c1.76-2.571,4.606-3.483,6.51-3.483c0.942,0,1.864,0.184,2.841,0.378
	c1.077,0.215,2.191,0.438,3.437,0.438h6.636c0.32,0.047,1.745,0.332,1.745,1.68c0,1.382-1.357,1.587-1.539,1.609l-5.771,0.004
	c0,0-0.074-0.007-0.198-0.007c-1.542,0-2.577,0.941-2.577,2.344c0,1.813,1.396,2.586,2.135,2.741l9.722,0.021l0.294-0.297
	c0.057-0.058,5.753-5.812,8.813-7.92c0.617-0.425,1.227-0.641,1.811-0.641c0.645,0,1.194,0.264,1.59,0.538L30.703,44.652z"/>
<g display="none">
	<g display="inline">
		<polygon display="none" fill="#999999" points="20.436,11.3 20.436,11.868 20.436,13.868 20.436,48.612 27.918,49.529 
			29.918,48.612 29.918,4.385 9.213,4.385 9.213,11.374 11.213,11.374 		"/>
		<path display="none" fill="#C8C8C8" d="M21.188,50.03H2.979V10.62h18.21V50.03z"/>
		<path display="none" fill="#C8C8C8" d="M43.634,50.03H24.177V18.102h19.457V50.03z"/>
		<rect x="0.237" y="48.03" display="none" fill="#C8C8C8" width="47.385" height="2"/>
	</g>
</g>
<path display="none" fill="#848484" d="M21.188,50.03H2.979V10.62h18.21V50.03z M4.979,48.03h14.21V12.62H4.979V48.03z"/>
<path display="none" fill="#848484" d="M43.634,50.03H24.177V18.102h19.457V50.03z M26.177,48.03h15.457V20.102H26.177V48.03z"/>
<polygon display="none" fill="#848484" points="29.918,17.855 27.918,17.855 27.918,6.385 11.213,6.385 11.213,10.374 9.213,10.374 
	9.213,4.385 29.918,4.385 "/>
<rect x="21.436" y="11.868" display="none" fill="#848484" width="7.482" height="2"/>
<rect x="21.436" y="24.336" display="none" fill="#848484" width="3.741" height="2"/>
<rect x="21.436" y="29.325" display="none" fill="#848484" width="3.741" height="2"/>
<rect x="21.436" y="18.102" display="none" fill="#848484" width="7.482" height="2"/>
<rect x="8.966" y="17.855" display="none" fill="#848484" width="2.494" height="2.494"/>
<rect x="8.966" y="22.843" display="none" fill="#848484" width="2.494" height="2.493"/>
<rect x="8.966" y="27.832" display="none" fill="#848484" width="2.494" height="2.493"/>
<rect x="30.165" y="24.09" display="none" fill="#848484" width="2.493" height="2.494"/>
<rect x="30.165" y="29.078" display="none" fill="#848484" width="2.493" height="2.494"/>
<path display="none" fill="#343434" d="M21.193,50.026H2.982V10.617h18.211V50.026z M4.982,48.026h14.211V12.617H4.982V48.026z"/>
<path display="none" fill="#343434" d="M43.639,50.026H24.182V18.099h19.457V50.026z M26.182,48.026h15.457V20.099H26.182V48.026z"
	/>
<polygon display="none" fill="#343434" points="29.922,17.852 27.922,17.852 27.922,6.382 11.217,6.382 11.217,10.37 9.217,10.37 
	9.217,4.382 29.922,4.382 "/>
<rect x="21.439" y="11.864" display="none" fill="#343434" width="7.482" height="2"/>
<rect x="21.439" y="24.334" display="none" fill="#343434" width="3.742" height="2"/>
<rect x="21.439" y="29.321" display="none" fill="#343434" width="3.742" height="2"/>
<rect x="21.439" y="18.099" display="none" fill="#343434" width="7.482" height="2"/>
<rect x="8.971" y="17.852" display="none" fill="#343434" width="2.494" height="2.494"/>
<rect x="8.971" y="22.84" display="none" fill="#343434" width="2.494" height="2.494"/>
<rect x="8.971" y="27.828" display="none" fill="#343434" width="2.494" height="2.493"/>
<rect x="30.17" y="24.087" display="none" fill="#343434" width="2.492" height="2.494"/>
<rect x="30.17" y="29.074" display="none" fill="#343434" width="2.492" height="2.494"/>
<circle display="none" fill="#009999" cx="37.304" cy="11.34" r="10.341"/>
<path display="none" fill="#FFFFFF" d="M37.303,22.681c-6.252,0-11.34-5.088-11.34-11.341S31.051,0,37.303,0
	c6.254,0,11.342,5.087,11.342,11.34S43.557,22.681,37.303,22.681z M37.303,2c-5.15,0-9.34,4.189-9.34,9.34s4.189,9.341,9.34,9.341
	s9.342-4.19,9.342-9.341S42.453,2,37.303,2z"/>
<path display="none" fill="#343434" d="M21.193,50.026H2.982V10.617h18.211V50.026z M4.982,48.026h14.211V12.617H4.982V48.026z"/>
<path display="none" fill="#343434" d="M43.639,50.026H24.182V18.1h19.457V50.026z M26.182,48.026h15.457V20.1H26.182V48.026z"/>
<polygon display="none" fill="#343434" points="29.922,17.853 27.922,17.853 27.922,6.383 11.217,6.383 11.217,10.371 9.217,10.371 
	9.217,4.383 29.922,4.383 "/>
<rect x="21.439" y="11.864" display="none" fill="#343434" width="7.482" height="2"/>
<rect x="21.439" y="24.334" display="none" fill="#343434" width="3.742" height="2"/>
<rect x="21.439" y="29.322" display="none" fill="#343434" width="3.742" height="2"/>
<rect x="21.439" y="18.1" display="none" fill="#343434" width="7.482" height="2"/>
<rect x="8.971" y="17.853" display="none" fill="#343434" width="2.494" height="2.494"/>
<rect x="8.971" y="22.84" display="none" fill="#343434" width="2.494" height="2.494"/>
<rect x="8.971" y="27.828" display="none" fill="#343434" width="2.494" height="2.494"/>
<rect x="30.17" y="24.087" display="none" fill="#343434" width="2.492" height="2.494"/>
<rect x="30.17" y="29.075" display="none" fill="#343434" width="2.492" height="2.494"/>
<circle display="none" fill="#FF0000" cx="37.304" cy="11.34" r="10.341"/>
<path display="none" fill="#FFFFFF" d="M37.303,22.681c-6.252,0-11.34-5.088-11.34-11.341S31.051,0,37.303,0
	c6.254,0,11.342,5.087,11.342,11.34S43.557,22.681,37.303,22.681z M37.303,2c-5.15,0-9.34,4.189-9.34,9.34s4.189,9.341,9.34,9.341
	s9.342-4.19,9.342-9.341S42.453,2,37.303,2z"/>
<path display="none" fill="#343434" d="M21.193,50.026H2.982V10.617h18.211V50.026z M4.982,48.026h14.211V12.617H4.982V48.026z"/>
<path display="none" fill="#343434" d="M43.639,50.026H24.182V18.1h19.457V50.026z M26.182,48.026h15.457V20.1H26.182V48.026z"/>
<polygon display="none" fill="#343434" points="29.922,17.853 27.922,17.853 27.922,6.383 11.217,6.383 11.217,10.371 9.217,10.371 
	9.217,4.383 29.922,4.383 "/>
<rect x="21.439" y="11.864" display="none" fill="#343434" width="7.482" height="2"/>
<rect x="21.439" y="24.334" display="none" fill="#343434" width="3.742" height="2"/>
<rect x="21.439" y="29.322" display="none" fill="#343434" width="3.742" height="2"/>
<rect x="21.439" y="18.1" display="none" fill="#343434" width="7.482" height="2"/>
<rect x="8.971" y="17.853" display="none" fill="#343434" width="2.494" height="2.494"/>
<rect x="8.971" y="22.84" display="none" fill="#343434" width="2.494" height="2.494"/>
<rect x="8.971" y="27.828" display="none" fill="#343434" width="2.494" height="2.494"/>
<rect x="30.17" y="24.087" display="none" fill="#343434" width="2.492" height="2.494"/>
<rect x="30.17" y="29.075" display="none" fill="#343434" width="2.492" height="2.494"/>
<path display="none" fill="#343434" d="M46.266,11.518H30.861V9.975c0-3.267-2.657-5.924-5.924-5.924
	c-3.266,0-5.923,2.657-5.923,5.924v1.543H3.018c-1.654,0-3,1.346-3,3v27.437c0,1.654,1.346,3,3,3h43.248c1.654,0,3-1.346,3-3V14.518
	C49.266,12.863,47.92,11.518,46.266,11.518z M21.015,9.975c0-2.164,1.76-3.924,3.923-3.924c2.164,0,3.924,1.76,3.924,3.924v5.998
	h-7.847V9.975z M47.266,41.954c0,0.551-0.448,1-1,1H3.018c-0.552,0-1-0.449-1-1V14.518c0-0.551,0.448-1,1-1h15.997v4.455h11.847
	v-4.455h15.404c0.552,0,1,0.449,1,1V41.954z"/>
<path display="none" fill="#343434" d="M14.725,29.006c2.558,0,4.638-2.081,4.638-4.638c0-2.558-2.08-4.638-4.638-4.638
	s-4.638,2.08-4.638,4.638C10.087,26.925,12.167,29.006,14.725,29.006z M14.725,21.73c1.454,0,2.638,1.183,2.638,2.638
	c0,1.454-1.184,2.638-2.638,2.638s-2.638-1.184-2.638-2.638C12.087,22.913,13.271,21.73,14.725,21.73z"/>
<path display="none" fill="#343434" d="M19.739,28.955l-0.505-0.13l-0.396,0.34c-1.147,0.985-2.608,1.528-4.114,1.528
	c-1.501,0-2.959-0.539-4.104-1.519l-0.399-0.342l-0.509,0.136C7.526,29.554,6,31.533,6,33.784v3.063h17.498v-3.063
	C23.498,31.51,21.952,29.523,19.739,28.955z M21.498,34.847H8v-1.063c0-1.187,0.712-2.249,1.779-2.725
	c1.429,1.058,3.164,1.634,4.945,1.634c1.79,0,3.531-0.582,4.964-1.648c1.085,0.468,1.81,1.536,1.81,2.739V34.847z"/>
<rect x="26.884" y="22.157" display="none" fill="#343434" width="15.498" height="2"/>
<rect x="26.884" y="28.336" display="none" fill="#343434" width="15.498" height="2"/>
<circle display="none" fill="#343434" cx="24.773" cy="10.04" r="1.775"/>
<path display="none" fill="#343434" d="M46.266,11.518H30.861V9.975c0-3.267-2.657-5.924-5.924-5.924
	c-3.266,0-5.923,2.657-5.923,5.924v1.543H3.018c-1.654,0-3,1.346-3,3v27.437c0,1.654,1.346,3,3,3h43.248c1.654,0,3-1.346,3-3V14.518
	C49.266,12.863,47.92,11.518,46.266,11.518z M21.015,9.975c0-2.164,1.76-3.924,3.923-3.924c2.164,0,3.924,1.76,3.924,3.924v5.998
	h-7.847V9.975z M47.266,41.954c0,0.551-0.447,1-1,1H3.018c-0.552,0-1-0.449-1-1V14.518c0-0.551,0.448-1,1-1h15.997v4.455h11.847
	v-4.455h15.404c0.553,0,1,0.449,1,1V41.954z"/>
<path display="none" fill="#343434" d="M14.725,29.006c2.558,0,4.638-2.081,4.638-4.638c0-2.558-2.08-4.638-4.638-4.638
	s-4.638,2.08-4.638,4.638C10.087,26.925,12.167,29.006,14.725,29.006z M14.725,21.73c1.454,0,2.638,1.183,2.638,2.638
	c0,1.454-1.184,2.638-2.638,2.638s-2.638-1.184-2.638-2.638C12.087,22.913,13.271,21.73,14.725,21.73z"/>
<path display="none" fill="#343434" d="M19.739,28.955l-0.505-0.13l-0.396,0.34c-1.147,0.985-2.608,1.528-4.114,1.528
	c-1.501,0-2.959-0.539-4.104-1.519l-0.399-0.342l-0.509,0.136C7.526,29.554,6,31.533,6,33.784v3.063h17.498v-3.063
	C23.498,31.51,21.952,29.523,19.739,28.955z M21.498,34.847H8v-1.063c0-1.187,0.712-2.249,1.779-2.725
	c1.429,1.058,3.164,1.634,4.945,1.634c1.79,0,3.531-0.582,4.964-1.648c1.085,0.468,1.81,1.536,1.81,2.739V34.847z"/>
<rect x="26.884" y="22.157" display="none" fill="#343434" width="15.498" height="2"/>
<rect x="26.884" y="28.336" display="none" fill="#343434" width="15.498" height="2"/>
<circle display="none" fill="#343434" cx="24.773" cy="10.04" r="1.775"/>
<path display="none" fill="#343434" d="M46.266,11.518H30.861V9.975c0-3.267-2.657-5.924-5.924-5.924
	c-3.266,0-5.923,2.657-5.923,5.924v1.543H3.018c-1.654,0-3,1.346-3,3v27.437c0,1.654,1.346,3,3,3h43.248c1.654,0,3-1.346,3-3V14.518
	C49.266,12.863,47.92,11.518,46.266,11.518z M21.015,9.975c0-2.164,1.76-3.924,3.923-3.924c2.164,0,3.924,1.76,3.924,3.924v5.998
	h-7.847V9.975z M47.266,41.954c0,0.551-0.448,1-1,1H3.018c-0.552,0-1-0.449-1-1V14.518c0-0.551,0.448-1,1-1h15.997v4.455h11.847
	v-4.455h15.404c0.552,0,1,0.449,1,1V41.954z"/>
<path display="none" fill="#343434" d="M14.725,29.006c2.558,0,4.638-2.081,4.638-4.638c0-2.558-2.08-4.638-4.638-4.638
	s-4.638,2.08-4.638,4.638C10.087,26.925,12.167,29.006,14.725,29.006z M14.725,21.73c1.454,0,2.638,1.183,2.638,2.638
	c0,1.454-1.184,2.638-2.638,2.638s-2.638-1.184-2.638-2.638C12.087,22.913,13.271,21.73,14.725,21.73z"/>
<path display="none" fill="#343434" d="M19.739,28.955l-0.505-0.13l-0.396,0.34c-1.147,0.985-2.608,1.528-4.114,1.528
	c-1.501,0-2.959-0.539-4.104-1.519l-0.399-0.342l-0.509,0.136C7.526,29.554,6,31.533,6,33.784v3.063h17.498v-3.063
	C23.498,31.51,21.952,29.523,19.739,28.955z M21.498,34.847H8v-1.063c0-1.187,0.712-2.249,1.779-2.725
	c1.429,1.058,3.164,1.634,4.945,1.634c1.79,0,3.531-0.582,4.964-1.648c1.085,0.468,1.81,1.536,1.81,2.739V34.847z"/>
<rect x="26.884" y="22.157" display="none" fill="#343434" width="15.498" height="2"/>
<rect x="26.884" y="28.336" display="none" fill="#343434" width="15.498" height="2"/>
<circle display="none" fill="#343434" cx="24.773" cy="10.04" r="1.775"/>
<path display="none" fill="#E8EBEB" stroke="#9B9B9B" stroke-width="0.25" stroke-miterlimit="10" d="M47.101,41.812
	c0,0.551-0.448,1-1,1H2.853c-0.552,0-1-0.449-1-1V14.375c0-0.551,0.448-1,1-1H18.85h11.847h15.404c0.552,0,1,0.449,1,1V41.812z"/>
<path display="none" fill="#FBC691" d="M14.56,28.864c2.558,0,4.638-2.081,4.638-4.639c0-2.557-2.08-4.637-4.638-4.637
	s-4.638,2.08-4.638,4.637C9.922,26.783,12.002,28.864,14.56,28.864z"/>
<path display="none" fill="#4CBC86" d="M19.574,28.813l-0.505-0.13l-0.396,0.339c-1.147,0.986-2.608,1.528-4.114,1.528
	c-1.501,0-2.959-0.538-4.104-1.518l-0.399-0.342l-0.509,0.136c-2.186,0.585-3.712,2.564-3.712,4.815v3.063h17.498v-3.063
	C23.333,31.368,21.787,29.381,19.574,28.813z"/>
<rect x="26.719" y="22.014" display="none" fill="#4B6D9D" width="15.498" height="2"/>
<rect x="26.719" y="28.194" display="none" fill="#4B6D9D" width="15.498" height="2"/>
<path display="none" fill="#494949" d="M19.066,9.36c0-3.146,2.56-5.706,5.706-5.706c3.147,0,5.708,2.56,5.708,5.706v8.727H19.066
	V9.36z M24.608,8.123c-0.981,0-1.775,0.795-1.775,1.774c0,0.98,0.794,1.775,1.775,1.775c0.98,0,1.774-0.795,1.774-1.775
	C26.383,8.917,25.589,8.123,24.608,8.123z"/>
<path display="none" fill="#84533D" d="M14.56,19.588c-1.753,0-3.263,0.988-4.052,2.426h8.104
	C17.822,20.577,16.313,19.588,14.56,19.588z"/>
<path display="none" d="M43.009,11.174c6.794,0.762,13.054,3.248,18.298,6.994l5.384-5.839l6.18,5.407l-5.428,5.885
	c5.993,6.613,9.636,15.299,9.636,24.817c0,20.711-17.254,37.513-38.526,37.513c-21.281,0-38.534-16.802-38.534-37.513
	c0-19.267,15.022-35.43,34.685-37.329V7.457h-9.608V0h27.527v7.457h-9.612V11.174z M34.438,56.574
	c8.484,6.191,18.151-6.369,9.67-12.557c-2.859-2.093-17.783-5.401-22.465-6.587C24.122,41.468,31.578,54.498,34.438,56.574z
	 M59.726,27.814c-5.418-5.271-12.909-8.539-21.174-8.539c-16.547,0-29.955,13.053-29.955,29.163
	c0,16.102,13.408,29.156,29.955,29.156c16.539,0,29.946-13.054,29.946-29.156C68.498,40.383,65.145,33.092,59.726,27.814z"/>
<path display="none" fill="#343434" d="M37.791,33.129H5.002v-5.746h32.789V33.129z M7.002,31.129h28.789v-1.746H7.002V31.129z"/>
<rect x="5.002" y="20.594" display="none" fill="#343434" width="17.154" height="3.746"/>
<path display="none" fill="#343434" d="M39.463,53.765H4.018c-2.207,0-4-1.794-4-4V17.79c0-2.205,1.793-4,4-4h35.445
	c2.205,0,4,1.795,4,4v31.975C43.463,51.971,41.668,53.765,39.463,53.765z M4.018,15.79c-1.104,0-2,0.897-2,2v31.975
	c0,1.103,0.896,2,2,2h35.445c1.102,0,2-0.897,2-2V17.79c0-1.103-0.898-2-2-2H4.018z"/>
<path display="none" fill="#343434" d="M37.792,33.129H5.003v-5.746h32.789V33.129z M7.003,31.129h28.789v-1.746H7.003V31.129z"/>
<rect x="5.002" y="20.594" display="none" fill="#343434" width="17.154" height="3.746"/>
<path display="none" fill="#343434" d="M39.463,53.765H4.018c-2.206,0-4-1.794-4-4V17.79c0-2.205,1.794-4,4-4h35.445
	c2.206,0,4,1.795,4,4v31.975C43.463,51.971,41.669,53.765,39.463,53.765z M4.018,15.79c-1.103,0-2,0.897-2,2v31.975
	c0,1.103,0.897,2,2,2h35.445c1.103,0,2-0.897,2-2V17.79c0-1.103-0.897-2-2-2H4.018z"/>
<path display="none" fill="#343434" d="M37.792,33.129H5.003v-5.746h32.789V33.129z M7.003,31.129h28.789v-1.746H7.003V31.129z"/>
<rect x="5.002" y="20.594" display="none" fill="#343434" width="17.154" height="3.746"/>
<path display="none" fill="#343434" d="M39.463,53.765H4.018c-2.206,0-4-1.794-4-4V17.79c0-2.206,1.794-4,4-4h35.445
	c2.206,0,4,1.794,4,4v31.975C43.463,51.971,41.669,53.765,39.463,53.765z M4.018,15.79c-1.103,0-2,0.896-2,2v31.975
	c0,1.103,0.897,2,2,2h35.445c1.103,0,2-0.897,2-2V17.79c0-1.104-0.897-2-2-2H4.018z"/>
<path display="none" fill="#EDEDF3" d="M39.463,53.51H4.018c-2.206,0-4-1.794-4-4V17.535c0-2.206,1.794-4,4-4h35.445
	c2.206,0,4,1.794,4,4V49.51C43.463,51.716,41.669,53.51,39.463,53.51z"/>
<path display="none" fill="#7A7C7C" d="M37.792,31.874H5.003v-4.747h32.789V31.874z"/>
<rect x="5.002" y="20.339" display="none" fill="#494949" width="17.154" height="3.746"/>
</svg>
